M48
METRIC,LZ,000.000
;FILE_FORMAT=3:3
;TYPE=PLATED
;Layer: PTH_Through
;EasyEDA v6.5.42, 2024-03-17 15:56:58
;633bbcd927b44838993661e05d2ec2ea,9a5be75d700b4a6385dc1106f27949ae,10
;Gerber Generator version 0.2
;Holesize 1 = 0.310 mm
T01C0.310
;Holesize 2 = 0.411 mm
T02C0.411
%
G05
G90
T01
X002000Y-001000
X004000Y-001000
X006000Y-001000
X008000Y-001000
X010000Y-001000
X012000Y-001000
X014000Y-001000
X016000Y-001000
X018000Y-001000
X020000Y-001000
X022000Y-001000
X024000Y-001000
X026000Y-001000
X028000Y-001000
X030000Y-001000
X032000Y-001000
X034000Y-001000
X036000Y-001000
X038000Y-001000
X001000Y-002000
X001000Y-004000
X001000Y-006000
X001000Y-014000
X001000Y-016000
X001000Y-018000
X002000Y-019000
X004000Y-019000
X006000Y-019000
X008000Y-019000
X010000Y-019000
X012000Y-019000
X014000Y-019000
X016000Y-019000
X018000Y-019000
X020000Y-019000
X022000Y-019000
X024000Y-019000
X026000Y-019000
X028000Y-019000
X030000Y-019000
X032000Y-019000
X034000Y-019000
X036000Y-019000
X038000Y-019000
X039000Y-018000
X039000Y-016000
X039000Y-014000
X039000Y-006000
X039000Y-004000
X039000Y-002000
X026000Y-007000
X026000Y-005000
X027500Y-007500
X031500Y-007500
X029500Y-007500
X025500Y-012000
X025500Y-010500
X014500Y-012000
X002500Y-006000
X004000Y-006000
X002500Y-014000
X004000Y-014000
X037500Y-006000
X036000Y-006000
X037500Y-014000
X036000Y-014000
T02
X014500Y-009000
X008500Y-010000
X014500Y-010500
X014500Y-007500
M30
