G04 Layer: TopLayer*
G04 EasyEDA v6.5.42, 2024-03-17 15:56:58*
G04 633bbcd927b44838993661e05d2ec2ea,9a5be75d700b4a6385dc1106f27949ae,10*
G04 Gerber Generator version 0.2*
G04 Scale: 100 percent, Rotated: No, Reflected: No *
G04 Dimensions in millimeters *
G04 leading zeros omitted , absolute positions ,4 integer and 5 decimal *
%FSLAX45Y45*%
%MOMM*%

%AMMACRO1*21,1,$1,$2,0,0,$3*%
%ADD10C,0.3000*%
%ADD11MACRO1,1.35X1.41X0.0000*%
%ADD12R,1.3500X1.4100*%
%ADD13R,0.9000X0.8000*%
%ADD14R,0.7000X1.2500*%
%ADD15R,1.2500X0.7000*%
%ADD16MACRO1,0.864X0.8065X-90.0000*%
%ADD17R,0.4900X1.1570*%
%ADD18R,0.4900X1.1750*%
%ADD19R,4.8000X1.2000*%
%ADD20C,0.6200*%
%ADD21C,0.8200*%
%ADD22C,0.0138*%

%LPD*%
G36*
X1450695Y-1434490D02*
G01*
X1443532Y-1433779D01*
X1437436Y-1432509D01*
X1431544Y-1430680D01*
X1425803Y-1428242D01*
X1420368Y-1425295D01*
X1415237Y-1421790D01*
X1410462Y-1417828D01*
X1256842Y-1264208D01*
X1252270Y-1258620D01*
X1248867Y-1253439D01*
X1245971Y-1247952D01*
X1243634Y-1242212D01*
X1241907Y-1236268D01*
X1240739Y-1230172D01*
X1240180Y-1223975D01*
X1240180Y-1192276D01*
X1240688Y-1189075D01*
X1242161Y-1186180D01*
X1244498Y-1183944D01*
X1247444Y-1181862D01*
X1250645Y-1178712D01*
X1254252Y-1176375D01*
X1258468Y-1175715D01*
X1262634Y-1176934D01*
X1269542Y-1180592D01*
X1277112Y-1182928D01*
X1285494Y-1183741D01*
X1365148Y-1183741D01*
X1373530Y-1182928D01*
X1381150Y-1180592D01*
X1388110Y-1176883D01*
X1394256Y-1171854D01*
X1399286Y-1165707D01*
X1403045Y-1158697D01*
X1405331Y-1151128D01*
X1406144Y-1142746D01*
X1406144Y-1057300D01*
X1405331Y-1048918D01*
X1403045Y-1041349D01*
X1399286Y-1034338D01*
X1394256Y-1028192D01*
X1388110Y-1023162D01*
X1386230Y-1022146D01*
X1383385Y-1019911D01*
X1381506Y-1016762D01*
X1380845Y-1013206D01*
X1380845Y-986840D01*
X1381506Y-983284D01*
X1383385Y-980135D01*
X1386230Y-977900D01*
X1388110Y-976884D01*
X1396847Y-969619D01*
X1399997Y-968400D01*
X1403400Y-968298D01*
X1406652Y-969314D01*
X1415592Y-973836D01*
X1423720Y-977137D01*
X1435201Y-980135D01*
X1447038Y-981405D01*
X1458925Y-980998D01*
X1470609Y-978814D01*
X1480921Y-975309D01*
X1484934Y-974801D01*
X1488795Y-975918D01*
X1491996Y-978408D01*
X1493926Y-981964D01*
X1495094Y-985977D01*
X1498854Y-992987D01*
X1503883Y-999083D01*
X1508455Y-1002842D01*
X1510792Y-1005636D01*
X1512011Y-1009040D01*
X1511960Y-1012698D01*
X1510588Y-1016101D01*
X1509217Y-1018286D01*
X1507286Y-1023772D01*
X1506575Y-1030071D01*
X1506575Y-1058418D01*
X1559915Y-1058418D01*
X1559915Y-1021181D01*
X1560677Y-1017269D01*
X1562862Y-1013968D01*
X1566164Y-1011783D01*
X1570075Y-1011021D01*
X1629918Y-1011021D01*
X1633829Y-1011783D01*
X1637131Y-1013968D01*
X1639316Y-1017269D01*
X1640078Y-1021181D01*
X1640078Y-1058418D01*
X1693418Y-1058418D01*
X1693418Y-1046429D01*
X1694180Y-1042568D01*
X1696364Y-1039266D01*
X1699666Y-1037031D01*
X1703578Y-1036269D01*
X1707438Y-1037031D01*
X1710740Y-1039266D01*
X1820418Y-1148842D01*
X1826412Y-1153668D01*
X1828088Y-1154785D01*
X1834692Y-1158392D01*
X1837486Y-1160678D01*
X1839366Y-1163777D01*
X1839975Y-1167282D01*
X1839975Y-1172718D01*
X1840788Y-1181100D01*
X1843125Y-1188720D01*
X1848916Y-1199134D01*
X1849475Y-1202537D01*
X1849475Y-1222603D01*
X1850389Y-1233017D01*
X1853742Y-1249934D01*
X1856689Y-1259941D01*
X1863293Y-1275892D01*
X1868068Y-1285189D01*
X1878380Y-1300632D01*
X1885137Y-1308608D01*
X1909064Y-1332484D01*
X1914855Y-1337157D01*
X1919478Y-1339850D01*
X1922119Y-1342136D01*
X1923897Y-1345184D01*
X1924507Y-1348587D01*
X1924507Y-1361998D01*
X1925320Y-1370380D01*
X1926386Y-1373886D01*
X1926793Y-1377645D01*
X1925777Y-1381252D01*
X1923542Y-1384300D01*
X1920341Y-1386281D01*
X1916633Y-1386992D01*
X1870456Y-1386992D01*
X1861210Y-1387805D01*
X1852726Y-1390091D01*
X1844751Y-1393799D01*
X1837537Y-1398828D01*
X1831339Y-1405026D01*
X1826310Y-1412240D01*
X1822551Y-1420215D01*
X1820773Y-1426972D01*
X1818741Y-1430883D01*
X1815236Y-1433525D01*
X1810969Y-1434490D01*
G37*

%LPC*%
G36*
X1533042Y-1196390D02*
G01*
X1559915Y-1196390D01*
X1559915Y-1141577D01*
X1506575Y-1141577D01*
X1506575Y-1169924D01*
X1507286Y-1176274D01*
X1509217Y-1181709D01*
X1512316Y-1186637D01*
X1516380Y-1190701D01*
X1521307Y-1193800D01*
X1526743Y-1195679D01*
G37*
G36*
X1640078Y-1196390D02*
G01*
X1666951Y-1196390D01*
X1673250Y-1195679D01*
X1678686Y-1193800D01*
X1683613Y-1190701D01*
X1687677Y-1186637D01*
X1690776Y-1181709D01*
X1692706Y-1176274D01*
X1693418Y-1169924D01*
X1693418Y-1141577D01*
X1640078Y-1141577D01*
G37*

%LPD*%
G36*
X200355Y-1974088D02*
G01*
X182422Y-1973122D01*
X165557Y-1970582D01*
X148996Y-1966417D01*
X132943Y-1960575D01*
X117500Y-1953260D01*
X102870Y-1944420D01*
X89204Y-1934210D01*
X76606Y-1922729D01*
X65125Y-1910029D01*
X55016Y-1896262D01*
X46278Y-1881581D01*
X39014Y-1866138D01*
X33324Y-1850034D01*
X29209Y-1833473D01*
X26771Y-1816557D01*
X25908Y-1799132D01*
X25908Y-1366062D01*
X26670Y-1362202D01*
X28854Y-1358900D01*
X32105Y-1356715D01*
X35966Y-1355902D01*
X41249Y-1355852D01*
X45720Y-1355191D01*
X51409Y-1353007D01*
X56540Y-1349502D01*
X62839Y-1342847D01*
X65633Y-1341424D01*
X68783Y-1340916D01*
X173634Y-1340916D01*
X173634Y-1291386D01*
X76047Y-1291386D01*
X72186Y-1290574D01*
X68884Y-1288389D01*
X66700Y-1285087D01*
X65887Y-1281226D01*
X65887Y-1228801D01*
X66700Y-1224940D01*
X68884Y-1221638D01*
X72186Y-1219454D01*
X76047Y-1218641D01*
X173634Y-1218641D01*
X173634Y-1169111D01*
X76047Y-1169111D01*
X72186Y-1168349D01*
X68884Y-1166114D01*
X66700Y-1162812D01*
X65887Y-1158951D01*
X65887Y-1110691D01*
X66700Y-1106779D01*
X68884Y-1103477D01*
X72186Y-1101293D01*
X76047Y-1100531D01*
X539496Y-1100531D01*
X547878Y-1099667D01*
X555498Y-1097381D01*
X562457Y-1093622D01*
X568604Y-1088593D01*
X573633Y-1082497D01*
X577392Y-1075486D01*
X579678Y-1067866D01*
X579983Y-1064666D01*
X581050Y-1061110D01*
X583285Y-1058113D01*
X586435Y-1056182D01*
X590092Y-1055522D01*
X767486Y-1055522D01*
X775716Y-1055827D01*
X781659Y-1056741D01*
X788416Y-1059180D01*
X804316Y-1068120D01*
X815746Y-1073912D01*
X823721Y-1077112D01*
X835202Y-1080109D01*
X847039Y-1081430D01*
X858926Y-1080973D01*
X870610Y-1078839D01*
X881887Y-1074978D01*
X892454Y-1069543D01*
X902157Y-1062634D01*
X910691Y-1054354D01*
X917956Y-1044956D01*
X923798Y-1034592D01*
X928014Y-1023467D01*
X930605Y-1011885D01*
X931468Y-999998D01*
X930605Y-988110D01*
X928065Y-976528D01*
X923544Y-964946D01*
X918108Y-954278D01*
X909167Y-938377D01*
X907389Y-934161D01*
X906729Y-931824D01*
X905764Y-924864D01*
X905510Y-917194D01*
X905510Y-897229D01*
X905205Y-891286D01*
X904036Y-879195D01*
X903173Y-873302D01*
X900785Y-861415D01*
X899363Y-855624D01*
X895807Y-844042D01*
X893826Y-838403D01*
X889152Y-827176D01*
X886612Y-821842D01*
X880922Y-811123D01*
X877824Y-806043D01*
X871118Y-795934D01*
X867562Y-791159D01*
X859840Y-781761D01*
X855878Y-777341D01*
X505815Y-427329D01*
X503580Y-423926D01*
X502869Y-419912D01*
X503732Y-415950D01*
X505561Y-411937D01*
X507492Y-406806D01*
X511911Y-392785D01*
X513232Y-387400D01*
X515874Y-372922D01*
X516534Y-367436D01*
X517398Y-352704D01*
X517398Y-347268D01*
X516534Y-332587D01*
X515874Y-327050D01*
X513232Y-312572D01*
X511911Y-307238D01*
X507492Y-293166D01*
X505561Y-288036D01*
X499516Y-274624D01*
X496925Y-269748D01*
X489356Y-257149D01*
X486257Y-252679D01*
X477164Y-241096D01*
X473506Y-236931D01*
X463092Y-226517D01*
X458927Y-222808D01*
X447293Y-213766D01*
X442823Y-210667D01*
X430276Y-203047D01*
X425399Y-200507D01*
X411937Y-194462D01*
X406806Y-192481D01*
X392785Y-188112D01*
X387400Y-186791D01*
X372922Y-184150D01*
X367436Y-183438D01*
X352704Y-182575D01*
X347268Y-182575D01*
X332587Y-183438D01*
X327050Y-184150D01*
X312572Y-186791D01*
X307238Y-188112D01*
X293166Y-192481D01*
X288036Y-194462D01*
X274624Y-200507D01*
X269748Y-203047D01*
X257149Y-210667D01*
X252679Y-213766D01*
X241096Y-222808D01*
X236931Y-226517D01*
X226517Y-236931D01*
X222808Y-241096D01*
X213766Y-252679D01*
X210667Y-257149D01*
X203047Y-269748D01*
X200507Y-274624D01*
X194462Y-288036D01*
X192481Y-293166D01*
X188112Y-307238D01*
X186791Y-312572D01*
X184150Y-327050D01*
X183438Y-332587D01*
X182575Y-347268D01*
X182575Y-352704D01*
X183438Y-367436D01*
X184150Y-372922D01*
X186791Y-387400D01*
X188112Y-392785D01*
X192481Y-406806D01*
X194462Y-411937D01*
X200507Y-425399D01*
X203047Y-430276D01*
X210667Y-442823D01*
X213766Y-447293D01*
X222808Y-458927D01*
X226517Y-463092D01*
X236931Y-473506D01*
X241096Y-477164D01*
X252679Y-486257D01*
X257149Y-489356D01*
X269748Y-496925D01*
X274624Y-499516D01*
X288036Y-505561D01*
X293166Y-507492D01*
X307238Y-511911D01*
X312572Y-513232D01*
X327050Y-515874D01*
X332587Y-516534D01*
X347268Y-517398D01*
X352704Y-517398D01*
X367436Y-516534D01*
X372922Y-515874D01*
X387400Y-513232D01*
X392785Y-511911D01*
X406806Y-507492D01*
X411937Y-505561D01*
X415950Y-503732D01*
X419912Y-502869D01*
X423926Y-503580D01*
X427329Y-505815D01*
X775258Y-853744D01*
X780440Y-860094D01*
X784402Y-866089D01*
X787755Y-872439D01*
X790448Y-879094D01*
X792480Y-886002D01*
X793851Y-893064D01*
X794512Y-900176D01*
X794461Y-917498D01*
X794156Y-925677D01*
X793242Y-931671D01*
X791921Y-935634D01*
X789686Y-939342D01*
X786130Y-941832D01*
X781862Y-943254D01*
X774852Y-944219D01*
X767181Y-944473D01*
X590092Y-944473D01*
X586435Y-943813D01*
X583285Y-941882D01*
X581050Y-938885D01*
X579983Y-935329D01*
X579678Y-932129D01*
X577392Y-924509D01*
X573633Y-917498D01*
X568604Y-911402D01*
X562457Y-906373D01*
X555498Y-902614D01*
X547878Y-900328D01*
X539496Y-899515D01*
X76047Y-899515D01*
X72186Y-898702D01*
X68884Y-896518D01*
X66700Y-893216D01*
X65887Y-889355D01*
X65887Y-841095D01*
X66700Y-837184D01*
X68884Y-833882D01*
X72186Y-831697D01*
X76047Y-830935D01*
X173634Y-830935D01*
X173634Y-781354D01*
X76047Y-781354D01*
X72186Y-780592D01*
X68884Y-778357D01*
X66700Y-775106D01*
X65887Y-771194D01*
X65887Y-718820D01*
X66700Y-714908D01*
X68884Y-711657D01*
X72186Y-709422D01*
X76047Y-708660D01*
X173634Y-708660D01*
X173634Y-659079D01*
X68681Y-659079D01*
X65481Y-658571D01*
X62585Y-657047D01*
X59486Y-653440D01*
X56438Y-650392D01*
X52832Y-647750D01*
X47294Y-645261D01*
X41097Y-644144D01*
X35966Y-644093D01*
X32105Y-643280D01*
X28854Y-641096D01*
X26670Y-637794D01*
X25908Y-633933D01*
X25908Y-200863D01*
X26873Y-182422D01*
X29413Y-165557D01*
X33578Y-148996D01*
X39420Y-132943D01*
X46736Y-117500D01*
X55575Y-102870D01*
X65786Y-89204D01*
X77266Y-76606D01*
X89966Y-65125D01*
X103733Y-55016D01*
X118414Y-46278D01*
X133858Y-39014D01*
X149961Y-33324D01*
X166522Y-29209D01*
X183438Y-26771D01*
X200863Y-25908D01*
X3799128Y-25908D01*
X3817569Y-26873D01*
X3834434Y-29413D01*
X3850995Y-33578D01*
X3867048Y-39420D01*
X3882491Y-46736D01*
X3897122Y-55575D01*
X3910787Y-65786D01*
X3923385Y-77266D01*
X3934866Y-89966D01*
X3944975Y-103733D01*
X3953713Y-118414D01*
X3960977Y-133858D01*
X3966667Y-149961D01*
X3970782Y-166522D01*
X3973220Y-183438D01*
X3974084Y-200863D01*
X3974084Y-633933D01*
X3973322Y-637794D01*
X3971137Y-641096D01*
X3967886Y-643280D01*
X3964025Y-644093D01*
X3958742Y-644144D01*
X3954272Y-644804D01*
X3948582Y-646988D01*
X3943451Y-650494D01*
X3937152Y-657148D01*
X3934358Y-658571D01*
X3931208Y-659079D01*
X3826357Y-659079D01*
X3826357Y-708609D01*
X3923944Y-708609D01*
X3927805Y-709422D01*
X3931107Y-711606D01*
X3933291Y-714908D01*
X3934104Y-718769D01*
X3934104Y-771194D01*
X3933291Y-775055D01*
X3931107Y-778357D01*
X3927805Y-780542D01*
X3923944Y-781354D01*
X3826357Y-781354D01*
X3826357Y-830884D01*
X3923944Y-830884D01*
X3927805Y-831646D01*
X3931107Y-833882D01*
X3933291Y-837184D01*
X3934104Y-841044D01*
X3934104Y-879348D01*
X3933291Y-883208D01*
X3931107Y-886510D01*
X3927805Y-888695D01*
X3923944Y-889508D01*
X3460445Y-889508D01*
X3451250Y-890320D01*
X3442715Y-892556D01*
X3434740Y-896315D01*
X3427577Y-901344D01*
X3421329Y-907542D01*
X3416300Y-914755D01*
X3412591Y-922731D01*
X3411423Y-926947D01*
X3409391Y-930859D01*
X3405936Y-933551D01*
X3401618Y-934466D01*
X3375660Y-934466D01*
X3371748Y-933703D01*
X3368497Y-931519D01*
X3366262Y-928217D01*
X3365500Y-924306D01*
X3365500Y-750671D01*
X3366211Y-743508D01*
X3367481Y-737463D01*
X3369310Y-731520D01*
X3371748Y-725830D01*
X3374694Y-720394D01*
X3378200Y-715264D01*
X3382162Y-710488D01*
X3416960Y-675640D01*
X3420465Y-673354D01*
X3424529Y-672693D01*
X3428593Y-673658D01*
X3431844Y-676198D01*
X3433876Y-679856D01*
X3434283Y-683971D01*
X3434079Y-685546D01*
X3434079Y-708609D01*
X3573627Y-708609D01*
X3573627Y-659079D01*
X3460546Y-659079D01*
X3458972Y-659231D01*
X3454857Y-658876D01*
X3451199Y-656844D01*
X3448710Y-653542D01*
X3447694Y-649528D01*
X3448405Y-645464D01*
X3450640Y-641959D01*
X3574948Y-517651D01*
X3578148Y-515518D01*
X3581958Y-514705D01*
X3585768Y-515366D01*
X3590188Y-517042D01*
X3604209Y-521411D01*
X3610762Y-523036D01*
X3625240Y-525729D01*
X3631996Y-526542D01*
X3646678Y-527405D01*
X3653282Y-527405D01*
X3668014Y-526542D01*
X3674719Y-525729D01*
X3689197Y-523036D01*
X3695750Y-521411D01*
X3709822Y-517042D01*
X3716020Y-514654D01*
X3729482Y-508609D01*
X3735425Y-505510D01*
X3748024Y-497890D01*
X3753459Y-494131D01*
X3765092Y-485038D01*
X3770172Y-480568D01*
X3780536Y-470154D01*
X3785057Y-465074D01*
X3794099Y-453491D01*
X3797909Y-448005D01*
X3805478Y-435406D01*
X3808628Y-429463D01*
X3814673Y-416051D01*
X3817061Y-409803D01*
X3821429Y-395782D01*
X3823055Y-389229D01*
X3825697Y-374751D01*
X3826510Y-367995D01*
X3827373Y-353314D01*
X3827373Y-346710D01*
X3826510Y-331978D01*
X3825697Y-325272D01*
X3823055Y-310794D01*
X3821429Y-304241D01*
X3817061Y-290169D01*
X3814673Y-283972D01*
X3808628Y-270510D01*
X3805478Y-264566D01*
X3797909Y-251967D01*
X3794099Y-246532D01*
X3785057Y-234899D01*
X3780536Y-229819D01*
X3770172Y-219456D01*
X3765092Y-214934D01*
X3753459Y-205892D01*
X3748024Y-202082D01*
X3735425Y-194513D01*
X3729482Y-191363D01*
X3716020Y-185318D01*
X3709822Y-182930D01*
X3695750Y-178562D01*
X3689197Y-176936D01*
X3674719Y-174294D01*
X3668014Y-173482D01*
X3653282Y-172618D01*
X3646678Y-172618D01*
X3631996Y-173482D01*
X3625240Y-174294D01*
X3610762Y-176936D01*
X3604209Y-178562D01*
X3590188Y-182930D01*
X3583940Y-185318D01*
X3570528Y-191363D01*
X3564585Y-194513D01*
X3551986Y-202082D01*
X3546500Y-205892D01*
X3534918Y-214934D01*
X3529837Y-219456D01*
X3519424Y-229819D01*
X3514953Y-234899D01*
X3505860Y-246532D01*
X3502101Y-251967D01*
X3494481Y-264566D01*
X3491382Y-270510D01*
X3485337Y-283972D01*
X3482949Y-290169D01*
X3478580Y-304241D01*
X3476955Y-310794D01*
X3474262Y-325272D01*
X3473450Y-331978D01*
X3472586Y-346710D01*
X3472586Y-353314D01*
X3473450Y-367995D01*
X3474262Y-374751D01*
X3476955Y-389229D01*
X3478580Y-395782D01*
X3482949Y-409803D01*
X3484626Y-414223D01*
X3485286Y-418033D01*
X3484473Y-421843D01*
X3482340Y-425043D01*
X3287064Y-620268D01*
X3282391Y-625398D01*
X3274720Y-634796D01*
X3270605Y-640384D01*
X3263849Y-650443D01*
X3260293Y-656386D01*
X3254552Y-667105D01*
X3251606Y-673354D01*
X3246932Y-684580D01*
X3244596Y-691134D01*
X3241090Y-702767D01*
X3239414Y-709472D01*
X3237026Y-721360D01*
X3236010Y-728218D01*
X3234842Y-740308D01*
X3234486Y-747217D01*
X3234486Y-966063D01*
X3233826Y-970432D01*
X3232200Y-974242D01*
X3229508Y-977849D01*
X3189528Y-1017828D01*
X3182467Y-1023366D01*
X3178911Y-1025144D01*
X3174949Y-1025398D01*
X3171190Y-1024128D01*
X3168192Y-1021486D01*
X3166465Y-1017930D01*
X3164941Y-1012240D01*
X3161182Y-1004265D01*
X3156153Y-997051D01*
X3149955Y-990853D01*
X3146298Y-988314D01*
X3143351Y-985113D01*
X3142030Y-980948D01*
X3143402Y-969924D01*
X3143402Y-941578D01*
X3090113Y-941578D01*
X3090113Y-968857D01*
X3089300Y-972718D01*
X3087116Y-976020D01*
X3083814Y-978204D01*
X3079953Y-979017D01*
X3020060Y-979017D01*
X3016148Y-978204D01*
X3012846Y-976020D01*
X3010662Y-972718D01*
X3009900Y-968857D01*
X3009900Y-941578D01*
X2956610Y-941578D01*
X2956610Y-969924D01*
X2957931Y-980948D01*
X2956610Y-985113D01*
X2953664Y-988314D01*
X2950057Y-990853D01*
X2945688Y-995222D01*
X2942386Y-997407D01*
X2938475Y-998169D01*
X2934614Y-997407D01*
X2931312Y-995222D01*
X2927451Y-991311D01*
X2923540Y-988618D01*
X2920593Y-985418D01*
X2919272Y-981252D01*
X2920187Y-975766D01*
X2920898Y-969416D01*
X2920898Y-956360D01*
X2878836Y-956360D01*
X2878836Y-969314D01*
X2878074Y-973226D01*
X2875889Y-976528D01*
X2872587Y-978712D01*
X2868676Y-979474D01*
X2831287Y-979474D01*
X2827426Y-978712D01*
X2824124Y-976528D01*
X2821940Y-973226D01*
X2821127Y-969314D01*
X2821127Y-956360D01*
X2779064Y-956360D01*
X2779064Y-969416D01*
X2779776Y-975766D01*
X2780741Y-981252D01*
X2779369Y-985418D01*
X2776423Y-988618D01*
X2772562Y-991311D01*
X2766314Y-997559D01*
X2761284Y-1004773D01*
X2757576Y-1012748D01*
X2755290Y-1021232D01*
X2754477Y-1030427D01*
X2754477Y-1109522D01*
X2755290Y-1118768D01*
X2757576Y-1127252D01*
X2761284Y-1135227D01*
X2766314Y-1142441D01*
X2772562Y-1148638D01*
X2778201Y-1152601D01*
X2781096Y-1155700D01*
X2782468Y-1159662D01*
X2782112Y-1163878D01*
X2780690Y-1168450D01*
X2778252Y-1174191D01*
X2775305Y-1179626D01*
X2771800Y-1184757D01*
X2767838Y-1189532D01*
X2539492Y-1417828D01*
X2533954Y-1422400D01*
X2528773Y-1425803D01*
X2523286Y-1428699D01*
X2517546Y-1431036D01*
X2511602Y-1432763D01*
X2505456Y-1433931D01*
X2499309Y-1434490D01*
X2189022Y-1434490D01*
X2184755Y-1433525D01*
X2181250Y-1430883D01*
X2179218Y-1426972D01*
X2177440Y-1420215D01*
X2173681Y-1412240D01*
X2168652Y-1405026D01*
X2162454Y-1398828D01*
X2155240Y-1393799D01*
X2147265Y-1390091D01*
X2138781Y-1387805D01*
X2129536Y-1386992D01*
X2083358Y-1386992D01*
X2079650Y-1386281D01*
X2076450Y-1384300D01*
X2074214Y-1381252D01*
X2073198Y-1377645D01*
X2073605Y-1373886D01*
X2074672Y-1370380D01*
X2075484Y-1361998D01*
X2075484Y-1237996D01*
X2074672Y-1229614D01*
X2072386Y-1222044D01*
X2068118Y-1214069D01*
X2066950Y-1210259D01*
X2067407Y-1206246D01*
X2069338Y-1202690D01*
X2072487Y-1200200D01*
X2076399Y-1199134D01*
X2076399Y-1150670D01*
X2060549Y-1150670D01*
X2056688Y-1149858D01*
X2053386Y-1147673D01*
X2051202Y-1144371D01*
X2050389Y-1140510D01*
X2050389Y-1090269D01*
X2051202Y-1086358D01*
X2053386Y-1083056D01*
X2056688Y-1080871D01*
X2060549Y-1080109D01*
X2076399Y-1080109D01*
X2076399Y-1031595D01*
X2071065Y-1031595D01*
X2064766Y-1032306D01*
X2059279Y-1034237D01*
X2053437Y-1037945D01*
X2050846Y-1039063D01*
X2046986Y-1039469D01*
X2044192Y-1039063D01*
X2041601Y-1037945D01*
X2035708Y-1034237D01*
X2030222Y-1032306D01*
X2023922Y-1031595D01*
X1976069Y-1031595D01*
X1965502Y-1032916D01*
X1961540Y-1031798D01*
X1951989Y-1023874D01*
X1944979Y-1020165D01*
X1937410Y-1017828D01*
X1928977Y-1017016D01*
X1880971Y-1017016D01*
X1872589Y-1017828D01*
X1865020Y-1020165D01*
X1861007Y-1022299D01*
X1856841Y-1023467D01*
X1852625Y-1022858D01*
X1849018Y-1020521D01*
X1710994Y-882497D01*
X1708759Y-879195D01*
X1707997Y-875284D01*
X1707997Y-829970D01*
X1707184Y-821588D01*
X1704898Y-814019D01*
X1701139Y-807008D01*
X1696110Y-800862D01*
X1689963Y-795832D01*
X1683004Y-792124D01*
X1675384Y-789838D01*
X1667002Y-788974D01*
X1532991Y-788974D01*
X1524609Y-789838D01*
X1516989Y-792124D01*
X1510030Y-795832D01*
X1503883Y-800862D01*
X1498854Y-807008D01*
X1495094Y-814019D01*
X1493926Y-818032D01*
X1491996Y-821588D01*
X1488795Y-824077D01*
X1484934Y-825195D01*
X1480921Y-824687D01*
X1470609Y-821182D01*
X1458925Y-818997D01*
X1447038Y-818591D01*
X1435201Y-819861D01*
X1423619Y-822909D01*
X1416151Y-825855D01*
X1406550Y-830681D01*
X1402232Y-831799D01*
X1397863Y-830884D01*
X1394256Y-828243D01*
X1388110Y-823163D01*
X1381150Y-819454D01*
X1373530Y-817118D01*
X1365148Y-816305D01*
X1285494Y-816305D01*
X1277112Y-817118D01*
X1269542Y-819454D01*
X1262634Y-823112D01*
X1258468Y-824331D01*
X1254252Y-823671D01*
X1250645Y-821334D01*
X1247444Y-818184D01*
X1244498Y-816102D01*
X1242161Y-813866D01*
X1240688Y-810971D01*
X1240180Y-807770D01*
X1240180Y-776020D01*
X1240891Y-768858D01*
X1242161Y-762762D01*
X1243990Y-756869D01*
X1246378Y-751128D01*
X1249375Y-745693D01*
X1252880Y-740562D01*
X1256842Y-735787D01*
X1310487Y-682142D01*
X1316024Y-677621D01*
X1321206Y-674166D01*
X1326743Y-671322D01*
X1332484Y-668985D01*
X1338427Y-667207D01*
X1344523Y-666089D01*
X1350670Y-665530D01*
X1433322Y-665530D01*
X1436522Y-666038D01*
X1439367Y-667512D01*
X1441602Y-669848D01*
X1445666Y-675640D01*
X1451914Y-681837D01*
X1459128Y-686917D01*
X1467104Y-690626D01*
X1475587Y-692912D01*
X1484782Y-693724D01*
X1564538Y-693724D01*
X1573784Y-692912D01*
X1582267Y-690626D01*
X1590243Y-686917D01*
X1597456Y-681837D01*
X1603654Y-675640D01*
X1608734Y-668426D01*
X1611477Y-665734D01*
X1615033Y-664260D01*
X1618843Y-664260D01*
X1623771Y-666496D01*
X1629257Y-668375D01*
X1635556Y-669086D01*
X1715058Y-669086D01*
X1721408Y-668375D01*
X1726844Y-666496D01*
X1731772Y-663397D01*
X1735836Y-659333D01*
X1738934Y-654456D01*
X1741220Y-647750D01*
X1743354Y-644194D01*
X1746757Y-641756D01*
X1750822Y-640892D01*
X1805279Y-640892D01*
X1808632Y-641502D01*
X1811578Y-643128D01*
X1813864Y-645668D01*
X1817319Y-651103D01*
X1821383Y-655218D01*
X1826310Y-658266D01*
X1831746Y-660196D01*
X1838096Y-660908D01*
X1961591Y-660908D01*
X1965807Y-661822D01*
X1969262Y-664362D01*
X1971344Y-668121D01*
X1971700Y-672388D01*
X1970227Y-676452D01*
X1967230Y-679500D01*
X1957070Y-686308D01*
X1950110Y-691997D01*
X1900580Y-741578D01*
X1894839Y-748538D01*
X1883562Y-765403D01*
X1879346Y-773379D01*
X1871573Y-792124D01*
X1869287Y-799642D01*
X1867611Y-802894D01*
X1864360Y-805688D01*
X1860296Y-809752D01*
X1857197Y-814679D01*
X1855317Y-820115D01*
X1854606Y-826465D01*
X1854606Y-942797D01*
X1855317Y-949147D01*
X1857197Y-954582D01*
X1860296Y-959510D01*
X1864360Y-963574D01*
X1869287Y-966673D01*
X1874723Y-968552D01*
X1881073Y-969264D01*
X1928926Y-969264D01*
X1935225Y-968552D01*
X1940712Y-966673D01*
X1945589Y-963574D01*
X1949704Y-959510D01*
X1952802Y-954582D01*
X1954682Y-949147D01*
X1955393Y-942797D01*
X1955393Y-826465D01*
X1954682Y-820115D01*
X1953158Y-815797D01*
X1952599Y-812749D01*
X1953006Y-809650D01*
X1954326Y-806805D01*
X1960372Y-797763D01*
X1961642Y-796188D01*
X2004771Y-753059D01*
X2009393Y-749757D01*
X2012950Y-748284D01*
X2016810Y-748233D01*
X2020417Y-749604D01*
X2026259Y-753262D01*
X2031746Y-755192D01*
X2038045Y-755904D01*
X2161895Y-755904D01*
X2168245Y-755192D01*
X2173681Y-753262D01*
X2178608Y-750214D01*
X2182672Y-746099D01*
X2186127Y-740664D01*
X2188413Y-738124D01*
X2191359Y-736498D01*
X2194712Y-735888D01*
X2245512Y-735888D01*
X2255062Y-736854D01*
X2263546Y-738581D01*
X2271776Y-741121D01*
X2279700Y-744474D01*
X2287270Y-748588D01*
X2294432Y-753414D01*
X2301036Y-758901D01*
X2329891Y-787755D01*
X2332126Y-791159D01*
X2332888Y-795172D01*
X2331974Y-799134D01*
X2329586Y-802436D01*
X2326081Y-804519D01*
X2321306Y-806196D01*
X2316378Y-809294D01*
X2312314Y-813358D01*
X2309215Y-818286D01*
X2307285Y-823721D01*
X2306574Y-830071D01*
X2306574Y-969924D01*
X2307285Y-976223D01*
X2309215Y-981710D01*
X2312314Y-986586D01*
X2316378Y-990701D01*
X2320442Y-994206D01*
X2322017Y-997966D01*
X2322017Y-1002030D01*
X2320442Y-1005789D01*
X2316378Y-1009294D01*
X2312314Y-1013409D01*
X2309215Y-1018286D01*
X2307285Y-1023772D01*
X2306574Y-1030071D01*
X2306574Y-1058418D01*
X2359914Y-1058418D01*
X2359914Y-1006551D01*
X2360676Y-1002690D01*
X2362860Y-999388D01*
X2366162Y-997153D01*
X2370074Y-996391D01*
X2429916Y-996391D01*
X2433828Y-997153D01*
X2437130Y-999388D01*
X2439314Y-1002690D01*
X2440076Y-1006551D01*
X2440076Y-1058418D01*
X2493416Y-1058418D01*
X2493416Y-1030071D01*
X2492705Y-1023772D01*
X2490774Y-1018286D01*
X2487676Y-1013409D01*
X2483612Y-1009294D01*
X2479548Y-1005789D01*
X2477973Y-1002030D01*
X2477973Y-997966D01*
X2479548Y-994206D01*
X2483612Y-990701D01*
X2487676Y-986586D01*
X2490774Y-981710D01*
X2492705Y-976223D01*
X2493416Y-969924D01*
X2493416Y-830071D01*
X2492705Y-823721D01*
X2490774Y-818286D01*
X2487676Y-813358D01*
X2483612Y-809294D01*
X2478684Y-806196D01*
X2473248Y-804316D01*
X2466949Y-803605D01*
X2441803Y-803605D01*
X2437892Y-802792D01*
X2434590Y-800608D01*
X2432405Y-797306D01*
X2424226Y-777646D01*
X2420010Y-769670D01*
X2407361Y-750722D01*
X2401620Y-743762D01*
X2357323Y-699465D01*
X2353970Y-696417D01*
X2342845Y-687425D01*
X2340051Y-684276D01*
X2338781Y-680262D01*
X2339238Y-676097D01*
X2341372Y-672439D01*
X2344775Y-670001D01*
X2348890Y-669086D01*
X2364435Y-669086D01*
X2370734Y-668375D01*
X2376220Y-666496D01*
X2381097Y-663397D01*
X2385212Y-659333D01*
X2388260Y-654405D01*
X2390394Y-648360D01*
X2392527Y-644804D01*
X2395931Y-642366D01*
X2399995Y-641553D01*
X2404059Y-642366D01*
X2407462Y-644804D01*
X2409596Y-648360D01*
X2411730Y-654405D01*
X2414778Y-659333D01*
X2418892Y-663397D01*
X2423769Y-666496D01*
X2429256Y-668375D01*
X2435555Y-669086D01*
X2448814Y-669086D01*
X2448814Y-627938D01*
X2401062Y-627938D01*
X2397150Y-627176D01*
X2393899Y-624992D01*
X2391664Y-621690D01*
X2390902Y-617778D01*
X2390902Y-582218D01*
X2391664Y-578307D01*
X2393899Y-575005D01*
X2397150Y-572820D01*
X2401062Y-572058D01*
X2448814Y-572058D01*
X2448814Y-530910D01*
X2435555Y-530910D01*
X2429256Y-531622D01*
X2423769Y-533501D01*
X2418892Y-536600D01*
X2414778Y-540664D01*
X2411730Y-545592D01*
X2409596Y-551637D01*
X2407462Y-555193D01*
X2404059Y-557631D01*
X2399995Y-558444D01*
X2395931Y-557631D01*
X2392527Y-555193D01*
X2390394Y-551637D01*
X2388260Y-545592D01*
X2385212Y-540664D01*
X2381097Y-536600D01*
X2376220Y-533501D01*
X2370734Y-531622D01*
X2364435Y-530910D01*
X2362352Y-530910D01*
X2358796Y-530250D01*
X2355646Y-528370D01*
X2353411Y-525526D01*
X2349449Y-518109D01*
X2344064Y-511505D01*
X2326081Y-493572D01*
X2319121Y-487883D01*
X2307386Y-480009D01*
X2299411Y-475742D01*
X2286355Y-470357D01*
X2277770Y-467715D01*
X2263902Y-464972D01*
X2254910Y-464108D01*
X2194712Y-464108D01*
X2191359Y-463550D01*
X2188413Y-461873D01*
X2186127Y-459333D01*
X2182672Y-453898D01*
X2178608Y-449783D01*
X2173681Y-446735D01*
X2168245Y-444804D01*
X2161895Y-444093D01*
X2038045Y-444093D01*
X2031746Y-444804D01*
X2026259Y-446735D01*
X2021382Y-449783D01*
X2017268Y-453898D01*
X2014220Y-458774D01*
X2012289Y-464261D01*
X2011578Y-470560D01*
X2011578Y-539445D01*
X2012289Y-545744D01*
X2014220Y-551230D01*
X2017268Y-556107D01*
X2021382Y-560222D01*
X2026259Y-563270D01*
X2031746Y-565200D01*
X2038045Y-565912D01*
X2161895Y-565912D01*
X2168245Y-565200D01*
X2173681Y-563270D01*
X2178608Y-560222D01*
X2182672Y-556107D01*
X2186127Y-550672D01*
X2188362Y-548132D01*
X2191359Y-546506D01*
X2194712Y-545896D01*
X2248357Y-545896D01*
X2252522Y-546811D01*
X2255926Y-549300D01*
X2258060Y-553008D01*
X2258415Y-557377D01*
X2258415Y-643178D01*
X2257602Y-647344D01*
X2255469Y-650849D01*
X2252065Y-653237D01*
X2248001Y-654100D01*
X2194712Y-654100D01*
X2191359Y-653542D01*
X2188362Y-651865D01*
X2186127Y-649325D01*
X2182672Y-643890D01*
X2178608Y-639775D01*
X2173681Y-636727D01*
X2168245Y-634796D01*
X2161895Y-634085D01*
X2038045Y-634085D01*
X2031746Y-634796D01*
X2026259Y-636727D01*
X2021382Y-639775D01*
X2017268Y-643890D01*
X2014220Y-648766D01*
X2012137Y-654659D01*
X2010664Y-657453D01*
X2008378Y-659638D01*
X2005533Y-661009D01*
X2002942Y-661822D01*
X1995982Y-664667D01*
X1991766Y-665429D01*
X1987651Y-664464D01*
X1984298Y-661873D01*
X1982317Y-658114D01*
X1982012Y-653897D01*
X1983486Y-649884D01*
X1985772Y-646226D01*
X1987702Y-640740D01*
X1988413Y-634441D01*
X1988413Y-565556D01*
X1987702Y-559257D01*
X1985772Y-553770D01*
X1982724Y-548894D01*
X1978609Y-544779D01*
X1973732Y-541731D01*
X1968246Y-539800D01*
X1961946Y-539089D01*
X1838096Y-539089D01*
X1831746Y-539800D01*
X1826310Y-541731D01*
X1821383Y-544779D01*
X1817319Y-548894D01*
X1813864Y-554329D01*
X1811578Y-556869D01*
X1808632Y-558546D01*
X1805279Y-559104D01*
X1750822Y-559104D01*
X1746757Y-558241D01*
X1743354Y-555802D01*
X1741220Y-552246D01*
X1738934Y-545592D01*
X1735836Y-540664D01*
X1731772Y-536600D01*
X1726844Y-533501D01*
X1721408Y-531622D01*
X1715058Y-530910D01*
X1635556Y-530910D01*
X1629257Y-531622D01*
X1623771Y-533501D01*
X1618843Y-535736D01*
X1615033Y-535736D01*
X1611477Y-534263D01*
X1608734Y-531571D01*
X1603654Y-524357D01*
X1597456Y-518159D01*
X1590243Y-513080D01*
X1582267Y-509371D01*
X1573784Y-507085D01*
X1564538Y-506272D01*
X1484782Y-506272D01*
X1475587Y-507085D01*
X1467104Y-509371D01*
X1459128Y-513080D01*
X1451914Y-518159D01*
X1445666Y-524357D01*
X1441602Y-530148D01*
X1439367Y-532485D01*
X1436522Y-533958D01*
X1433322Y-534466D01*
X1347216Y-534466D01*
X1340307Y-534822D01*
X1328216Y-536041D01*
X1321358Y-537057D01*
X1309471Y-539394D01*
X1302766Y-541070D01*
X1291132Y-544626D01*
X1284579Y-546963D01*
X1273352Y-551586D01*
X1267104Y-554532D01*
X1256385Y-560273D01*
X1250442Y-563829D01*
X1240383Y-570585D01*
X1234795Y-574700D01*
X1225397Y-582422D01*
X1220266Y-587044D01*
X1161745Y-645617D01*
X1157071Y-650748D01*
X1149400Y-660146D01*
X1145235Y-665683D01*
X1138529Y-675792D01*
X1134922Y-681736D01*
X1129233Y-692454D01*
X1126286Y-698703D01*
X1121613Y-709930D01*
X1119276Y-716483D01*
X1115771Y-728065D01*
X1114094Y-734771D01*
X1111707Y-746709D01*
X1110691Y-753567D01*
X1109522Y-765606D01*
X1109167Y-772566D01*
X1109167Y-807821D01*
X1108659Y-810971D01*
X1107135Y-813866D01*
X1104849Y-816102D01*
X1101902Y-818184D01*
X1095705Y-824382D01*
X1090625Y-831596D01*
X1086916Y-839571D01*
X1084630Y-848055D01*
X1083868Y-857250D01*
X1083868Y-942797D01*
X1084630Y-951992D01*
X1086916Y-960475D01*
X1090625Y-968451D01*
X1095705Y-975664D01*
X1101902Y-981862D01*
X1104849Y-983945D01*
X1107135Y-986180D01*
X1108659Y-989076D01*
X1109167Y-992225D01*
X1109167Y-1007821D01*
X1108659Y-1010970D01*
X1107135Y-1013866D01*
X1104849Y-1016101D01*
X1101902Y-1018184D01*
X1095705Y-1024382D01*
X1090625Y-1031595D01*
X1086916Y-1039571D01*
X1084630Y-1048054D01*
X1083868Y-1057249D01*
X1083868Y-1142796D01*
X1084630Y-1151991D01*
X1086916Y-1160475D01*
X1090625Y-1168450D01*
X1095705Y-1175664D01*
X1101902Y-1181862D01*
X1104849Y-1183944D01*
X1107135Y-1186180D01*
X1108659Y-1189075D01*
X1109167Y-1192225D01*
X1109167Y-1227429D01*
X1109522Y-1234389D01*
X1110691Y-1246428D01*
X1111707Y-1253286D01*
X1114094Y-1265224D01*
X1115771Y-1271930D01*
X1119276Y-1283512D01*
X1121613Y-1290066D01*
X1126286Y-1301292D01*
X1129233Y-1307541D01*
X1134922Y-1318260D01*
X1138529Y-1324203D01*
X1145235Y-1334312D01*
X1149400Y-1339850D01*
X1157071Y-1349248D01*
X1161745Y-1354378D01*
X1320292Y-1512925D01*
X1325422Y-1517599D01*
X1334820Y-1525270D01*
X1340358Y-1529384D01*
X1350467Y-1536141D01*
X1356410Y-1539697D01*
X1367129Y-1545437D01*
X1373378Y-1548384D01*
X1384604Y-1553057D01*
X1391107Y-1555394D01*
X1402740Y-1558899D01*
X1409446Y-1560576D01*
X1421384Y-1562963D01*
X1428191Y-1563979D01*
X1440281Y-1565148D01*
X1447241Y-1565503D01*
X1810969Y-1565503D01*
X1815236Y-1566468D01*
X1818741Y-1569110D01*
X1820773Y-1573022D01*
X1822551Y-1579778D01*
X1826310Y-1587703D01*
X1831339Y-1594916D01*
X1837537Y-1601165D01*
X1844751Y-1606194D01*
X1852726Y-1609902D01*
X1861210Y-1612188D01*
X1870456Y-1613001D01*
X1939543Y-1613001D01*
X1948738Y-1612188D01*
X1957273Y-1609902D01*
X1965248Y-1606194D01*
X1972411Y-1601165D01*
X1978660Y-1594916D01*
X1983689Y-1587703D01*
X1987397Y-1579778D01*
X1989683Y-1571244D01*
X1989886Y-1569212D01*
X1991156Y-1565148D01*
X1993950Y-1561947D01*
X1997862Y-1560169D01*
X2002129Y-1560169D01*
X2006041Y-1561947D01*
X2008835Y-1565148D01*
X2010105Y-1569212D01*
X2010308Y-1571244D01*
X2012594Y-1579778D01*
X2016302Y-1587703D01*
X2021332Y-1594916D01*
X2027580Y-1601165D01*
X2034743Y-1606194D01*
X2042718Y-1609902D01*
X2051253Y-1612188D01*
X2060448Y-1613001D01*
X2129536Y-1613001D01*
X2138781Y-1612188D01*
X2147265Y-1609902D01*
X2155240Y-1606194D01*
X2162454Y-1601165D01*
X2168652Y-1594916D01*
X2173681Y-1587703D01*
X2177440Y-1579778D01*
X2179218Y-1573022D01*
X2181250Y-1569110D01*
X2184755Y-1566468D01*
X2189022Y-1565503D01*
X2502763Y-1565503D01*
X2509723Y-1565148D01*
X2521762Y-1563979D01*
X2528620Y-1562963D01*
X2540558Y-1560576D01*
X2547264Y-1558899D01*
X2558846Y-1555394D01*
X2565400Y-1553057D01*
X2576626Y-1548384D01*
X2582875Y-1545437D01*
X2593594Y-1539697D01*
X2599537Y-1536141D01*
X2609646Y-1529384D01*
X2615184Y-1525270D01*
X2624582Y-1517599D01*
X2629712Y-1512925D01*
X2862935Y-1279702D01*
X2867558Y-1274572D01*
X2875280Y-1265174D01*
X2879394Y-1259636D01*
X2886151Y-1249527D01*
X2889707Y-1243584D01*
X2895447Y-1232865D01*
X2898394Y-1226616D01*
X2903067Y-1215390D01*
X2905404Y-1208887D01*
X2908909Y-1197254D01*
X2910586Y-1190548D01*
X2912821Y-1179220D01*
X2914650Y-1175105D01*
X2918104Y-1172210D01*
X2922473Y-1171092D01*
X2926892Y-1171905D01*
X2930499Y-1174597D01*
X2932633Y-1178610D01*
X2935071Y-1187754D01*
X2938780Y-1195730D01*
X2943809Y-1202944D01*
X2950057Y-1209141D01*
X2957271Y-1214221D01*
X2965246Y-1217930D01*
X2973730Y-1220216D01*
X2982925Y-1221028D01*
X3117037Y-1221028D01*
X3126282Y-1220216D01*
X3134766Y-1217930D01*
X3142742Y-1214221D01*
X3149955Y-1209141D01*
X3156153Y-1202944D01*
X3161182Y-1195730D01*
X3164941Y-1187754D01*
X3167176Y-1179271D01*
X3167786Y-1172362D01*
X3168700Y-1169060D01*
X3170631Y-1166164D01*
X3173425Y-1164132D01*
X3190544Y-1160576D01*
X3197250Y-1158900D01*
X3208883Y-1155395D01*
X3215386Y-1153058D01*
X3226612Y-1148384D01*
X3232861Y-1145438D01*
X3243580Y-1139698D01*
X3249523Y-1136142D01*
X3259632Y-1129385D01*
X3265170Y-1125270D01*
X3274567Y-1117600D01*
X3279698Y-1112926D01*
X3322320Y-1070305D01*
X3325825Y-1067714D01*
X3329533Y-1066190D01*
X3333902Y-1065530D01*
X3401618Y-1065530D01*
X3405936Y-1066444D01*
X3409391Y-1069136D01*
X3411423Y-1073048D01*
X3412591Y-1077264D01*
X3416300Y-1085240D01*
X3421329Y-1092454D01*
X3427577Y-1098651D01*
X3434740Y-1103680D01*
X3442715Y-1107440D01*
X3451250Y-1109675D01*
X3460445Y-1110488D01*
X3923944Y-1110488D01*
X3927805Y-1111300D01*
X3931107Y-1113485D01*
X3933291Y-1116787D01*
X3934104Y-1120648D01*
X3934104Y-1158900D01*
X3933291Y-1162812D01*
X3931107Y-1166114D01*
X3927805Y-1168298D01*
X3923944Y-1169060D01*
X3826357Y-1169060D01*
X3826357Y-1218641D01*
X3923944Y-1218641D01*
X3927805Y-1219403D01*
X3931107Y-1221638D01*
X3933291Y-1224889D01*
X3934104Y-1228801D01*
X3934104Y-1281176D01*
X3933291Y-1285087D01*
X3931107Y-1288338D01*
X3927805Y-1290574D01*
X3923944Y-1291336D01*
X3826357Y-1291336D01*
X3826357Y-1340916D01*
X3931310Y-1340916D01*
X3934510Y-1341424D01*
X3937406Y-1342948D01*
X3940505Y-1346555D01*
X3943553Y-1349603D01*
X3947160Y-1352245D01*
X3952697Y-1354734D01*
X3958894Y-1355852D01*
X3964025Y-1355902D01*
X3967886Y-1356715D01*
X3971137Y-1358900D01*
X3973322Y-1362202D01*
X3974084Y-1366062D01*
X3974084Y-1799132D01*
X3973118Y-1817573D01*
X3970578Y-1834438D01*
X3966413Y-1850999D01*
X3960571Y-1867052D01*
X3953256Y-1882495D01*
X3944416Y-1897125D01*
X3934206Y-1910791D01*
X3922725Y-1923389D01*
X3910025Y-1934870D01*
X3896258Y-1944979D01*
X3881577Y-1953717D01*
X3866134Y-1960981D01*
X3850030Y-1966671D01*
X3833469Y-1970786D01*
X3816553Y-1973224D01*
X3799128Y-1974088D01*
G37*

%LPC*%
G36*
X280162Y-1785924D02*
G01*
X280162Y-1719834D01*
X214071Y-1719834D01*
X215544Y-1722678D01*
X223164Y-1735277D01*
X225247Y-1738325D01*
X234340Y-1749907D01*
X236829Y-1752752D01*
X247243Y-1763166D01*
X250088Y-1765655D01*
X261670Y-1774748D01*
X264718Y-1776831D01*
X277317Y-1784451D01*
G37*
G36*
X3580129Y-1785924D02*
G01*
X3580129Y-1719834D01*
X3514039Y-1719834D01*
X3515512Y-1722678D01*
X3523132Y-1735277D01*
X3525265Y-1738325D01*
X3534308Y-1749907D01*
X3536797Y-1752752D01*
X3547211Y-1763166D01*
X3550056Y-1765655D01*
X3561638Y-1774748D01*
X3564686Y-1776831D01*
X3577285Y-1784451D01*
G37*
G36*
X419862Y-1785924D02*
G01*
X422706Y-1784451D01*
X435305Y-1776831D01*
X438353Y-1774748D01*
X449935Y-1765655D01*
X452780Y-1763166D01*
X463194Y-1752752D01*
X465683Y-1749907D01*
X474726Y-1738325D01*
X476859Y-1735277D01*
X484479Y-1722678D01*
X485952Y-1719834D01*
X419862Y-1719834D01*
G37*
G36*
X3719829Y-1785924D02*
G01*
X3722674Y-1784451D01*
X3735273Y-1776831D01*
X3738321Y-1774748D01*
X3749903Y-1765655D01*
X3752748Y-1763166D01*
X3763162Y-1752752D01*
X3765651Y-1749907D01*
X3774744Y-1738325D01*
X3776827Y-1735277D01*
X3784447Y-1722678D01*
X3785920Y-1719834D01*
X3719829Y-1719834D01*
G37*
G36*
X3514039Y-1580134D02*
G01*
X3580129Y-1580134D01*
X3580129Y-1514043D01*
X3577285Y-1515516D01*
X3564686Y-1523136D01*
X3561638Y-1525270D01*
X3550056Y-1534312D01*
X3547211Y-1536801D01*
X3536797Y-1547215D01*
X3534308Y-1550060D01*
X3525265Y-1561642D01*
X3523132Y-1564690D01*
X3515512Y-1577289D01*
G37*
G36*
X419862Y-1580134D02*
G01*
X485952Y-1580134D01*
X484479Y-1577289D01*
X476859Y-1564690D01*
X474726Y-1561642D01*
X465683Y-1550060D01*
X463194Y-1547215D01*
X452780Y-1536801D01*
X449935Y-1534312D01*
X438353Y-1525270D01*
X435305Y-1523136D01*
X422706Y-1515516D01*
X419862Y-1514043D01*
G37*
G36*
X214071Y-1580134D02*
G01*
X280162Y-1580134D01*
X280162Y-1514043D01*
X277317Y-1515516D01*
X264718Y-1523136D01*
X261670Y-1525270D01*
X250088Y-1534312D01*
X247243Y-1536801D01*
X236829Y-1547215D01*
X234340Y-1550060D01*
X225247Y-1561642D01*
X223164Y-1564690D01*
X215544Y-1577289D01*
G37*
G36*
X3719829Y-1580134D02*
G01*
X3785920Y-1580134D01*
X3784447Y-1577289D01*
X3776827Y-1564690D01*
X3774744Y-1561642D01*
X3765651Y-1550060D01*
X3763162Y-1547215D01*
X3752748Y-1536801D01*
X3749903Y-1534312D01*
X3738321Y-1525270D01*
X3735273Y-1523136D01*
X3722674Y-1515516D01*
X3719829Y-1514043D01*
G37*
G36*
X426364Y-1340916D02*
G01*
X539445Y-1340916D01*
X545744Y-1340205D01*
X551230Y-1338275D01*
X556107Y-1335227D01*
X560222Y-1331112D01*
X563270Y-1326235D01*
X565200Y-1320749D01*
X565912Y-1314450D01*
X565912Y-1291386D01*
X426364Y-1291386D01*
G37*
G36*
X3460546Y-1340916D02*
G01*
X3573627Y-1340916D01*
X3573627Y-1291336D01*
X3434079Y-1291336D01*
X3434079Y-1314399D01*
X3434791Y-1320749D01*
X3436721Y-1326184D01*
X3439769Y-1331112D01*
X3443884Y-1335176D01*
X3448761Y-1338275D01*
X3454247Y-1340205D01*
G37*
G36*
X426364Y-1218641D02*
G01*
X565912Y-1218641D01*
X565912Y-1195578D01*
X565200Y-1189278D01*
X563270Y-1183792D01*
X560222Y-1178915D01*
X556107Y-1174800D01*
X551230Y-1171752D01*
X545744Y-1169822D01*
X539445Y-1169111D01*
X426364Y-1169111D01*
G37*
G36*
X3434079Y-1218641D02*
G01*
X3573627Y-1218641D01*
X3573627Y-1169060D01*
X3460546Y-1169060D01*
X3454247Y-1169771D01*
X3448761Y-1171702D01*
X3443884Y-1174800D01*
X3439769Y-1178864D01*
X3436721Y-1183792D01*
X3434791Y-1189228D01*
X3434079Y-1195578D01*
G37*
G36*
X2113584Y-1199134D02*
G01*
X2118918Y-1199134D01*
X2125268Y-1198422D01*
X2130704Y-1196492D01*
X2135632Y-1193444D01*
X2139696Y-1189329D01*
X2142794Y-1184452D01*
X2144674Y-1178966D01*
X2145385Y-1172667D01*
X2145385Y-1150670D01*
X2113584Y-1150670D01*
G37*
G36*
X2440076Y-1196390D02*
G01*
X2466949Y-1196390D01*
X2473248Y-1195679D01*
X2478684Y-1193800D01*
X2483612Y-1190701D01*
X2487676Y-1186637D01*
X2490774Y-1181709D01*
X2492705Y-1176274D01*
X2493416Y-1169924D01*
X2493416Y-1141577D01*
X2440076Y-1141577D01*
G37*
G36*
X2333040Y-1196390D02*
G01*
X2359914Y-1196390D01*
X2359914Y-1141577D01*
X2306574Y-1141577D01*
X2306574Y-1169924D01*
X2307285Y-1176274D01*
X2309215Y-1181709D01*
X2312314Y-1186637D01*
X2316378Y-1190701D01*
X2321306Y-1193800D01*
X2326741Y-1195679D01*
G37*
G36*
X2113584Y-1080109D02*
G01*
X2145385Y-1080109D01*
X2145385Y-1058113D01*
X2144674Y-1051763D01*
X2142794Y-1046327D01*
X2139696Y-1041400D01*
X2135632Y-1037336D01*
X2130704Y-1034237D01*
X2125268Y-1032306D01*
X2118918Y-1031595D01*
X2113584Y-1031595D01*
G37*
G36*
X2113584Y-969264D02*
G01*
X2118918Y-969264D01*
X2125268Y-968552D01*
X2130704Y-966673D01*
X2135632Y-963574D01*
X2139696Y-959510D01*
X2142794Y-954582D01*
X2144674Y-949147D01*
X2145385Y-942797D01*
X2145385Y-920343D01*
X2113584Y-920343D01*
G37*
G36*
X2071065Y-969264D02*
G01*
X2076399Y-969264D01*
X2076399Y-920343D01*
X2044598Y-920343D01*
X2044598Y-942797D01*
X2045309Y-949147D01*
X2047189Y-954582D01*
X2050288Y-959510D01*
X2054402Y-963574D01*
X2059279Y-966673D01*
X2064766Y-968552D01*
G37*
G36*
X2878836Y-903681D02*
G01*
X2920898Y-903681D01*
X2920898Y-890574D01*
X2920187Y-884275D01*
X2918256Y-878789D01*
X2915208Y-873912D01*
X2911094Y-869797D01*
X2906217Y-866698D01*
X2900730Y-864819D01*
X2894431Y-864108D01*
X2878836Y-864108D01*
G37*
G36*
X2779064Y-903681D02*
G01*
X2821127Y-903681D01*
X2821127Y-864108D01*
X2805582Y-864108D01*
X2799232Y-864819D01*
X2793796Y-866698D01*
X2788869Y-869797D01*
X2784805Y-873912D01*
X2781706Y-878789D01*
X2779776Y-884275D01*
X2779064Y-890574D01*
G37*
G36*
X3090113Y-858418D02*
G01*
X3143402Y-858418D01*
X3143402Y-830071D01*
X3142691Y-823721D01*
X3140760Y-818286D01*
X3137712Y-813358D01*
X3133598Y-809294D01*
X3128721Y-806196D01*
X3123234Y-804316D01*
X3116935Y-803605D01*
X3090113Y-803605D01*
G37*
G36*
X2956610Y-858418D02*
G01*
X3009900Y-858418D01*
X3009900Y-803605D01*
X2983077Y-803605D01*
X2976727Y-804316D01*
X2971292Y-806196D01*
X2966364Y-809294D01*
X2962300Y-813358D01*
X2959201Y-818286D01*
X2957322Y-823721D01*
X2956610Y-830071D01*
G37*
G36*
X2113584Y-848918D02*
G01*
X2145385Y-848918D01*
X2145385Y-826465D01*
X2144674Y-820115D01*
X2142794Y-814679D01*
X2139696Y-809752D01*
X2135632Y-805688D01*
X2130704Y-802589D01*
X2125268Y-800658D01*
X2118918Y-799947D01*
X2113584Y-799947D01*
G37*
G36*
X2044598Y-848918D02*
G01*
X2076399Y-848918D01*
X2076399Y-799947D01*
X2071065Y-799947D01*
X2064766Y-800658D01*
X2059279Y-802589D01*
X2054402Y-805688D01*
X2050288Y-809752D01*
X2047189Y-814679D01*
X2045309Y-820115D01*
X2044598Y-826465D01*
G37*
G36*
X426364Y-830935D02*
G01*
X539445Y-830935D01*
X545744Y-830224D01*
X551230Y-828294D01*
X556107Y-825195D01*
X560222Y-821131D01*
X563270Y-816203D01*
X565200Y-810768D01*
X565912Y-804418D01*
X565912Y-781354D01*
X426364Y-781354D01*
G37*
G36*
X3460546Y-830884D02*
G01*
X3573627Y-830884D01*
X3573627Y-781354D01*
X3434079Y-781354D01*
X3434079Y-804418D01*
X3434791Y-810717D01*
X3436721Y-816203D01*
X3439769Y-821080D01*
X3443884Y-825195D01*
X3448761Y-828243D01*
X3454247Y-830173D01*
G37*
G36*
X426364Y-708660D02*
G01*
X565912Y-708660D01*
X565912Y-685596D01*
X565200Y-679246D01*
X563270Y-673811D01*
X560222Y-668883D01*
X556107Y-664819D01*
X551230Y-661720D01*
X545744Y-659790D01*
X539445Y-659079D01*
X426364Y-659079D01*
G37*
G36*
X2501849Y-669086D02*
G01*
X2515057Y-669086D01*
X2521407Y-668375D01*
X2526842Y-666496D01*
X2531770Y-663397D01*
X2535834Y-659333D01*
X2538933Y-654405D01*
X2540863Y-648970D01*
X2541574Y-642620D01*
X2541574Y-627938D01*
X2501849Y-627938D01*
G37*
G36*
X2501849Y-572058D02*
G01*
X2541574Y-572058D01*
X2541574Y-557377D01*
X2540863Y-551027D01*
X2538933Y-545592D01*
X2535834Y-540664D01*
X2531770Y-536600D01*
X2526842Y-533501D01*
X2521407Y-531622D01*
X2515057Y-530910D01*
X2501849Y-530910D01*
G37*

%LPD*%
G36*
X832154Y-963117D02*
G01*
X824280Y-967130D01*
X805992Y-977341D01*
X800252Y-979982D01*
X794004Y-982065D01*
X786790Y-983691D01*
X778306Y-984656D01*
X767994Y-985012D01*
X767994Y-1014984D01*
X778306Y-1015339D01*
X786790Y-1016304D01*
X794004Y-1017930D01*
X800252Y-1020013D01*
X805992Y-1022654D01*
X824280Y-1032865D01*
X832154Y-1036878D01*
X870508Y-999998D01*
G37*
G36*
X834999Y-918006D02*
G01*
X834644Y-928268D01*
X833678Y-936802D01*
X832103Y-943965D01*
X829970Y-950214D01*
X827328Y-955954D01*
X817118Y-974293D01*
X813104Y-982116D01*
X850036Y-1020521D01*
X886917Y-982116D01*
X882853Y-974242D01*
X872642Y-955954D01*
X870051Y-950214D01*
X867918Y-943965D01*
X866343Y-936802D01*
X865327Y-928268D01*
X864971Y-918006D01*
G37*
G36*
X1432204Y-863041D02*
G01*
X1405991Y-877265D01*
X1400251Y-879906D01*
X1394002Y-881989D01*
X1386840Y-883615D01*
X1378305Y-884580D01*
X1367993Y-884936D01*
X1367993Y-914908D01*
X1378254Y-915263D01*
X1386789Y-916228D01*
X1393952Y-917854D01*
X1400200Y-919987D01*
X1405940Y-922578D01*
X1424228Y-932840D01*
X1432052Y-936853D01*
X1470507Y-900023D01*
G37*
G36*
X1467866Y-863092D02*
G01*
X1429512Y-899972D01*
X1467866Y-936904D01*
X1475740Y-932891D01*
X1494028Y-922629D01*
X1499768Y-920038D01*
X1506016Y-917905D01*
X1513230Y-916330D01*
X1521714Y-915314D01*
X1532026Y-915009D01*
X1532026Y-884986D01*
X1521714Y-884682D01*
X1513230Y-883666D01*
X1506016Y-882091D01*
X1499768Y-879957D01*
X1494028Y-877366D01*
X1475740Y-867105D01*
G37*
G36*
X-99974Y-1350010D02*
G01*
X-99974Y-2049983D01*
X150012Y-2049983D01*
X150012Y-1350010D01*
G37*
G36*
X3849979Y49987D02*
G01*
X3849979Y-649986D01*
X4100017Y-649986D01*
X4100017Y49987D01*
G37*
G36*
X3849979Y-1350010D02*
G01*
X3849979Y-2049983D01*
X4100017Y-2049983D01*
X4100017Y-1350010D01*
G37*
G36*
X-99974Y49987D02*
G01*
X-99974Y-649986D01*
X150012Y-649986D01*
X150012Y49987D01*
G37*
G36*
X-99974Y-1849983D02*
G01*
X-99974Y-2049983D01*
X4150004Y-2049983D01*
X4150004Y-1849983D01*
G37*
G36*
X-99974Y49987D02*
G01*
X-99974Y-150012D01*
X4150004Y-150012D01*
X4150004Y49987D01*
G37*
D10*
X3699992Y-999997D02*
G01*
X3299993Y-999997D01*
X3233206Y-1066784D01*
X3223435Y-1074803D01*
X3212924Y-1081826D01*
X3201776Y-1087785D01*
X3190097Y-1092624D01*
X3177999Y-1096291D01*
X3165602Y-1098758D01*
X3153023Y-1099997D01*
X3061020Y-1099997D01*
X3042198Y-1092202D01*
X3649992Y-349999D02*
G01*
X3333206Y-666785D01*
X3325187Y-676556D01*
X3318164Y-687067D01*
X3312205Y-698215D01*
X3307367Y-709894D01*
X3303699Y-721992D01*
X3301232Y-734390D01*
X3299993Y-746968D01*
X3299993Y-999997D01*
X2849994Y-1107881D02*
G01*
X2857192Y-1090500D01*
X2870494Y-1077198D01*
X2887875Y-1070000D01*
X3008970Y-1070000D01*
X3027791Y-1077795D01*
X3042198Y-1092202D01*
X2094991Y-1499996D02*
G01*
X2503025Y-1499996D01*
X2515603Y-1498757D01*
X2528001Y-1496291D01*
X2540099Y-1492623D01*
X2551777Y-1487784D01*
X2562926Y-1481825D01*
X2573436Y-1474802D01*
X2583207Y-1466783D01*
X2816781Y-1233210D01*
X2824800Y-1223439D01*
X2831823Y-1212928D01*
X2837781Y-1201780D01*
X2842620Y-1190101D01*
X2846288Y-1178003D01*
X2848754Y-1165605D01*
X2849994Y-1153027D01*
X2849994Y-1107881D01*
X2099995Y-505002D02*
G01*
X2255410Y-505002D01*
X2270252Y-507954D01*
X2284229Y-513745D01*
X2296810Y-522150D01*
X2315469Y-540809D01*
X2324658Y-562993D01*
X2324658Y-599998D01*
X1899996Y-599998D02*
G01*
X1675333Y-599998D01*
X1905000Y-1126975D02*
G01*
X1893389Y-1115364D01*
X1875665Y-1115364D01*
X1858078Y-1108080D01*
X1659186Y-909187D01*
X1637002Y-899998D01*
X1599996Y-899998D01*
X2099995Y-694994D02*
G01*
X2041204Y-694994D01*
X2019048Y-699401D01*
X1998179Y-708045D01*
X1979399Y-720595D01*
X1929155Y-770839D01*
X1917313Y-788560D01*
X1909157Y-808250D01*
X1905000Y-829155D01*
X1905000Y-884631D01*
X2399995Y-899998D02*
G01*
X2399995Y-838108D01*
X2395357Y-814788D01*
X2386256Y-792820D01*
X2373045Y-773048D01*
X2328204Y-728207D01*
X2318433Y-720189D01*
X2307922Y-713165D01*
X2296774Y-707207D01*
X2285095Y-702368D01*
X2272997Y-698700D01*
X2260600Y-696234D01*
X2248021Y-694994D01*
X2099995Y-694994D01*
X1999995Y-1299997D02*
G01*
X1966694Y-1299997D01*
X1946729Y-1291727D01*
X1924055Y-1269052D01*
X1914715Y-1255072D01*
X1908279Y-1239540D01*
X1905000Y-1223048D01*
X1905000Y-1126975D01*
X1174666Y-900023D02*
G01*
X1174666Y-772299D01*
X1175905Y-759721D01*
X1178372Y-747323D01*
X1182039Y-735225D01*
X1186878Y-723546D01*
X1192837Y-712398D01*
X1199860Y-701888D01*
X1207879Y-692116D01*
X1266784Y-633211D01*
X1276555Y-625193D01*
X1287066Y-618169D01*
X1298214Y-612211D01*
X1309893Y-607372D01*
X1321991Y-603704D01*
X1334388Y-601238D01*
X1346967Y-599998D01*
X1524660Y-599998D01*
X1325338Y-900023D02*
G01*
X1325338Y-1100023D01*
X1174666Y-1100023D02*
G01*
X1174666Y-1227696D01*
X1175905Y-1240274D01*
X1178372Y-1252672D01*
X1182039Y-1264770D01*
X1186878Y-1276449D01*
X1192837Y-1287597D01*
X1199860Y-1298107D01*
X1207879Y-1307879D01*
X1366784Y-1466783D01*
X1376555Y-1474802D01*
X1387066Y-1481825D01*
X1398214Y-1487784D01*
X1409893Y-1492623D01*
X1421991Y-1496291D01*
X1434388Y-1498757D01*
X1446966Y-1499996D01*
X1905000Y-1499996D01*
X1174666Y-1100023D02*
G01*
X1174666Y-900023D01*
X299999Y-999997D02*
G01*
X849998Y-999997D01*
X1325371Y-899921D02*
G01*
X1450086Y-899921D01*
X1599996Y-899998D02*
G01*
X1449997Y-899998D01*
X349999Y-349999D02*
G01*
X816785Y-816785D01*
X824804Y-826556D01*
X831827Y-837067D01*
X837785Y-848215D01*
X842624Y-859894D01*
X846292Y-871992D01*
X848758Y-884389D01*
X849998Y-896967D01*
X849998Y-999997D01*
D11*
G01*
X3049993Y-1100000D03*
D12*
G01*
X3049981Y-899998D03*
D11*
G01*
X1599996Y-899995D03*
D12*
G01*
X1599996Y-1099997D03*
D11*
G01*
X2399995Y-899995D03*
D12*
G01*
X2399995Y-1099997D03*
D13*
G01*
X2850006Y-1070000D03*
G01*
X2850006Y-929995D03*
G36*
X222999Y-1649996D02*
G01*
X223913Y-1634680D01*
X226682Y-1619592D01*
X231254Y-1604962D01*
X237553Y-1590967D01*
X245478Y-1577860D01*
X254927Y-1565770D01*
X265772Y-1554924D01*
X277863Y-1545475D01*
X290969Y-1537550D01*
X304965Y-1531251D01*
X319595Y-1526679D01*
X334683Y-1523911D01*
X349999Y-1522996D01*
X349999Y-1522996D01*
X365315Y-1523911D01*
X380403Y-1526679D01*
X395033Y-1531251D01*
X409028Y-1537550D01*
X422135Y-1545475D01*
X434225Y-1554924D01*
X445071Y-1565770D01*
X454520Y-1577860D01*
X462445Y-1590967D01*
X468744Y-1604962D01*
X473316Y-1619592D01*
X476084Y-1634680D01*
X476999Y-1649996D01*
X476999Y-1649996D01*
X476084Y-1665312D01*
X473316Y-1680400D01*
X468744Y-1695030D01*
X462445Y-1709026D01*
X454520Y-1722132D01*
X445071Y-1734223D01*
X434225Y-1745068D01*
X422135Y-1754517D01*
X409028Y-1762442D01*
X395033Y-1768741D01*
X380403Y-1773313D01*
X365315Y-1776082D01*
X349999Y-1776996D01*
X349999Y-1776996D01*
X334683Y-1776082D01*
X319595Y-1773313D01*
X304965Y-1768741D01*
X290969Y-1762442D01*
X277863Y-1754517D01*
X265772Y-1745068D01*
X254927Y-1734223D01*
X245478Y-1722132D01*
X237553Y-1709026D01*
X231254Y-1695030D01*
X226682Y-1680400D01*
X223913Y-1665312D01*
X222999Y-1649996D01*
G37*
G36*
X3522992Y-1649996D02*
G01*
X3523907Y-1634680D01*
X3526675Y-1619592D01*
X3531247Y-1604962D01*
X3537546Y-1590967D01*
X3545471Y-1577860D01*
X3554920Y-1565770D01*
X3565766Y-1554924D01*
X3577856Y-1545475D01*
X3590963Y-1537550D01*
X3604958Y-1531251D01*
X3619588Y-1526679D01*
X3634676Y-1523911D01*
X3649992Y-1522996D01*
X3649992Y-1522996D01*
X3665308Y-1523911D01*
X3680396Y-1526679D01*
X3695026Y-1531251D01*
X3709022Y-1537550D01*
X3722128Y-1545475D01*
X3734219Y-1554924D01*
X3745064Y-1565770D01*
X3754513Y-1577860D01*
X3762438Y-1590967D01*
X3768737Y-1604962D01*
X3773309Y-1619592D01*
X3776078Y-1634680D01*
X3776992Y-1649996D01*
X3776992Y-1649996D01*
X3776078Y-1665312D01*
X3773309Y-1680400D01*
X3768737Y-1695030D01*
X3762438Y-1709026D01*
X3754513Y-1722132D01*
X3745064Y-1734223D01*
X3734219Y-1745068D01*
X3722128Y-1754517D01*
X3709022Y-1762442D01*
X3695026Y-1768741D01*
X3680396Y-1773313D01*
X3665308Y-1776082D01*
X3649992Y-1776996D01*
X3649992Y-1776996D01*
X3634676Y-1776082D01*
X3619588Y-1773313D01*
X3604958Y-1768741D01*
X3590963Y-1762442D01*
X3577856Y-1754517D01*
X3565766Y-1745068D01*
X3554920Y-1734223D01*
X3545471Y-1722132D01*
X3537546Y-1709026D01*
X3531247Y-1695030D01*
X3526675Y-1680400D01*
X3523907Y-1665312D01*
X3522992Y-1649996D01*
G37*
G36*
X222999Y-349999D02*
G01*
X223913Y-334683D01*
X226682Y-319595D01*
X231254Y-304965D01*
X237553Y-290969D01*
X245478Y-277863D01*
X254927Y-265772D01*
X265772Y-254927D01*
X277863Y-245478D01*
X290969Y-237553D01*
X304965Y-231254D01*
X319595Y-226682D01*
X334683Y-223913D01*
X349999Y-222999D01*
X349999Y-222999D01*
X365315Y-223913D01*
X380403Y-226682D01*
X395033Y-231254D01*
X409028Y-237553D01*
X422135Y-245478D01*
X434225Y-254927D01*
X445071Y-265772D01*
X454520Y-277863D01*
X462445Y-290969D01*
X468744Y-304965D01*
X473316Y-319595D01*
X476084Y-334683D01*
X476999Y-349999D01*
X476999Y-349999D01*
X476084Y-365315D01*
X473316Y-380403D01*
X468744Y-395033D01*
X462445Y-409028D01*
X454520Y-422135D01*
X445071Y-434225D01*
X434225Y-445071D01*
X422135Y-454520D01*
X409028Y-462445D01*
X395033Y-468744D01*
X380403Y-473316D01*
X365315Y-476084D01*
X349999Y-476999D01*
X349999Y-476999D01*
X334683Y-476084D01*
X319595Y-473316D01*
X304965Y-468744D01*
X290969Y-462445D01*
X277863Y-454520D01*
X265772Y-445071D01*
X254927Y-434225D01*
X245478Y-422135D01*
X237553Y-409028D01*
X231254Y-395033D01*
X226682Y-380403D01*
X223913Y-365315D01*
X222999Y-349999D01*
G37*
G36*
X3522992Y-349999D02*
G01*
X3523907Y-334683D01*
X3526675Y-319595D01*
X3531247Y-304965D01*
X3537546Y-290969D01*
X3545471Y-277863D01*
X3554920Y-265772D01*
X3565766Y-254927D01*
X3577856Y-245478D01*
X3590963Y-237553D01*
X3604958Y-231254D01*
X3619588Y-226682D01*
X3634676Y-223913D01*
X3649992Y-222999D01*
X3649992Y-222999D01*
X3665308Y-223913D01*
X3680396Y-226682D01*
X3695026Y-231254D01*
X3709022Y-237553D01*
X3722128Y-245478D01*
X3734219Y-254927D01*
X3745064Y-265772D01*
X3754513Y-277863D01*
X3762438Y-290969D01*
X3768737Y-304965D01*
X3773309Y-319595D01*
X3776078Y-334683D01*
X3776992Y-349999D01*
X3776992Y-349999D01*
X3776078Y-365315D01*
X3773309Y-380403D01*
X3768737Y-395033D01*
X3762438Y-409028D01*
X3754513Y-422135D01*
X3745064Y-434225D01*
X3734219Y-445071D01*
X3722128Y-454520D01*
X3709022Y-462445D01*
X3695026Y-468744D01*
X3680396Y-473316D01*
X3665308Y-476084D01*
X3649992Y-476999D01*
X3649992Y-476999D01*
X3634676Y-476084D01*
X3619588Y-473316D01*
X3604958Y-468744D01*
X3590963Y-462445D01*
X3577856Y-454520D01*
X3565766Y-445071D01*
X3554920Y-434225D01*
X3545471Y-422135D01*
X3537546Y-409028D01*
X3531247Y-395033D01*
X3526675Y-380403D01*
X3523907Y-365315D01*
X3522992Y-349999D01*
G37*
D14*
G01*
X1905000Y-1499996D03*
G01*
X2094991Y-1499996D03*
G01*
X1999995Y-1299997D03*
D15*
G01*
X2099995Y-694994D03*
G01*
X2099995Y-505002D03*
G01*
X1899996Y-599998D03*
D16*
G01*
X1174677Y-1100023D03*
G01*
X1325327Y-1100023D03*
G01*
X1174677Y-900023D03*
G01*
X1325327Y-900023D03*
G01*
X1524671Y-599998D03*
G01*
X1675321Y-599998D03*
G01*
X2324670Y-599998D03*
G01*
X2475320Y-599998D03*
D17*
G01*
X1905000Y-1115364D03*
G01*
X1999995Y-1115364D03*
G01*
X2094991Y-1115364D03*
D18*
G01*
X2094991Y-884631D03*
G01*
X1905000Y-884631D03*
D19*
G01*
X299999Y-745007D03*
G01*
X299999Y-1255013D03*
G01*
X299999Y-999997D03*
G01*
X3699992Y-1254988D03*
G01*
X3699992Y-744981D03*
G01*
X3699992Y-999997D03*
D10*
G75*
G01*
X3333900Y-999998D02*
G03*
X3276001Y-1023955I1J-81945D01*
G75*
G01*
X3299993Y-957298D02*
G03*
X3342693Y-999998I42700J0D01*
G75*
G01*
X3276013Y-1023978D02*
G03*
X3299993Y-966084I-57894J57893D01*
G75*
G01*
X1368039Y-899922D02*
G03*
X1325339Y-942622I0J-42700D01*
G75*
G01*
X807298Y-999998D02*
G03*
X849998Y-957298I0J42700D01*
D20*
G01*
X199999Y-99999D03*
G01*
X399999Y-99999D03*
G01*
X599998Y-99999D03*
G01*
X799998Y-99999D03*
G01*
X999997Y-99999D03*
G01*
X1199997Y-99999D03*
G01*
X1399997Y-99999D03*
G01*
X1599996Y-99999D03*
G01*
X1799996Y-99999D03*
G01*
X1999995Y-99999D03*
G01*
X2199995Y-99999D03*
G01*
X2399995Y-99999D03*
G01*
X2599994Y-99999D03*
G01*
X2799994Y-99999D03*
G01*
X2999993Y-99999D03*
G01*
X3199993Y-99999D03*
G01*
X3399993Y-99999D03*
G01*
X3599992Y-99999D03*
G01*
X3799992Y-99999D03*
G01*
X99999Y-199999D03*
G01*
X99999Y-399999D03*
G01*
X99999Y-599998D03*
G01*
X99999Y-1399997D03*
G01*
X99999Y-1599996D03*
G01*
X99999Y-1799996D03*
G01*
X199999Y-1899996D03*
G01*
X399999Y-1899996D03*
G01*
X599998Y-1899996D03*
G01*
X799998Y-1899996D03*
G01*
X999997Y-1899996D03*
G01*
X1199997Y-1899996D03*
G01*
X1399997Y-1899996D03*
G01*
X1599996Y-1899996D03*
G01*
X1799996Y-1899996D03*
G01*
X1999995Y-1899996D03*
G01*
X2199995Y-1899996D03*
G01*
X2399995Y-1899996D03*
G01*
X2599994Y-1899996D03*
G01*
X2799994Y-1899996D03*
G01*
X2999993Y-1899996D03*
G01*
X3199993Y-1899996D03*
G01*
X3399993Y-1899996D03*
G01*
X3599992Y-1899996D03*
G01*
X3799992Y-1899996D03*
G01*
X3899992Y-1799996D03*
G01*
X3899992Y-1599996D03*
G01*
X3899992Y-1399997D03*
G01*
X3899992Y-599998D03*
G01*
X3899992Y-399999D03*
G01*
X3899992Y-199999D03*
D21*
G01*
X1450009Y-899998D03*
G01*
X850011Y-999997D03*
G01*
X1450009Y-1050010D03*
G01*
X1450009Y-750011D03*
D20*
G01*
X2599994Y-699998D03*
G01*
X2599994Y-499998D03*
G01*
X2750007Y-750011D03*
G01*
X3150006Y-750011D03*
G01*
X2949981Y-750011D03*
G01*
X2550007Y-1199997D03*
G01*
X2550007Y-1050010D03*
G01*
X1450009Y-1199997D03*
G01*
X250012Y-599998D03*
G01*
X399999Y-599998D03*
G01*
X250012Y-1399997D03*
G01*
X399999Y-1399997D03*
G01*
X3750005Y-599998D03*
G01*
X3599992Y-599998D03*
G01*
X3750005Y-1399997D03*
G01*
X3599992Y-1399997D03*
M02*
