G04 Layer: BottomLayer*
G04 EasyEDA v6.5.42, 2024-03-17 15:56:58*
G04 633bbcd927b44838993661e05d2ec2ea,9a5be75d700b4a6385dc1106f27949ae,10*
G04 Gerber Generator version 0.2*
G04 Scale: 100 percent, Rotated: No, Reflected: No *
G04 Dimensions in millimeters *
G04 leading zeros omitted , absolute positions ,4 integer and 5 decimal *
%FSLAX45Y45*%
%MOMM*%

%ADD10C,0.3000*%
%ADD11R,4.8000X1.2000*%
%ADD12C,0.6200*%
%ADD13C,0.8200*%

%LPD*%
G36*
X200355Y-1974088D02*
G01*
X182422Y-1973122D01*
X165557Y-1970582D01*
X148996Y-1966417D01*
X132943Y-1960575D01*
X117500Y-1953260D01*
X102870Y-1944420D01*
X89204Y-1934210D01*
X76606Y-1922729D01*
X65125Y-1910029D01*
X55016Y-1896262D01*
X46278Y-1881581D01*
X39014Y-1866138D01*
X33324Y-1850034D01*
X29209Y-1833473D01*
X26771Y-1816557D01*
X25908Y-1799132D01*
X25908Y-1366062D01*
X26670Y-1362202D01*
X28854Y-1358900D01*
X32105Y-1356715D01*
X35966Y-1355902D01*
X41249Y-1355852D01*
X45720Y-1355191D01*
X51409Y-1353007D01*
X56540Y-1349502D01*
X62839Y-1342847D01*
X65633Y-1341424D01*
X68783Y-1340916D01*
X173634Y-1340916D01*
X173634Y-1291386D01*
X76047Y-1291386D01*
X72186Y-1290574D01*
X68884Y-1288389D01*
X66700Y-1285087D01*
X65887Y-1281226D01*
X65887Y-1228801D01*
X66700Y-1224940D01*
X68884Y-1221638D01*
X72186Y-1219454D01*
X76047Y-1218641D01*
X173634Y-1218641D01*
X173634Y-1169111D01*
X76047Y-1169111D01*
X72186Y-1168349D01*
X68884Y-1166114D01*
X66700Y-1162812D01*
X65887Y-1158951D01*
X65887Y-841095D01*
X66700Y-837184D01*
X68884Y-833882D01*
X72186Y-831697D01*
X76047Y-830935D01*
X173634Y-830935D01*
X173634Y-781354D01*
X76047Y-781354D01*
X72186Y-780592D01*
X68884Y-778357D01*
X66700Y-775106D01*
X65887Y-771194D01*
X65887Y-718820D01*
X66700Y-714908D01*
X68884Y-711657D01*
X72186Y-709422D01*
X76047Y-708660D01*
X173634Y-708660D01*
X173634Y-659079D01*
X68681Y-659079D01*
X65481Y-658571D01*
X62585Y-657047D01*
X59486Y-653440D01*
X56438Y-650392D01*
X52832Y-647750D01*
X47294Y-645261D01*
X41097Y-644144D01*
X35966Y-644093D01*
X32105Y-643280D01*
X28854Y-641096D01*
X26670Y-637794D01*
X25908Y-633933D01*
X25908Y-200863D01*
X26873Y-182422D01*
X29413Y-165557D01*
X33578Y-148996D01*
X39420Y-132943D01*
X46736Y-117500D01*
X55575Y-102870D01*
X65786Y-89204D01*
X77266Y-76606D01*
X89966Y-65125D01*
X103733Y-55016D01*
X118414Y-46278D01*
X133858Y-39014D01*
X149961Y-33324D01*
X166522Y-29209D01*
X183438Y-26771D01*
X200863Y-25908D01*
X3799128Y-25908D01*
X3817569Y-26873D01*
X3834434Y-29413D01*
X3850995Y-33578D01*
X3867048Y-39420D01*
X3882491Y-46736D01*
X3897122Y-55575D01*
X3910787Y-65786D01*
X3923385Y-77266D01*
X3934866Y-89966D01*
X3944975Y-103733D01*
X3953713Y-118414D01*
X3960977Y-133858D01*
X3966667Y-149961D01*
X3970782Y-166522D01*
X3973220Y-183438D01*
X3974084Y-200863D01*
X3974084Y-633933D01*
X3973322Y-637794D01*
X3971137Y-641096D01*
X3967886Y-643280D01*
X3964025Y-644093D01*
X3958742Y-644144D01*
X3954272Y-644804D01*
X3948582Y-646988D01*
X3943451Y-650494D01*
X3937152Y-657148D01*
X3934358Y-658571D01*
X3931208Y-659079D01*
X3826357Y-659079D01*
X3826357Y-708609D01*
X3923944Y-708609D01*
X3927805Y-709422D01*
X3931107Y-711606D01*
X3933291Y-714908D01*
X3934104Y-718769D01*
X3934104Y-771194D01*
X3933291Y-775055D01*
X3931107Y-778357D01*
X3927805Y-780542D01*
X3923944Y-781354D01*
X3826357Y-781354D01*
X3826357Y-830884D01*
X3923944Y-830884D01*
X3927805Y-831646D01*
X3931107Y-833882D01*
X3933291Y-837184D01*
X3934104Y-841044D01*
X3934104Y-1158900D01*
X3933291Y-1162812D01*
X3931107Y-1166114D01*
X3927805Y-1168298D01*
X3923944Y-1169060D01*
X3826357Y-1169060D01*
X3826357Y-1218641D01*
X3923944Y-1218641D01*
X3927805Y-1219403D01*
X3931107Y-1221638D01*
X3933291Y-1224889D01*
X3934104Y-1228801D01*
X3934104Y-1281176D01*
X3933291Y-1285087D01*
X3931107Y-1288338D01*
X3927805Y-1290574D01*
X3923944Y-1291336D01*
X3826357Y-1291336D01*
X3826357Y-1340916D01*
X3931310Y-1340916D01*
X3934510Y-1341424D01*
X3937406Y-1342948D01*
X3940505Y-1346555D01*
X3943553Y-1349603D01*
X3947160Y-1352245D01*
X3952697Y-1354734D01*
X3958894Y-1355852D01*
X3964025Y-1355902D01*
X3967886Y-1356715D01*
X3971137Y-1358900D01*
X3973322Y-1362202D01*
X3974084Y-1366062D01*
X3974084Y-1799132D01*
X3973118Y-1817573D01*
X3970578Y-1834438D01*
X3966413Y-1850999D01*
X3960571Y-1867052D01*
X3953256Y-1882495D01*
X3944416Y-1897125D01*
X3934206Y-1910791D01*
X3922725Y-1923389D01*
X3910025Y-1934870D01*
X3896258Y-1944979D01*
X3881577Y-1953717D01*
X3866134Y-1960981D01*
X3850030Y-1966671D01*
X3833469Y-1970786D01*
X3816553Y-1973224D01*
X3799128Y-1974088D01*
G37*

%LPC*%
G36*
X426364Y-1340916D02*
G01*
X539445Y-1340916D01*
X545744Y-1340205D01*
X551230Y-1338275D01*
X556107Y-1335227D01*
X560222Y-1331112D01*
X563270Y-1326235D01*
X565200Y-1320749D01*
X565912Y-1314450D01*
X565912Y-1291386D01*
X426364Y-1291386D01*
G37*
G36*
X3460546Y-1340916D02*
G01*
X3573627Y-1340916D01*
X3573627Y-1291336D01*
X3434079Y-1291336D01*
X3434079Y-1314399D01*
X3434791Y-1320749D01*
X3436721Y-1326184D01*
X3439769Y-1331112D01*
X3443884Y-1335176D01*
X3448761Y-1338275D01*
X3454247Y-1340205D01*
G37*
G36*
X426364Y-1218641D02*
G01*
X565912Y-1218641D01*
X565912Y-1195578D01*
X565200Y-1189278D01*
X563270Y-1183792D01*
X560222Y-1178915D01*
X556107Y-1174800D01*
X551230Y-1171752D01*
X545744Y-1169822D01*
X539445Y-1169111D01*
X426364Y-1169111D01*
G37*
G36*
X3434079Y-1218641D02*
G01*
X3573627Y-1218641D01*
X3573627Y-1169060D01*
X3460546Y-1169060D01*
X3454247Y-1169771D01*
X3448761Y-1171702D01*
X3443884Y-1174800D01*
X3439769Y-1178864D01*
X3436721Y-1183792D01*
X3434791Y-1189228D01*
X3434079Y-1195578D01*
G37*
G36*
X847039Y-1081430D02*
G01*
X858926Y-1080973D01*
X870610Y-1078839D01*
X882091Y-1074928D01*
X886561Y-1072845D01*
X895654Y-1068120D01*
X911606Y-1059180D01*
X915822Y-1057402D01*
X918159Y-1056741D01*
X925169Y-1055776D01*
X932840Y-1055522D01*
X1302766Y-1055522D01*
X1308709Y-1055217D01*
X1320800Y-1053998D01*
X1326692Y-1053134D01*
X1338580Y-1050798D01*
X1344371Y-1049324D01*
X1355953Y-1045819D01*
X1361592Y-1043787D01*
X1372819Y-1039164D01*
X1378153Y-1036624D01*
X1388872Y-1030884D01*
X1393952Y-1027836D01*
X1404061Y-1021080D01*
X1408836Y-1017574D01*
X1418234Y-1009853D01*
X1422654Y-1005840D01*
X1430883Y-997610D01*
X1436928Y-992022D01*
X1441805Y-988466D01*
X1448308Y-985418D01*
X1465834Y-980490D01*
X1478483Y-976376D01*
X1481683Y-975106D01*
X1492453Y-969568D01*
X1502156Y-962609D01*
X1510690Y-954379D01*
X1517954Y-944981D01*
X1523796Y-934567D01*
X1528013Y-923493D01*
X1530604Y-911860D01*
X1531467Y-900023D01*
X1530604Y-888136D01*
X1528013Y-876503D01*
X1523796Y-865428D01*
X1517954Y-855014D01*
X1510690Y-845616D01*
X1502156Y-837387D01*
X1492453Y-830427D01*
X1481886Y-824992D01*
X1470609Y-821182D01*
X1458925Y-818997D01*
X1447038Y-818591D01*
X1435201Y-819861D01*
X1423720Y-822858D01*
X1412748Y-827532D01*
X1402588Y-833729D01*
X1393444Y-841349D01*
X1385519Y-850188D01*
X1378966Y-860094D01*
X1373581Y-871778D01*
X1369517Y-884123D01*
X1364589Y-901700D01*
X1362913Y-905967D01*
X1361694Y-908050D01*
X1357426Y-913688D01*
X1352143Y-919327D01*
X1345488Y-925931D01*
X1339900Y-930452D01*
X1333906Y-934415D01*
X1327556Y-937717D01*
X1320901Y-940460D01*
X1313992Y-942492D01*
X1306931Y-943813D01*
X1299819Y-944473D01*
X932840Y-944473D01*
X924306Y-944168D01*
X918362Y-943254D01*
X911606Y-940816D01*
X895705Y-931875D01*
X882142Y-925068D01*
X870610Y-921156D01*
X858926Y-919022D01*
X847039Y-918565D01*
X835202Y-919886D01*
X823721Y-922883D01*
X812749Y-927557D01*
X802589Y-933754D01*
X793445Y-941324D01*
X785520Y-950214D01*
X778967Y-960119D01*
X773887Y-970889D01*
X770483Y-982268D01*
X768756Y-994054D01*
X768756Y-1005941D01*
X770483Y-1017727D01*
X773887Y-1029106D01*
X778967Y-1039876D01*
X785520Y-1049782D01*
X793445Y-1058672D01*
X802589Y-1066241D01*
X812749Y-1072438D01*
X823721Y-1077112D01*
X835202Y-1080109D01*
G37*
G36*
X426364Y-830935D02*
G01*
X539445Y-830935D01*
X545744Y-830224D01*
X551230Y-828294D01*
X556107Y-825195D01*
X560222Y-821131D01*
X563270Y-816203D01*
X565200Y-810768D01*
X565912Y-804418D01*
X565912Y-781354D01*
X426364Y-781354D01*
G37*
G36*
X3460546Y-830884D02*
G01*
X3573627Y-830884D01*
X3573627Y-781354D01*
X3434079Y-781354D01*
X3434079Y-804418D01*
X3434791Y-810717D01*
X3436721Y-816203D01*
X3439769Y-821080D01*
X3443884Y-825195D01*
X3448761Y-828243D01*
X3454247Y-830173D01*
G37*
G36*
X426364Y-708660D02*
G01*
X565912Y-708660D01*
X565912Y-685596D01*
X565200Y-679246D01*
X563270Y-673811D01*
X560222Y-668883D01*
X556107Y-664819D01*
X551230Y-661720D01*
X545744Y-659790D01*
X539445Y-659079D01*
X426364Y-659079D01*
G37*
G36*
X3434079Y-708609D02*
G01*
X3573627Y-708609D01*
X3573627Y-659079D01*
X3460546Y-659079D01*
X3454247Y-659790D01*
X3448761Y-661720D01*
X3443884Y-664768D01*
X3439769Y-668883D01*
X3436721Y-673760D01*
X3434791Y-679246D01*
X3434079Y-685546D01*
G37*

%LPD*%
G36*
X867867Y-963117D02*
G01*
X829513Y-999998D01*
X867867Y-1036878D01*
X875741Y-1032865D01*
X894029Y-1022654D01*
X899769Y-1020013D01*
X906018Y-1017930D01*
X913231Y-1016304D01*
X921715Y-1015339D01*
X932027Y-1014984D01*
X932027Y-985012D01*
X921715Y-984656D01*
X913231Y-983691D01*
X906018Y-982065D01*
X899769Y-979982D01*
X894029Y-977341D01*
X875741Y-967130D01*
G37*
G36*
X1464513Y-885494D02*
G01*
X1411274Y-886510D01*
X1408582Y-894943D01*
X1402842Y-915111D01*
X1400657Y-921003D01*
X1397711Y-926947D01*
X1393748Y-933145D01*
X1388465Y-939850D01*
X1381404Y-947369D01*
X1402638Y-968603D01*
X1410157Y-961542D01*
X1416862Y-956208D01*
X1423060Y-952296D01*
X1428953Y-949350D01*
X1434896Y-947166D01*
X1455064Y-941425D01*
X1463446Y-938733D01*
G37*
D10*
X1449997Y-899998D02*
G01*
X1383210Y-966784D01*
X1373438Y-974803D01*
X1362928Y-981826D01*
X1351780Y-987785D01*
X1340101Y-992624D01*
X1328003Y-996292D01*
X1315605Y-998758D01*
X1303027Y-999997D01*
X849998Y-999997D01*
D11*
G01*
X299999Y-1255013D03*
G01*
X299999Y-745007D03*
G01*
X3699992Y-744981D03*
G01*
X3699992Y-1254988D03*
D12*
G01*
X199999Y-99999D03*
G01*
X399999Y-99999D03*
G01*
X599998Y-99999D03*
G01*
X799998Y-99999D03*
G01*
X999997Y-99999D03*
G01*
X1199997Y-99999D03*
G01*
X1399997Y-99999D03*
G01*
X1599996Y-99999D03*
G01*
X1799996Y-99999D03*
G01*
X1999995Y-99999D03*
G01*
X2199995Y-99999D03*
G01*
X2399995Y-99999D03*
G01*
X2599994Y-99999D03*
G01*
X2799994Y-99999D03*
G01*
X2999993Y-99999D03*
G01*
X3199993Y-99999D03*
G01*
X3399993Y-99999D03*
G01*
X3599992Y-99999D03*
G01*
X3799992Y-99999D03*
G01*
X99999Y-199999D03*
G01*
X99999Y-399999D03*
G01*
X99999Y-599998D03*
G01*
X99999Y-1399997D03*
G01*
X99999Y-1599996D03*
G01*
X99999Y-1799996D03*
G01*
X199999Y-1899996D03*
G01*
X399999Y-1899996D03*
G01*
X599998Y-1899996D03*
G01*
X799998Y-1899996D03*
G01*
X999997Y-1899996D03*
G01*
X1199997Y-1899996D03*
G01*
X1399997Y-1899996D03*
G01*
X1599996Y-1899996D03*
G01*
X1799996Y-1899996D03*
G01*
X1999995Y-1899996D03*
G01*
X2199995Y-1899996D03*
G01*
X2399995Y-1899996D03*
G01*
X2599994Y-1899996D03*
G01*
X2799994Y-1899996D03*
G01*
X2999993Y-1899996D03*
G01*
X3199993Y-1899996D03*
G01*
X3399993Y-1899996D03*
G01*
X3599992Y-1899996D03*
G01*
X3799992Y-1899996D03*
G01*
X3899992Y-1799996D03*
G01*
X3899992Y-1599996D03*
G01*
X3899992Y-1399997D03*
G01*
X3899992Y-599998D03*
G01*
X3899992Y-399999D03*
G01*
X3899992Y-199999D03*
D13*
G01*
X1450009Y-899998D03*
G01*
X850011Y-999997D03*
G01*
X1450009Y-1050010D03*
G01*
X1450009Y-750011D03*
D12*
G01*
X2599994Y-699998D03*
G01*
X2599994Y-499998D03*
G01*
X2750007Y-750011D03*
G01*
X3150006Y-750011D03*
G01*
X2949981Y-750011D03*
G01*
X2550007Y-1199997D03*
G01*
X2550007Y-1050010D03*
G01*
X1450009Y-1199997D03*
G01*
X250012Y-599998D03*
G01*
X399999Y-599998D03*
G01*
X250012Y-1399997D03*
G01*
X399999Y-1399997D03*
G01*
X3750005Y-599998D03*
G01*
X3599992Y-599998D03*
G01*
X3750005Y-1399997D03*
G01*
X3599992Y-1399997D03*
M02*
