G04 Layer: TopPasteMaskLayer*
G04 EasyEDA v6.5.42, 2024-03-17 15:56:58*
G04 633bbcd927b44838993661e05d2ec2ea,9a5be75d700b4a6385dc1106f27949ae,10*
G04 Gerber Generator version 0.2*
G04 Scale: 100 percent, Rotated: No, Reflected: No *
G04 Dimensions in millimeters *
G04 leading zeros omitted , absolute positions ,4 integer and 5 decimal *
%FSLAX45Y45*%
%MOMM*%

%ADD10R,0.9000X0.8000*%
%ADD11R,0.7000X1.2500*%
%ADD12R,1.2500X0.7000*%
%ADD13R,0.4900X1.1570*%
%ADD14R,0.4900X1.1750*%
%ADD15R,4.8000X1.2000*%

%LPD*%
G36*
X2988005Y-832510D02*
G01*
X2982976Y-837488D01*
X2982976Y-952500D01*
X2988005Y-957478D01*
X3030016Y-957021D01*
X3030016Y-912977D01*
X3074974Y-912977D01*
X3074974Y-957986D01*
X3115970Y-957478D01*
X3120999Y-952500D01*
X3120999Y-837488D01*
X3115970Y-832510D01*
G37*
G36*
X2988005Y-1047496D02*
G01*
X2982976Y-1052474D01*
X2982976Y-1167485D01*
X2988005Y-1172514D01*
X3115970Y-1172514D01*
X3120999Y-1167485D01*
X3120999Y-1052474D01*
X3115970Y-1047496D01*
X3074974Y-1048003D01*
X3074974Y-1091996D01*
X3030016Y-1091996D01*
X3030016Y-1047496D01*
G37*
G36*
X1575003Y-1042009D02*
G01*
X1534007Y-1042517D01*
X1528978Y-1047496D01*
X1528978Y-1162507D01*
X1534007Y-1167485D01*
X1661972Y-1167485D01*
X1667002Y-1162507D01*
X1667002Y-1047496D01*
X1661972Y-1042517D01*
X1620012Y-1042974D01*
X1620012Y-1087018D01*
X1575003Y-1087018D01*
G37*
G36*
X1534007Y-827481D02*
G01*
X1528978Y-832510D01*
X1528978Y-947521D01*
X1534007Y-952500D01*
X1575003Y-951992D01*
X1575003Y-907999D01*
X1620012Y-907999D01*
X1620012Y-952500D01*
X1661972Y-952500D01*
X1667002Y-947521D01*
X1667002Y-832510D01*
X1661972Y-827481D01*
G37*
G36*
X2375001Y-1042009D02*
G01*
X2334006Y-1042517D01*
X2328976Y-1047496D01*
X2328976Y-1162507D01*
X2334006Y-1167485D01*
X2461971Y-1167485D01*
X2467000Y-1162507D01*
X2467000Y-1047496D01*
X2461971Y-1042517D01*
X2420010Y-1042974D01*
X2420010Y-1087018D01*
X2375001Y-1087018D01*
G37*
G36*
X2334006Y-827481D02*
G01*
X2328976Y-832510D01*
X2328976Y-947521D01*
X2334006Y-952500D01*
X2375001Y-951992D01*
X2375001Y-907999D01*
X2420010Y-907999D01*
X2420010Y-952500D01*
X2461971Y-952500D01*
X2467000Y-947521D01*
X2467000Y-832510D01*
X2461971Y-827481D01*
G37*
G36*
X1130503Y-1055014D02*
G01*
X1125524Y-1060043D01*
X1125524Y-1140002D01*
X1130503Y-1145032D01*
X1210513Y-1145032D01*
X1215491Y-1140002D01*
X1215491Y-1117244D01*
X1178509Y-1117244D01*
X1178509Y-1084224D01*
X1215491Y-1084224D01*
X1215491Y-1060043D01*
X1210513Y-1055014D01*
G37*
G36*
X1290523Y-1055014D02*
G01*
X1285494Y-1060043D01*
X1285494Y-1084224D01*
X1323492Y-1084224D01*
X1323492Y-1117244D01*
X1285494Y-1117244D01*
X1285494Y-1140002D01*
X1290523Y-1145032D01*
X1369517Y-1145032D01*
X1374495Y-1140002D01*
X1374495Y-1060043D01*
X1369517Y-1055014D01*
G37*
G36*
X1130503Y-855014D02*
G01*
X1125524Y-860044D01*
X1125524Y-940003D01*
X1130503Y-945032D01*
X1210513Y-945032D01*
X1215491Y-940003D01*
X1215491Y-917244D01*
X1178509Y-917244D01*
X1178509Y-884224D01*
X1215491Y-884224D01*
X1215491Y-860044D01*
X1210513Y-855014D01*
G37*
G36*
X1290523Y-855014D02*
G01*
X1285494Y-860044D01*
X1285494Y-884224D01*
X1323492Y-884224D01*
X1323492Y-917244D01*
X1285494Y-917244D01*
X1285494Y-940003D01*
X1290523Y-945032D01*
X1369517Y-945032D01*
X1374495Y-940003D01*
X1374495Y-860044D01*
X1369517Y-855014D01*
G37*
G36*
X1480515Y-554990D02*
G01*
X1475486Y-560019D01*
X1475486Y-639978D01*
X1480515Y-645007D01*
X1560474Y-645007D01*
X1565503Y-639978D01*
X1565503Y-617220D01*
X1528521Y-617220D01*
X1528521Y-584200D01*
X1565503Y-584200D01*
X1565503Y-560019D01*
X1560474Y-554990D01*
G37*
G36*
X1640484Y-554990D02*
G01*
X1635506Y-560019D01*
X1635506Y-584200D01*
X1673504Y-584200D01*
X1673504Y-617220D01*
X1635506Y-617220D01*
X1635506Y-639978D01*
X1640484Y-645007D01*
X1719478Y-645007D01*
X1724507Y-639978D01*
X1724507Y-560019D01*
X1719478Y-554990D01*
G37*
G36*
X2280513Y-554990D02*
G01*
X2275484Y-560019D01*
X2275484Y-639978D01*
X2280513Y-645007D01*
X2360472Y-645007D01*
X2365502Y-639978D01*
X2365502Y-617220D01*
X2328468Y-617220D01*
X2328468Y-584200D01*
X2365502Y-584200D01*
X2365502Y-560019D01*
X2360472Y-554990D01*
G37*
G36*
X2440482Y-554990D02*
G01*
X2435504Y-560019D01*
X2435504Y-584200D01*
X2473502Y-584200D01*
X2473502Y-617220D01*
X2435504Y-617220D01*
X2435504Y-639978D01*
X2440482Y-645007D01*
X2519476Y-645007D01*
X2524506Y-639978D01*
X2524506Y-560019D01*
X2519476Y-554990D01*
G37*
D10*
G01*
X2850006Y-1070000D03*
G01*
X2850006Y-929995D03*
G36*
X223012Y-1650009D02*
G01*
X223926Y-1634693D01*
X226695Y-1619605D01*
X231267Y-1604975D01*
X237566Y-1590979D01*
X245490Y-1577873D01*
X254939Y-1565782D01*
X265785Y-1554937D01*
X277876Y-1545488D01*
X290982Y-1537563D01*
X304977Y-1531264D01*
X319608Y-1526692D01*
X334695Y-1523923D01*
X350012Y-1523009D01*
X365328Y-1523923D01*
X380415Y-1526692D01*
X395046Y-1531264D01*
X409041Y-1537563D01*
X422147Y-1545488D01*
X434238Y-1554937D01*
X445084Y-1565782D01*
X454532Y-1577873D01*
X462457Y-1590979D01*
X468756Y-1604975D01*
X473329Y-1619605D01*
X476097Y-1634693D01*
X477012Y-1650009D01*
X476097Y-1665325D01*
X473329Y-1680413D01*
X468756Y-1695043D01*
X462457Y-1709038D01*
X454532Y-1722145D01*
X445084Y-1734235D01*
X434238Y-1745081D01*
X422147Y-1754530D01*
X409041Y-1762455D01*
X395046Y-1768754D01*
X380415Y-1773326D01*
X365328Y-1776095D01*
X350012Y-1777009D01*
X334695Y-1776095D01*
X319608Y-1773326D01*
X304977Y-1768754D01*
X290982Y-1762455D01*
X277876Y-1754530D01*
X265785Y-1745081D01*
X254939Y-1734235D01*
X245490Y-1722145D01*
X237566Y-1709038D01*
X231267Y-1695043D01*
X226695Y-1680413D01*
X223926Y-1665325D01*
X223012Y-1650009D01*
G37*
G36*
X3523005Y-1650009D02*
G01*
X3523919Y-1634693D01*
X3526688Y-1619605D01*
X3531234Y-1604975D01*
X3537559Y-1590979D01*
X3545484Y-1577873D01*
X3554933Y-1565782D01*
X3565779Y-1554937D01*
X3577869Y-1545488D01*
X3590975Y-1537563D01*
X3604971Y-1531264D01*
X3619601Y-1526692D01*
X3634689Y-1523923D01*
X3650005Y-1523009D01*
X3665321Y-1523923D01*
X3680409Y-1526692D01*
X3695039Y-1531264D01*
X3709034Y-1537563D01*
X3722141Y-1545488D01*
X3734206Y-1554937D01*
X3745077Y-1565782D01*
X3754500Y-1577873D01*
X3762425Y-1590979D01*
X3768750Y-1604975D01*
X3773322Y-1619605D01*
X3776090Y-1634693D01*
X3777005Y-1650009D01*
X3776090Y-1665325D01*
X3773322Y-1680413D01*
X3768750Y-1695043D01*
X3762425Y-1709038D01*
X3754500Y-1722145D01*
X3745077Y-1734235D01*
X3734206Y-1745081D01*
X3722141Y-1754530D01*
X3709034Y-1762455D01*
X3695039Y-1768754D01*
X3680409Y-1773326D01*
X3665321Y-1776095D01*
X3650005Y-1777009D01*
X3634689Y-1776095D01*
X3619601Y-1773326D01*
X3604971Y-1768754D01*
X3590975Y-1762455D01*
X3577869Y-1754530D01*
X3565779Y-1745081D01*
X3554933Y-1734235D01*
X3545484Y-1722145D01*
X3537559Y-1709038D01*
X3531234Y-1695043D01*
X3526688Y-1680413D01*
X3523919Y-1665325D01*
X3523005Y-1650009D01*
G37*
G36*
X223012Y-350012D02*
G01*
X223926Y-334695D01*
X226695Y-319608D01*
X231267Y-304977D01*
X237566Y-290982D01*
X245490Y-277876D01*
X254939Y-265785D01*
X265785Y-254939D01*
X277876Y-245490D01*
X290982Y-237566D01*
X304977Y-231267D01*
X319608Y-226695D01*
X334695Y-223926D01*
X350012Y-223012D01*
X365328Y-223926D01*
X380415Y-226695D01*
X395046Y-231267D01*
X409041Y-237566D01*
X422147Y-245490D01*
X434238Y-254939D01*
X445084Y-265785D01*
X454532Y-277876D01*
X462457Y-290982D01*
X468756Y-304977D01*
X473329Y-319608D01*
X476097Y-334695D01*
X477012Y-350012D01*
X476097Y-365328D01*
X473329Y-380415D01*
X468756Y-395046D01*
X462457Y-409041D01*
X454532Y-422147D01*
X445084Y-434238D01*
X434238Y-445084D01*
X422147Y-454532D01*
X409041Y-462457D01*
X395046Y-468756D01*
X380415Y-473329D01*
X365328Y-476097D01*
X350012Y-477012D01*
X334695Y-476097D01*
X319608Y-473329D01*
X304977Y-468756D01*
X290982Y-462457D01*
X277876Y-454532D01*
X265785Y-445084D01*
X254939Y-434238D01*
X245490Y-422147D01*
X237566Y-409041D01*
X231267Y-395046D01*
X226695Y-380415D01*
X223926Y-365328D01*
X223012Y-350012D01*
G37*
G36*
X3523005Y-350012D02*
G01*
X3523919Y-334695D01*
X3526688Y-319608D01*
X3531234Y-304977D01*
X3537559Y-290982D01*
X3545484Y-277876D01*
X3554933Y-265785D01*
X3565779Y-254939D01*
X3577869Y-245490D01*
X3590975Y-237566D01*
X3604971Y-231267D01*
X3619601Y-226695D01*
X3634689Y-223926D01*
X3650005Y-223012D01*
X3665321Y-223926D01*
X3680409Y-226695D01*
X3695039Y-231267D01*
X3709034Y-237566D01*
X3722141Y-245490D01*
X3734206Y-254939D01*
X3745077Y-265785D01*
X3754500Y-277876D01*
X3762425Y-290982D01*
X3768750Y-304977D01*
X3773322Y-319608D01*
X3776090Y-334695D01*
X3777005Y-350012D01*
X3776090Y-365328D01*
X3773322Y-380415D01*
X3768750Y-395046D01*
X3762425Y-409041D01*
X3754500Y-422147D01*
X3745077Y-434238D01*
X3734206Y-445084D01*
X3722141Y-454532D01*
X3709034Y-462457D01*
X3695039Y-468756D01*
X3680409Y-473329D01*
X3665321Y-476097D01*
X3650005Y-477012D01*
X3634689Y-476097D01*
X3619601Y-473329D01*
X3604971Y-468756D01*
X3590975Y-462457D01*
X3577869Y-454532D01*
X3565779Y-445084D01*
X3554933Y-434238D01*
X3545484Y-422147D01*
X3537559Y-409041D01*
X3531234Y-395046D01*
X3526688Y-380415D01*
X3523919Y-365328D01*
X3523005Y-350012D01*
G37*
D11*
G01*
X1905000Y-1499996D03*
G01*
X2094991Y-1499996D03*
G01*
X1999995Y-1299997D03*
D12*
G01*
X2099995Y-694994D03*
G01*
X2099995Y-505002D03*
G01*
X1899996Y-599998D03*
D13*
G01*
X1905000Y-1115364D03*
G01*
X1999995Y-1115364D03*
G01*
X2094991Y-1115364D03*
D14*
G01*
X2094991Y-884631D03*
G01*
X1905000Y-884631D03*
D15*
G01*
X299999Y-745007D03*
G01*
X299999Y-1255013D03*
G01*
X299999Y-999997D03*
G01*
X3699992Y-1254988D03*
G01*
X3699992Y-744981D03*
G01*
X3699992Y-999997D03*
M02*
