G04 Layer: TopSilkscreenLayer*
G04 EasyEDA v6.5.42, 2024-03-17 15:56:58*
G04 633bbcd927b44838993661e05d2ec2ea,9a5be75d700b4a6385dc1106f27949ae,10*
G04 Gerber Generator version 0.2*
G04 Scale: 100 percent, Rotated: No, Reflected: No *
G04 Dimensions in millimeters *
G04 leading zeros omitted , absolute positions ,4 integer and 5 decimal *
%FSLAX45Y45*%
%MOMM*%

%ADD10C,0.1524*%
%ADD11C,0.2540*%
%ADD12C,0.3000*%

%LPD*%
G36*
X586130Y-256032D02*
G01*
X580034Y-256235D01*
X574090Y-256844D01*
X568198Y-257810D01*
X562508Y-259181D01*
X556920Y-260908D01*
X551535Y-262991D01*
X546303Y-265430D01*
X541274Y-268173D01*
X536448Y-271221D01*
X531825Y-274523D01*
X527405Y-278180D01*
X523290Y-282041D01*
X519379Y-286207D01*
X515772Y-290576D01*
X512419Y-295198D01*
X509371Y-300024D01*
X506628Y-305104D01*
X504240Y-310286D01*
X502158Y-315722D01*
X500430Y-321259D01*
X499059Y-326999D01*
X498043Y-332841D01*
X497433Y-338836D01*
X497230Y-344881D01*
X497230Y-368503D01*
X542442Y-368503D01*
X542442Y-351231D01*
X576986Y-351231D01*
X576986Y-319481D01*
X593496Y-319481D01*
X593496Y-351231D01*
X628548Y-351231D01*
X628548Y-368503D01*
X593496Y-368503D01*
X593496Y-400253D01*
X576986Y-400253D01*
X576986Y-368503D01*
X497230Y-368503D01*
X497433Y-381101D01*
X498043Y-387045D01*
X499059Y-392887D01*
X500430Y-398627D01*
X502158Y-404215D01*
X504240Y-409600D01*
X506628Y-414832D01*
X509371Y-419862D01*
X512419Y-424688D01*
X515772Y-429310D01*
X519379Y-433679D01*
X523290Y-437845D01*
X527405Y-441756D01*
X531825Y-445363D01*
X536448Y-448716D01*
X541274Y-451764D01*
X546303Y-454456D01*
X551535Y-456895D01*
X556920Y-458978D01*
X562508Y-460705D01*
X568198Y-462076D01*
X574090Y-463042D01*
X580034Y-463651D01*
X586130Y-463854D01*
X592226Y-463651D01*
X598170Y-463042D01*
X604012Y-462076D01*
X609752Y-460705D01*
X615340Y-458978D01*
X620725Y-456895D01*
X625957Y-454456D01*
X630986Y-451764D01*
X635812Y-448716D01*
X640435Y-445363D01*
X644804Y-441756D01*
X648970Y-437845D01*
X652881Y-433679D01*
X656488Y-429310D01*
X659841Y-424688D01*
X662889Y-419862D01*
X665581Y-414832D01*
X668020Y-409600D01*
X670102Y-404215D01*
X671830Y-398627D01*
X673201Y-392887D01*
X674166Y-387045D01*
X674776Y-381101D01*
X674979Y-375005D01*
X674979Y-344881D01*
X674776Y-338836D01*
X674166Y-332841D01*
X673201Y-326999D01*
X671830Y-321259D01*
X670102Y-315722D01*
X668020Y-310286D01*
X665581Y-305104D01*
X662889Y-300024D01*
X659841Y-295198D01*
X656488Y-290576D01*
X652881Y-286207D01*
X648970Y-282041D01*
X644804Y-278180D01*
X640435Y-274523D01*
X635812Y-271221D01*
X630986Y-268173D01*
X625957Y-265430D01*
X620725Y-262991D01*
X615340Y-260908D01*
X609752Y-259181D01*
X604012Y-257810D01*
X598170Y-256844D01*
X592226Y-256235D01*
G37*
G36*
X3411118Y-256032D02*
G01*
X3405022Y-256235D01*
X3399078Y-256844D01*
X3393186Y-257810D01*
X3387496Y-259181D01*
X3381908Y-260908D01*
X3376523Y-262991D01*
X3371291Y-265430D01*
X3366262Y-268173D01*
X3361436Y-271221D01*
X3356813Y-274523D01*
X3352444Y-278180D01*
X3348278Y-282041D01*
X3344367Y-286207D01*
X3340760Y-290576D01*
X3337407Y-295198D01*
X3334359Y-300024D01*
X3331667Y-305104D01*
X3329228Y-310286D01*
X3327146Y-315722D01*
X3325418Y-321259D01*
X3324047Y-326999D01*
X3323031Y-332841D01*
X3322472Y-338836D01*
X3322218Y-344881D01*
X3322218Y-368503D01*
X3367481Y-368503D01*
X3367481Y-351231D01*
X3401974Y-351231D01*
X3401974Y-319481D01*
X3418535Y-319481D01*
X3418535Y-351231D01*
X3453536Y-351231D01*
X3453536Y-368503D01*
X3418535Y-368503D01*
X3418535Y-400253D01*
X3401974Y-400253D01*
X3401974Y-368503D01*
X3322218Y-368503D01*
X3322218Y-375005D01*
X3322472Y-381101D01*
X3323031Y-387045D01*
X3324047Y-392887D01*
X3325418Y-398627D01*
X3327146Y-404215D01*
X3329228Y-409600D01*
X3331667Y-414832D01*
X3334359Y-419862D01*
X3337407Y-424688D01*
X3340760Y-429310D01*
X3344367Y-433679D01*
X3348278Y-437845D01*
X3352444Y-441756D01*
X3356813Y-445363D01*
X3361436Y-448716D01*
X3366262Y-451764D01*
X3371291Y-454456D01*
X3376523Y-456895D01*
X3381908Y-458978D01*
X3387496Y-460705D01*
X3393186Y-462076D01*
X3399078Y-463042D01*
X3405022Y-463651D01*
X3411118Y-463854D01*
X3417214Y-463651D01*
X3423158Y-463042D01*
X3429050Y-462076D01*
X3434740Y-460705D01*
X3440328Y-458978D01*
X3445713Y-456895D01*
X3450945Y-454456D01*
X3455974Y-451764D01*
X3460800Y-448716D01*
X3465423Y-445363D01*
X3469792Y-441756D01*
X3473958Y-437845D01*
X3477869Y-433679D01*
X3481476Y-429310D01*
X3484829Y-424688D01*
X3487877Y-419862D01*
X3490569Y-414832D01*
X3493008Y-409600D01*
X3495090Y-404215D01*
X3496818Y-398627D01*
X3498189Y-392887D01*
X3499205Y-387045D01*
X3499764Y-381101D01*
X3500018Y-375005D01*
X3500018Y-344881D01*
X3499764Y-338836D01*
X3499205Y-332841D01*
X3498189Y-326999D01*
X3496818Y-321259D01*
X3495090Y-315722D01*
X3493008Y-310286D01*
X3490569Y-305104D01*
X3487877Y-300024D01*
X3484829Y-295198D01*
X3481476Y-290576D01*
X3477869Y-286207D01*
X3473958Y-282041D01*
X3469792Y-278180D01*
X3465423Y-274523D01*
X3460800Y-271221D01*
X3455974Y-268173D01*
X3450945Y-265430D01*
X3445713Y-262991D01*
X3440328Y-260908D01*
X3434740Y-259181D01*
X3429050Y-257810D01*
X3423158Y-256844D01*
X3417214Y-256235D01*
G37*
G36*
X3413506Y-1549501D02*
G01*
X3407410Y-1549704D01*
X3401466Y-1550314D01*
X3395624Y-1551279D01*
X3389884Y-1552651D01*
X3384346Y-1554378D01*
X3378911Y-1556461D01*
X3373678Y-1558899D01*
X3368649Y-1561642D01*
X3363823Y-1564640D01*
X3359200Y-1567992D01*
X3354832Y-1571599D01*
X3350666Y-1575511D01*
X3346805Y-1579676D01*
X3343148Y-1584045D01*
X3339846Y-1588668D01*
X3336798Y-1593494D01*
X3334054Y-1598523D01*
X3331616Y-1603756D01*
X3329533Y-1609191D01*
X3327806Y-1614728D01*
X3326434Y-1620469D01*
X3325570Y-1625701D01*
X3438651Y-1625701D01*
X3438651Y-1669135D01*
X3419856Y-1669135D01*
X3419856Y-1625701D01*
X3325570Y-1625701D01*
X3324860Y-1632254D01*
X3324656Y-1638350D01*
X3324656Y-1656334D01*
X3324860Y-1662430D01*
X3325469Y-1668424D01*
X3326434Y-1674266D01*
X3327806Y-1679956D01*
X3329533Y-1685543D01*
X3331616Y-1690928D01*
X3334054Y-1696161D01*
X3336798Y-1701190D01*
X3339846Y-1706016D01*
X3343148Y-1710639D01*
X3346805Y-1715058D01*
X3350666Y-1719173D01*
X3354832Y-1723085D01*
X3359200Y-1726692D01*
X3363823Y-1730044D01*
X3368649Y-1733092D01*
X3373678Y-1735836D01*
X3378911Y-1738223D01*
X3384346Y-1740306D01*
X3389884Y-1742033D01*
X3395624Y-1743405D01*
X3401466Y-1744421D01*
X3407410Y-1745030D01*
X3413506Y-1745234D01*
X3419601Y-1745030D01*
X3425596Y-1744421D01*
X3431438Y-1743405D01*
X3437128Y-1742033D01*
X3442715Y-1740306D01*
X3448100Y-1738223D01*
X3453333Y-1735836D01*
X3458362Y-1733092D01*
X3463188Y-1730044D01*
X3467811Y-1726692D01*
X3472230Y-1723085D01*
X3476345Y-1719173D01*
X3480257Y-1715058D01*
X3483864Y-1710639D01*
X3487216Y-1706016D01*
X3490264Y-1701190D01*
X3493008Y-1696161D01*
X3495395Y-1690928D01*
X3497478Y-1685543D01*
X3499205Y-1679956D01*
X3500577Y-1674266D01*
X3501593Y-1668424D01*
X3502202Y-1662430D01*
X3502406Y-1656334D01*
X3502406Y-1638350D01*
X3502202Y-1632254D01*
X3501593Y-1626311D01*
X3500577Y-1620469D01*
X3499205Y-1614728D01*
X3497478Y-1609191D01*
X3495395Y-1603756D01*
X3493008Y-1598523D01*
X3490264Y-1593494D01*
X3487216Y-1588668D01*
X3483864Y-1584045D01*
X3480257Y-1579676D01*
X3476345Y-1575511D01*
X3472230Y-1571599D01*
X3467811Y-1567992D01*
X3463188Y-1564640D01*
X3458362Y-1561642D01*
X3453333Y-1558899D01*
X3448100Y-1556461D01*
X3442715Y-1554378D01*
X3437128Y-1552651D01*
X3431438Y-1551279D01*
X3425596Y-1550314D01*
X3419601Y-1549704D01*
G37*
G36*
X586130Y-1554276D02*
G01*
X580034Y-1554480D01*
X574040Y-1555089D01*
X568198Y-1556054D01*
X562508Y-1557426D01*
X556920Y-1559153D01*
X551535Y-1561236D01*
X546303Y-1563674D01*
X541274Y-1566418D01*
X536448Y-1569466D01*
X531825Y-1572768D01*
X527405Y-1576425D01*
X523290Y-1580286D01*
X519379Y-1584452D01*
X515772Y-1588820D01*
X512419Y-1593443D01*
X509371Y-1598269D01*
X506628Y-1603298D01*
X504240Y-1608531D01*
X502158Y-1613966D01*
X500430Y-1619504D01*
X499059Y-1625244D01*
X498166Y-1630375D01*
X579780Y-1630375D01*
X579780Y-1673809D01*
X560984Y-1673809D01*
X560984Y-1630375D01*
X498166Y-1630375D01*
X497433Y-1637080D01*
X497230Y-1643125D01*
X497230Y-1661109D01*
X497433Y-1667205D01*
X498043Y-1673199D01*
X499059Y-1679041D01*
X500430Y-1684731D01*
X502158Y-1690319D01*
X504240Y-1695704D01*
X506628Y-1700936D01*
X509371Y-1705965D01*
X512419Y-1710791D01*
X515772Y-1715414D01*
X519379Y-1719834D01*
X523290Y-1723948D01*
X527405Y-1727860D01*
X531825Y-1731467D01*
X536448Y-1734820D01*
X541274Y-1737868D01*
X546303Y-1740611D01*
X551535Y-1742998D01*
X556920Y-1745081D01*
X562508Y-1746808D01*
X568198Y-1748180D01*
X574040Y-1749196D01*
X580034Y-1749806D01*
X586130Y-1750009D01*
X592226Y-1749806D01*
X598170Y-1749196D01*
X604012Y-1748180D01*
X609752Y-1746808D01*
X615340Y-1745081D01*
X620725Y-1742998D01*
X625957Y-1740611D01*
X630986Y-1737868D01*
X635812Y-1734820D01*
X640435Y-1731467D01*
X644804Y-1727860D01*
X648970Y-1723948D01*
X652881Y-1719834D01*
X656488Y-1715414D01*
X659841Y-1710791D01*
X662889Y-1705965D01*
X665581Y-1700936D01*
X668020Y-1695704D01*
X670102Y-1690319D01*
X671830Y-1684731D01*
X673201Y-1679041D01*
X674166Y-1673199D01*
X674776Y-1667205D01*
X674979Y-1661109D01*
X674979Y-1643125D01*
X674776Y-1637080D01*
X674166Y-1631086D01*
X673201Y-1625244D01*
X671830Y-1619504D01*
X670102Y-1613966D01*
X668020Y-1608531D01*
X665581Y-1603298D01*
X662889Y-1598269D01*
X659841Y-1593443D01*
X656488Y-1588820D01*
X652881Y-1584452D01*
X648970Y-1580286D01*
X644804Y-1576425D01*
X640435Y-1572768D01*
X635812Y-1569466D01*
X630986Y-1566418D01*
X625957Y-1563674D01*
X620725Y-1561236D01*
X615340Y-1559153D01*
X609752Y-1557426D01*
X604012Y-1556054D01*
X598170Y-1555089D01*
X592226Y-1554480D01*
G37*
G36*
X689356Y-785977D02*
G01*
X683666Y-786079D01*
X678027Y-786536D01*
X672490Y-787247D01*
X667054Y-788212D01*
X661720Y-789432D01*
X656437Y-790905D01*
X646277Y-794664D01*
X641400Y-796848D01*
X636625Y-799287D01*
X627481Y-804824D01*
X618998Y-811225D01*
X611124Y-818337D01*
X603961Y-826211D01*
X597611Y-834745D01*
X594715Y-839216D01*
X589635Y-848614D01*
X587400Y-853541D01*
X585419Y-858570D01*
X583692Y-863701D01*
X580948Y-874318D01*
X579983Y-879754D01*
X579272Y-885291D01*
X578866Y-890879D01*
X578714Y-896518D01*
X631545Y-896518D01*
X638149Y-913231D01*
X740257Y-913231D01*
X747115Y-896518D01*
X761847Y-896518D01*
X761847Y-956970D01*
X747115Y-956970D01*
X740257Y-940460D01*
X638149Y-940460D01*
X631545Y-956970D01*
X616813Y-956970D01*
X616813Y-896518D01*
X578713Y-896569D01*
X578713Y-980795D01*
X761847Y-980795D01*
X761847Y-1015136D01*
X648817Y-1076045D01*
X648817Y-1076807D01*
X685749Y-1075334D01*
X761847Y-1075334D01*
X761847Y-1099921D01*
X616813Y-1099921D01*
X616813Y-1065631D01*
X730605Y-1004468D01*
X730605Y-1003655D01*
X703173Y-1005078D01*
X616813Y-1005179D01*
X616813Y-980795D01*
X578713Y-980795D01*
X578713Y-1099972D01*
X578866Y-1105712D01*
X579272Y-1111300D01*
X579983Y-1116838D01*
X580948Y-1122273D01*
X583692Y-1132890D01*
X585419Y-1138021D01*
X587400Y-1143050D01*
X592074Y-1152753D01*
X594715Y-1157376D01*
X600710Y-1166215D01*
X603961Y-1170381D01*
X611124Y-1178255D01*
X618998Y-1185367D01*
X627481Y-1191768D01*
X636625Y-1197305D01*
X641400Y-1199743D01*
X651306Y-1203909D01*
X656437Y-1205687D01*
X661720Y-1207160D01*
X667054Y-1208379D01*
X672490Y-1209344D01*
X678027Y-1210056D01*
X683666Y-1210513D01*
X689356Y-1210665D01*
X695045Y-1210513D01*
X700684Y-1210056D01*
X706221Y-1209344D01*
X711657Y-1208379D01*
X716991Y-1207160D01*
X722274Y-1205687D01*
X732434Y-1201928D01*
X737311Y-1199743D01*
X742086Y-1197305D01*
X751230Y-1191768D01*
X759714Y-1185367D01*
X767588Y-1178255D01*
X774750Y-1170381D01*
X781100Y-1161846D01*
X783996Y-1157376D01*
X789076Y-1147978D01*
X791311Y-1143050D01*
X793292Y-1138021D01*
X795020Y-1132890D01*
X797763Y-1122273D01*
X798728Y-1116838D01*
X799439Y-1111300D01*
X799846Y-1105712D01*
X799998Y-1099972D01*
X799998Y-896569D01*
X799846Y-890879D01*
X799439Y-885291D01*
X798728Y-879754D01*
X797763Y-874318D01*
X795020Y-863701D01*
X793292Y-858570D01*
X791311Y-853541D01*
X786638Y-843838D01*
X783996Y-839216D01*
X778002Y-830376D01*
X774750Y-826211D01*
X767588Y-818337D01*
X759714Y-811225D01*
X751230Y-804824D01*
X742086Y-799287D01*
X737311Y-796848D01*
X727405Y-792683D01*
X722274Y-790905D01*
X716991Y-789432D01*
X711657Y-788212D01*
X706221Y-787247D01*
X700684Y-786536D01*
X695045Y-786079D01*
G37*
G36*
X3300018Y-694588D02*
G01*
X3294329Y-694740D01*
X3288690Y-695147D01*
X3283153Y-695858D01*
X3277717Y-696823D01*
X3267100Y-699566D01*
X3261969Y-701294D01*
X3256940Y-703275D01*
X3247237Y-707948D01*
X3242614Y-710590D01*
X3233775Y-716584D01*
X3229610Y-719836D01*
X3221786Y-726998D01*
X3218078Y-730859D01*
X3211322Y-739038D01*
X3205378Y-747877D01*
X3202686Y-752500D01*
X3200247Y-757275D01*
X3196082Y-767181D01*
X3192830Y-777595D01*
X3191611Y-782929D01*
X3190646Y-788365D01*
X3189935Y-793902D01*
X3189478Y-799541D01*
X3189376Y-805230D01*
X3249371Y-805230D01*
X3249371Y-842822D01*
X3372561Y-842822D01*
X3372561Y-870254D01*
X3249371Y-870254D01*
X3249371Y-908100D01*
X3227527Y-908100D01*
X3227527Y-805230D01*
X3189376Y-805230D01*
X3189376Y-927404D01*
X3321253Y-927404D01*
X3328670Y-927811D01*
X3335629Y-928928D01*
X3342233Y-930808D01*
X3348431Y-933500D01*
X3354171Y-937056D01*
X3359251Y-941374D01*
X3363722Y-946454D01*
X3367481Y-952296D01*
X3370579Y-958900D01*
X3372815Y-966317D01*
X3374136Y-974547D01*
X3374593Y-983538D01*
X3374339Y-990092D01*
X3373628Y-996187D01*
X3372510Y-1001928D01*
X3370884Y-1007211D01*
X3368801Y-1012139D01*
X3366262Y-1016660D01*
X3363315Y-1020724D01*
X3359861Y-1024432D01*
X3356000Y-1027684D01*
X3351885Y-1030528D01*
X3347465Y-1032967D01*
X3342741Y-1034897D01*
X3337763Y-1036421D01*
X3332479Y-1037539D01*
X3326841Y-1038199D01*
X3320999Y-1038402D01*
X3227527Y-1038402D01*
X3227527Y-1011224D01*
X3318205Y-1011224D01*
X3326485Y-1010767D01*
X3333546Y-1009446D01*
X3339439Y-1007211D01*
X3344113Y-1004112D01*
X3347770Y-999998D01*
X3350361Y-995121D01*
X3351936Y-989330D01*
X3352495Y-982776D01*
X3352241Y-978052D01*
X3351529Y-973836D01*
X3350310Y-970076D01*
X3348685Y-966774D01*
X3346399Y-963930D01*
X3343706Y-961440D01*
X3340557Y-959358D01*
X3337001Y-957630D01*
X3332835Y-956411D01*
X3328365Y-955548D01*
X3323437Y-954989D01*
X3318205Y-954836D01*
X3227527Y-954836D01*
X3227527Y-927404D01*
X3189376Y-927404D01*
X3189376Y-1129842D01*
X3225241Y-1129842D01*
X3225342Y-1124458D01*
X3225800Y-1119276D01*
X3226511Y-1114399D01*
X3227527Y-1109726D01*
X3228797Y-1105306D01*
X3230372Y-1101140D01*
X3232200Y-1097178D01*
X3234385Y-1093520D01*
X3239516Y-1086866D01*
X3245612Y-1081125D01*
X3252622Y-1076350D01*
X3260547Y-1072438D01*
X3264814Y-1070762D01*
X3273907Y-1068120D01*
X3278733Y-1067104D01*
X3288944Y-1065784D01*
X3294329Y-1065428D01*
X3299917Y-1065326D01*
X3308096Y-1065580D01*
X3315919Y-1066342D01*
X3323336Y-1067612D01*
X3330397Y-1069390D01*
X3337001Y-1071524D01*
X3343148Y-1074216D01*
X3348786Y-1077366D01*
X3354019Y-1081074D01*
X3358642Y-1085392D01*
X3362756Y-1090218D01*
X3366262Y-1095552D01*
X3369259Y-1101394D01*
X3371596Y-1107744D01*
X3373221Y-1114602D01*
X3374237Y-1121968D01*
X3374593Y-1129842D01*
X3374237Y-1137920D01*
X3373221Y-1145489D01*
X3371596Y-1152398D01*
X3369259Y-1158798D01*
X3366262Y-1164640D01*
X3362756Y-1169924D01*
X3358642Y-1174648D01*
X3354019Y-1178864D01*
X3348786Y-1182573D01*
X3343148Y-1185773D01*
X3337001Y-1188516D01*
X3330397Y-1190802D01*
X3323234Y-1192580D01*
X3315715Y-1193850D01*
X3307842Y-1194612D01*
X3299663Y-1194866D01*
X3294075Y-1194765D01*
X3283508Y-1193850D01*
X3278479Y-1193088D01*
X3269030Y-1190853D01*
X3264560Y-1189431D01*
X3260293Y-1187754D01*
X3252470Y-1183741D01*
X3245561Y-1178864D01*
X3239516Y-1173073D01*
X3234385Y-1166418D01*
X3232200Y-1162659D01*
X3230372Y-1158697D01*
X3228797Y-1154480D01*
X3227527Y-1150061D01*
X3226511Y-1145336D01*
X3225800Y-1140409D01*
X3225342Y-1135227D01*
X3225241Y-1129842D01*
X3189376Y-1129842D01*
X3189478Y-1200454D01*
X3189935Y-1206093D01*
X3190646Y-1211630D01*
X3191611Y-1217066D01*
X3192830Y-1222400D01*
X3196082Y-1232814D01*
X3200247Y-1242720D01*
X3202686Y-1247495D01*
X3208274Y-1256639D01*
X3211322Y-1260957D01*
X3218078Y-1269136D01*
X3225596Y-1276654D01*
X3229610Y-1280160D01*
X3238144Y-1286510D01*
X3242614Y-1289405D01*
X3252012Y-1294485D01*
X3256940Y-1296720D01*
X3261969Y-1298702D01*
X3267100Y-1300429D01*
X3277717Y-1303172D01*
X3283153Y-1304137D01*
X3288690Y-1304848D01*
X3294329Y-1305255D01*
X3300018Y-1305407D01*
X3305708Y-1305255D01*
X3311296Y-1304848D01*
X3316833Y-1304137D01*
X3322320Y-1303172D01*
X3332886Y-1300429D01*
X3338017Y-1298702D01*
X3343046Y-1296720D01*
X3352749Y-1292047D01*
X3357372Y-1289405D01*
X3366211Y-1283411D01*
X3370376Y-1280160D01*
X3378250Y-1272997D01*
X3385362Y-1265123D01*
X3391763Y-1256639D01*
X3397300Y-1247495D01*
X3399739Y-1242720D01*
X3403904Y-1232814D01*
X3405682Y-1227683D01*
X3407156Y-1222400D01*
X3409391Y-1211630D01*
X3410508Y-1200454D01*
X3410661Y-1194765D01*
X3410661Y-805230D01*
X3410508Y-799541D01*
X3409391Y-788365D01*
X3407156Y-777595D01*
X3405682Y-772312D01*
X3401923Y-762152D01*
X3399739Y-757275D01*
X3397300Y-752500D01*
X3391763Y-743356D01*
X3385362Y-734872D01*
X3378250Y-726998D01*
X3370376Y-719836D01*
X3361842Y-713486D01*
X3357372Y-710590D01*
X3347974Y-705510D01*
X3343046Y-703275D01*
X3338017Y-701294D01*
X3332886Y-699566D01*
X3322320Y-696823D01*
X3316833Y-695858D01*
X3311296Y-695147D01*
X3305708Y-694740D01*
G37*
G36*
X3299917Y-1094282D02*
G01*
X3288233Y-1094790D01*
X3277920Y-1096314D01*
X3273247Y-1097483D01*
X3268929Y-1098854D01*
X3264966Y-1100531D01*
X3261309Y-1102410D01*
X3255060Y-1107287D01*
X3250641Y-1113485D01*
X3247948Y-1121003D01*
X3247085Y-1129842D01*
X3247440Y-1135888D01*
X3248660Y-1141374D01*
X3250641Y-1146302D01*
X3253435Y-1150670D01*
X3256940Y-1154379D01*
X3261106Y-1157528D01*
X3265932Y-1160221D01*
X3271469Y-1162354D01*
X3277717Y-1163929D01*
X3284524Y-1164996D01*
X3291941Y-1165707D01*
X3299917Y-1165910D01*
X3307740Y-1165707D01*
X3315055Y-1164996D01*
X3321862Y-1163929D01*
X3328111Y-1162354D01*
X3333597Y-1160221D01*
X3338423Y-1157528D01*
X3342640Y-1154379D01*
X3346145Y-1150670D01*
X3348888Y-1146302D01*
X3350869Y-1141374D01*
X3352088Y-1135888D01*
X3352495Y-1129842D01*
X3352088Y-1123899D01*
X3350869Y-1118514D01*
X3348888Y-1113739D01*
X3346145Y-1109522D01*
X3342640Y-1105763D01*
X3338423Y-1102563D01*
X3333597Y-1099921D01*
X3328111Y-1097838D01*
X3321862Y-1096264D01*
X3315055Y-1095197D01*
X3307740Y-1094486D01*
G37*
G36*
X2498801Y-1449984D02*
G01*
X2493060Y-1450187D01*
X2487371Y-1450746D01*
X2481834Y-1451711D01*
X2476398Y-1453032D01*
X2471115Y-1454658D01*
X2465984Y-1456639D01*
X2461006Y-1458925D01*
X2456230Y-1461516D01*
X2451658Y-1464411D01*
X2447290Y-1467561D01*
X2443124Y-1471015D01*
X2439162Y-1474724D01*
X2435504Y-1478635D01*
X2432050Y-1482801D01*
X2427500Y-1489405D01*
X2573985Y-1489405D01*
X2578963Y-1485239D01*
X2584145Y-1481531D01*
X2589936Y-1478330D01*
X2596591Y-1475943D01*
X2600198Y-1474927D01*
X2604109Y-1474216D01*
X2608326Y-1473809D01*
X2612847Y-1473657D01*
X2618028Y-1473911D01*
X2622804Y-1474673D01*
X2627274Y-1475943D01*
X2631389Y-1477721D01*
X2635097Y-1479956D01*
X2638348Y-1482547D01*
X2641092Y-1485493D01*
X2643327Y-1488897D01*
X2645206Y-1492605D01*
X2646578Y-1496568D01*
X2647391Y-1500835D01*
X2647546Y-1503629D01*
X2667203Y-1503629D01*
X2701493Y-1475435D01*
X2920949Y-1475435D01*
X2943047Y-1553006D01*
X2946603Y-1567180D01*
X2947619Y-1573479D01*
X2949143Y-1564843D01*
X2953461Y-1547571D01*
X2974035Y-1475435D01*
X2997657Y-1475435D01*
X2959811Y-1593291D01*
X2998927Y-1593291D01*
X3040075Y-1475435D01*
X3096971Y-1475435D01*
X3096971Y-1530807D01*
X3109671Y-1513789D01*
X3137357Y-1475435D01*
X3162249Y-1475435D01*
X3123133Y-1527251D01*
X3162757Y-1593291D01*
X3137357Y-1593291D01*
X3107131Y-1541221D01*
X3096971Y-1549857D01*
X3096971Y-1593291D01*
X3074873Y-1593291D01*
X3074873Y-1475435D01*
X3060141Y-1475435D01*
X3018993Y-1593291D01*
X2935173Y-1593291D01*
X2897327Y-1475435D01*
X2720289Y-1475435D01*
X2720289Y-1593291D01*
X2758643Y-1593291D01*
X2758643Y-1503883D01*
X2775407Y-1503883D01*
X2778455Y-1515567D01*
X2779471Y-1515567D01*
X2782366Y-1511350D01*
X2785821Y-1507947D01*
X2789834Y-1505305D01*
X2791968Y-1504340D01*
X2796641Y-1502968D01*
X2801721Y-1502206D01*
X2804363Y-1502105D01*
X2808884Y-1502308D01*
X2812999Y-1502968D01*
X2816758Y-1504086D01*
X2820111Y-1505661D01*
X2823108Y-1507540D01*
X2825800Y-1509928D01*
X2828086Y-1512722D01*
X2830017Y-1516075D01*
X2831287Y-1516075D01*
X2833522Y-1512620D01*
X2836062Y-1509725D01*
X2838958Y-1507286D01*
X2842209Y-1505407D01*
X2845714Y-1503934D01*
X2849270Y-1502918D01*
X2852928Y-1502308D01*
X2856687Y-1502105D01*
X2863494Y-1502562D01*
X2869387Y-1504035D01*
X2874416Y-1506524D01*
X2878531Y-1509979D01*
X2881782Y-1514398D01*
X2884068Y-1520088D01*
X2885440Y-1526946D01*
X2885897Y-1535125D01*
X2885897Y-1593291D01*
X2864307Y-1593291D01*
X2864307Y-1538935D01*
X2864104Y-1534261D01*
X2863494Y-1530197D01*
X2862478Y-1526794D01*
X2861005Y-1523949D01*
X2859125Y-1521714D01*
X2856788Y-1520139D01*
X2853944Y-1519174D01*
X2850591Y-1518869D01*
X2846222Y-1519275D01*
X2842514Y-1520647D01*
X2839516Y-1522831D01*
X2837129Y-1525981D01*
X2835351Y-1529943D01*
X2834081Y-1534718D01*
X2833319Y-1540357D01*
X2833065Y-1546809D01*
X2833065Y-1593291D01*
X2811475Y-1593291D01*
X2811373Y-1535785D01*
X2811119Y-1532890D01*
X2809951Y-1528013D01*
X2808071Y-1524000D01*
X2806801Y-1522425D01*
X2805379Y-1521155D01*
X2803855Y-1520139D01*
X2802077Y-1519428D01*
X2800045Y-1519021D01*
X2797759Y-1518869D01*
X2794660Y-1519072D01*
X2791866Y-1519732D01*
X2789428Y-1520850D01*
X2787345Y-1522425D01*
X2785618Y-1524406D01*
X2784094Y-1526794D01*
X2782925Y-1529588D01*
X2782011Y-1532839D01*
X2781350Y-1536446D01*
X2780588Y-1544828D01*
X2780487Y-1593291D01*
X2698445Y-1593291D01*
X2698546Y-1510436D01*
X2698953Y-1497533D01*
X2693009Y-1503832D01*
X2678379Y-1516583D01*
X2667203Y-1503629D01*
X2647546Y-1503629D01*
X2647543Y-1509014D01*
X2646527Y-1515719D01*
X2644495Y-1521866D01*
X2643174Y-1524914D01*
X2639771Y-1530807D01*
X2635351Y-1536903D01*
X2624429Y-1549603D01*
X2601925Y-1574241D01*
X2601925Y-1575257D01*
X2650947Y-1575257D01*
X2650947Y-1593291D01*
X2574239Y-1593291D01*
X2574239Y-1578051D01*
X2606192Y-1543151D01*
X2612898Y-1535430D01*
X2618028Y-1528826D01*
X2621838Y-1522730D01*
X2623261Y-1519885D01*
X2624277Y-1516989D01*
X2624988Y-1514043D01*
X2625394Y-1510893D01*
X2625547Y-1507693D01*
X2625293Y-1503883D01*
X2624531Y-1500581D01*
X2623261Y-1497787D01*
X2621483Y-1495501D01*
X2619298Y-1493723D01*
X2616809Y-1492453D01*
X2613964Y-1491691D01*
X2610815Y-1491437D01*
X2607564Y-1491640D01*
X2604414Y-1492199D01*
X2601366Y-1493113D01*
X2598369Y-1494485D01*
X2592425Y-1498142D01*
X2586177Y-1503121D01*
X2573985Y-1489405D01*
X2427500Y-1489405D01*
X2423414Y-1496568D01*
X2421077Y-1501495D01*
X2419146Y-1506626D01*
X2417470Y-1511909D01*
X2416200Y-1517345D01*
X2415235Y-1522882D01*
X2414676Y-1528572D01*
X2414473Y-1534363D01*
X2414676Y-1540103D01*
X2415589Y-1547825D01*
X2486101Y-1547825D01*
X2486101Y-1531315D01*
X2488082Y-1529283D01*
X2490165Y-1527505D01*
X2492400Y-1525981D01*
X2494737Y-1524711D01*
X2497226Y-1523695D01*
X2499817Y-1522984D01*
X2502560Y-1522577D01*
X2507691Y-1522476D01*
X2512263Y-1522984D01*
X2517038Y-1524101D01*
X2522982Y-1526235D01*
X2529179Y-1528927D01*
X2536139Y-1531315D01*
X2540050Y-1531874D01*
X2543505Y-1532077D01*
X2545689Y-1531874D01*
X2547975Y-1531366D01*
X2550261Y-1530502D01*
X2555036Y-1527810D01*
X2559354Y-1524355D01*
X2561285Y-1522425D01*
X2561285Y-1538681D01*
X2559354Y-1540713D01*
X2555036Y-1544015D01*
X2550109Y-1546402D01*
X2547467Y-1547164D01*
X2544775Y-1547672D01*
X2539695Y-1547774D01*
X2535123Y-1547266D01*
X2530398Y-1546148D01*
X2524404Y-1543964D01*
X2518206Y-1541221D01*
X2513380Y-1539443D01*
X2509367Y-1538478D01*
X2505710Y-1537970D01*
X2501696Y-1538071D01*
X2499461Y-1538630D01*
X2497124Y-1539494D01*
X2492400Y-1542186D01*
X2488082Y-1545742D01*
X2486101Y-1547825D01*
X2415589Y-1547825D01*
X2417470Y-1556766D01*
X2419146Y-1562049D01*
X2421077Y-1567180D01*
X2423414Y-1572107D01*
X2426004Y-1576882D01*
X2428900Y-1581505D01*
X2432050Y-1585874D01*
X2435504Y-1590040D01*
X2439162Y-1593951D01*
X2443124Y-1597660D01*
X2447290Y-1601114D01*
X2451658Y-1604264D01*
X2456230Y-1607159D01*
X2461006Y-1609750D01*
X2465984Y-1612036D01*
X2471115Y-1614017D01*
X2476398Y-1615643D01*
X2481834Y-1616964D01*
X2487371Y-1617929D01*
X2493060Y-1618488D01*
X2498801Y-1618691D01*
X3150006Y-1618691D01*
X3155746Y-1618488D01*
X3161436Y-1617929D01*
X3166973Y-1616964D01*
X3172409Y-1615643D01*
X3177692Y-1614017D01*
X3182823Y-1612036D01*
X3187801Y-1609750D01*
X3192576Y-1607159D01*
X3197148Y-1604264D01*
X3201517Y-1601114D01*
X3205683Y-1597660D01*
X3209645Y-1593951D01*
X3213303Y-1590040D01*
X3216757Y-1585874D01*
X3219907Y-1581505D01*
X3222802Y-1576882D01*
X3225393Y-1572107D01*
X3227730Y-1567180D01*
X3229660Y-1562049D01*
X3231337Y-1556766D01*
X3232607Y-1551330D01*
X3233572Y-1545793D01*
X3234131Y-1540103D01*
X3234334Y-1534363D01*
X3234131Y-1528572D01*
X3233572Y-1522882D01*
X3232607Y-1517345D01*
X3231337Y-1511909D01*
X3229660Y-1506626D01*
X3227730Y-1501495D01*
X3225393Y-1496568D01*
X3222802Y-1491792D01*
X3219907Y-1487170D01*
X3216757Y-1482801D01*
X3213303Y-1478635D01*
X3209645Y-1474724D01*
X3205683Y-1471015D01*
X3201517Y-1467561D01*
X3197148Y-1464411D01*
X3192576Y-1461516D01*
X3187801Y-1458925D01*
X3182823Y-1456639D01*
X3177692Y-1454658D01*
X3172409Y-1453032D01*
X3166973Y-1451711D01*
X3161436Y-1450746D01*
X3155746Y-1450187D01*
X3150006Y-1449984D01*
G37*
G36*
X1251204Y-1223822D02*
G01*
X1248816Y-1226210D01*
X1248816Y-1242822D01*
X1246428Y-1245209D01*
X1229766Y-1245209D01*
X1227378Y-1247648D01*
X1227378Y-1264259D01*
X1224991Y-1266647D01*
X1208328Y-1266647D01*
X1205941Y-1269034D01*
X1205941Y-1307134D01*
X1203553Y-1309522D01*
X1186891Y-1309522D01*
X1184503Y-1311910D01*
X1184503Y-1395222D01*
X1165504Y-1395222D01*
X1163066Y-1392834D01*
X1163066Y-1333347D01*
X1160678Y-1330960D01*
X1101191Y-1330960D01*
X1098804Y-1333347D01*
X1098804Y-1350162D01*
X1096568Y-1354074D01*
X1079550Y-1354582D01*
X1079042Y-1371600D01*
X1077366Y-1375867D01*
X1077366Y-1392834D01*
X1074978Y-1395222D01*
X1058316Y-1395222D01*
X1055928Y-1397609D01*
X1055928Y-1414272D01*
X1184503Y-1414272D01*
X1184503Y-1395222D01*
X1224991Y-1395222D01*
X1227378Y-1392834D01*
X1227378Y-1333347D01*
X1229766Y-1330960D01*
X1246428Y-1330960D01*
X1248816Y-1328572D01*
X1248816Y-1311910D01*
X1251204Y-1309522D01*
X1267815Y-1309522D01*
X1270254Y-1311910D01*
X1270254Y-1328572D01*
X1272641Y-1330960D01*
X1289253Y-1330960D01*
X1291640Y-1333347D01*
X1291640Y-1371396D01*
X1294028Y-1373784D01*
X1334516Y-1373784D01*
X1334516Y-1354785D01*
X1336903Y-1352397D01*
X1355953Y-1352397D01*
X1355953Y-1371396D01*
X1353566Y-1373784D01*
X1334516Y-1373784D01*
X1334516Y-1414272D01*
X1332128Y-1416659D01*
X1315466Y-1416659D01*
X1313078Y-1419047D01*
X1313078Y-1478534D01*
X1310690Y-1480921D01*
X1272641Y-1480921D01*
X1270254Y-1478534D01*
X1270254Y-1461922D01*
X1267815Y-1459534D01*
X1251204Y-1459534D01*
X1248816Y-1457147D01*
X1248816Y-1440484D01*
X1246428Y-1438097D01*
X1208328Y-1438097D01*
X1205941Y-1435709D01*
X1205941Y-1419047D01*
X1203553Y-1416659D01*
X1186891Y-1416659D01*
X1184503Y-1414272D01*
X1055928Y-1414272D01*
X1055928Y-1457147D01*
X1058316Y-1459534D01*
X1074978Y-1459534D01*
X1077366Y-1461922D01*
X1077366Y-1499971D01*
X1079754Y-1502359D01*
X1096416Y-1502359D01*
X1098804Y-1504746D01*
X1098804Y-1523796D01*
X1079754Y-1523796D01*
X1077366Y-1526184D01*
X1077366Y-1542846D01*
X1074978Y-1545234D01*
X1058316Y-1545234D01*
X1055928Y-1547622D01*
X1055928Y-1564284D01*
X1053541Y-1566672D01*
X1036929Y-1566672D01*
X1034491Y-1569059D01*
X1034491Y-1607108D01*
X1032103Y-1609496D01*
X1015492Y-1609496D01*
X1013104Y-1611884D01*
X1013104Y-1649984D01*
X1010716Y-1652371D01*
X994054Y-1652371D01*
X991666Y-1654759D01*
X991666Y-1671421D01*
X989279Y-1673809D01*
X972616Y-1673809D01*
X970229Y-1676196D01*
X970229Y-1714246D01*
X967841Y-1716684D01*
X961898Y-1716684D01*
X959510Y-1719072D01*
X959510Y-1757121D01*
X961898Y-1759508D01*
X1182116Y-1759508D01*
X1184503Y-1757121D01*
X1184503Y-1719072D01*
X1182116Y-1716684D01*
X1036929Y-1716684D01*
X1034491Y-1714246D01*
X1034491Y-1697634D01*
X1036929Y-1695246D01*
X1053541Y-1695246D01*
X1055928Y-1692859D01*
X1055928Y-1633321D01*
X1058316Y-1630933D01*
X1074978Y-1630933D01*
X1077366Y-1628546D01*
X1077366Y-1590497D01*
X1079754Y-1588109D01*
X1096416Y-1588109D01*
X1098804Y-1585722D01*
X1098804Y-1569059D01*
X1101191Y-1566672D01*
X1117854Y-1566672D01*
X1120241Y-1564284D01*
X1120241Y-1547622D01*
X1117854Y-1545234D01*
X1101191Y-1545234D01*
X1098804Y-1542846D01*
X1098804Y-1523796D01*
X1139291Y-1523796D01*
X1141679Y-1526184D01*
X1141679Y-1607108D01*
X1144066Y-1609496D01*
X1160678Y-1609496D01*
X1163066Y-1611884D01*
X1163066Y-1628546D01*
X1165504Y-1630933D01*
X1182116Y-1630933D01*
X1184503Y-1633321D01*
X1184503Y-1649984D01*
X1313078Y-1649984D01*
X1313078Y-1611884D01*
X1315466Y-1609496D01*
X1353566Y-1609496D01*
X1355953Y-1607108D01*
X1355953Y-1547622D01*
X1358341Y-1545234D01*
X1375003Y-1545234D01*
X1377391Y-1542846D01*
X1377391Y-1526184D01*
X1379778Y-1523796D01*
X1398778Y-1523796D01*
X1398778Y-1564284D01*
X1401216Y-1566672D01*
X1417828Y-1566672D01*
X1420215Y-1569059D01*
X1420215Y-1585722D01*
X1422603Y-1588109D01*
X1439265Y-1588109D01*
X1441653Y-1590497D01*
X1441653Y-1628546D01*
X1444040Y-1630933D01*
X1460703Y-1630933D01*
X1463090Y-1633321D01*
X1463090Y-1671421D01*
X1465478Y-1673809D01*
X1482140Y-1673809D01*
X1484528Y-1676196D01*
X1484528Y-1692859D01*
X1486916Y-1695246D01*
X1503578Y-1695246D01*
X1505966Y-1697634D01*
X1505966Y-1714246D01*
X1503578Y-1716684D01*
X1379778Y-1716684D01*
X1377391Y-1719072D01*
X1377391Y-1735683D01*
X1375003Y-1738071D01*
X1355953Y-1738071D01*
X1355953Y-1654759D01*
X1353566Y-1652371D01*
X1315466Y-1652371D01*
X1313078Y-1649984D01*
X1184503Y-1649984D01*
X1186891Y-1652371D01*
X1203553Y-1652371D01*
X1205839Y-1654657D01*
X1206195Y-1777949D01*
X1208532Y-1780438D01*
X1225346Y-1780438D01*
X1227378Y-1783283D01*
X1227378Y-1799996D01*
X1229766Y-1802384D01*
X1332128Y-1802384D01*
X1334516Y-1799996D01*
X1334516Y-1740458D01*
X1336903Y-1738071D01*
X1355953Y-1738071D01*
X1355953Y-1757121D01*
X1358341Y-1759508D01*
X1557121Y-1759508D01*
X1559509Y-1757121D01*
X1559509Y-1719072D01*
X1557121Y-1716684D01*
X1551178Y-1716684D01*
X1548790Y-1714246D01*
X1548790Y-1676196D01*
X1546402Y-1673809D01*
X1529740Y-1673809D01*
X1527352Y-1671421D01*
X1527352Y-1633321D01*
X1524965Y-1630933D01*
X1508353Y-1630933D01*
X1505966Y-1628546D01*
X1505966Y-1611884D01*
X1503578Y-1609496D01*
X1486916Y-1609496D01*
X1484528Y-1607108D01*
X1484528Y-1569059D01*
X1482140Y-1566672D01*
X1465478Y-1566672D01*
X1463090Y-1564284D01*
X1463090Y-1526184D01*
X1460703Y-1523796D01*
X1444040Y-1523796D01*
X1441653Y-1521409D01*
X1441653Y-1483360D01*
X1439265Y-1480921D01*
X1422603Y-1480921D01*
X1420215Y-1483360D01*
X1420215Y-1521409D01*
X1417828Y-1523796D01*
X1398778Y-1523796D01*
X1398778Y-1440180D01*
X1401216Y-1435404D01*
X1401216Y-1419098D01*
X1418031Y-1418844D01*
X1420215Y-1414526D01*
X1420215Y-1397609D01*
X1422603Y-1395222D01*
X1439519Y-1395222D01*
X1443837Y-1393037D01*
X1444142Y-1376273D01*
X1460906Y-1376019D01*
X1463090Y-1371650D01*
X1463090Y-1333347D01*
X1460703Y-1330960D01*
X1401013Y-1330960D01*
X1397101Y-1333144D01*
X1396593Y-1350162D01*
X1379575Y-1350670D01*
X1375308Y-1352397D01*
X1355953Y-1352397D01*
X1355953Y-1333347D01*
X1353566Y-1330960D01*
X1336903Y-1330960D01*
X1334516Y-1328572D01*
X1334516Y-1311910D01*
X1332128Y-1309522D01*
X1315466Y-1309522D01*
X1313078Y-1307134D01*
X1313078Y-1269034D01*
X1310690Y-1266647D01*
X1294028Y-1266647D01*
X1291640Y-1264259D01*
X1291640Y-1247648D01*
X1289253Y-1245209D01*
X1272641Y-1245209D01*
X1270254Y-1242822D01*
X1270254Y-1226210D01*
X1267815Y-1223822D01*
G37*
G36*
X3088995Y-1669440D02*
G01*
X3075127Y-1671421D01*
X3064357Y-1677314D01*
X3056483Y-1687118D01*
X3051149Y-1700174D01*
X3048101Y-1716430D01*
X3047085Y-1735734D01*
X3070961Y-1735734D01*
X3071418Y-1721154D01*
X3072739Y-1709318D01*
X3073654Y-1704441D01*
X3074924Y-1700174D01*
X3076448Y-1696567D01*
X3078327Y-1693570D01*
X3080461Y-1691233D01*
X3082899Y-1689557D01*
X3085795Y-1688592D01*
X3088995Y-1688236D01*
X3092145Y-1688592D01*
X3094888Y-1689607D01*
X3097326Y-1691233D01*
X3099409Y-1693570D01*
X3101289Y-1696567D01*
X3102914Y-1700174D01*
X3104235Y-1704441D01*
X3105251Y-1709318D01*
X3106420Y-1721256D01*
X3106775Y-1735734D01*
X3106420Y-1750161D01*
X3105251Y-1761896D01*
X3104235Y-1766925D01*
X3102914Y-1771243D01*
X3101289Y-1774901D01*
X3099409Y-1777898D01*
X3097326Y-1780133D01*
X3094888Y-1781708D01*
X3092145Y-1782673D01*
X3088995Y-1782978D01*
X3085744Y-1782673D01*
X3082899Y-1781657D01*
X3080461Y-1779981D01*
X3078327Y-1777644D01*
X3076448Y-1774748D01*
X3074924Y-1771192D01*
X3073654Y-1766874D01*
X3072739Y-1761896D01*
X3071418Y-1750161D01*
X3070961Y-1735734D01*
X3047085Y-1735734D01*
X3048254Y-1754835D01*
X3051657Y-1771040D01*
X3057194Y-1784248D01*
X3065119Y-1793900D01*
X3075787Y-1799793D01*
X3088995Y-1801774D01*
X3094532Y-1801520D01*
X3099612Y-1800656D01*
X3104286Y-1799234D01*
X3108553Y-1797202D01*
X3112312Y-1794764D01*
X3115716Y-1791817D01*
X3118815Y-1788312D01*
X3121507Y-1784248D01*
X3123793Y-1779727D01*
X3125724Y-1774748D01*
X3127349Y-1769313D01*
X3128619Y-1763420D01*
X3130346Y-1750364D01*
X3130905Y-1735480D01*
X3129788Y-1716328D01*
X3126333Y-1699920D01*
X3120542Y-1686915D01*
X3112363Y-1677314D01*
X3101949Y-1671421D01*
G37*
G36*
X2564993Y-1671472D02*
G01*
X2564993Y-1690776D01*
X2603703Y-1690878D01*
X2610408Y-1691792D01*
X2613253Y-1692554D01*
X2615641Y-1693722D01*
X2617724Y-1695094D01*
X2619451Y-1696770D01*
X2620873Y-1698650D01*
X2621991Y-1700987D01*
X2622804Y-1703679D01*
X2623261Y-1706727D01*
X2623413Y-1710080D01*
X2623261Y-1713280D01*
X2622804Y-1716176D01*
X2621991Y-1718868D01*
X2620873Y-1721256D01*
X2619451Y-1723288D01*
X2617724Y-1725066D01*
X2615641Y-1726590D01*
X2613253Y-1727860D01*
X2610561Y-1728978D01*
X2607513Y-1729790D01*
X2604058Y-1730248D01*
X2589123Y-1730400D01*
X2589123Y-1690776D01*
X2564993Y-1690776D01*
X2564993Y-1799996D01*
X2589123Y-1799996D01*
X2589123Y-1749196D01*
X2604871Y-1749196D01*
X2632811Y-1799996D01*
X2660243Y-1799996D01*
X2625699Y-1743354D01*
X2628696Y-1741982D01*
X2634132Y-1738426D01*
X2639060Y-1733956D01*
X2641193Y-1731365D01*
X2643124Y-1728470D01*
X2644749Y-1725320D01*
X2646070Y-1721866D01*
X2647035Y-1718005D01*
X2647645Y-1713839D01*
X2647797Y-1709318D01*
X2647492Y-1703171D01*
X2646527Y-1697583D01*
X2644952Y-1692605D01*
X2642717Y-1688236D01*
X2639872Y-1684324D01*
X2636316Y-1680870D01*
X2632100Y-1677974D01*
X2627223Y-1675536D01*
X2615539Y-1672488D01*
X2600807Y-1671472D01*
G37*
G36*
X2943707Y-1671472D02*
G01*
X2906115Y-1702206D01*
X2918561Y-1716176D01*
X2933141Y-1703578D01*
X2940659Y-1695602D01*
X2940151Y-1719986D01*
X2940151Y-1799996D01*
X2964281Y-1799996D01*
X2964281Y-1671472D01*
G37*
G36*
X2711551Y-1700682D02*
G01*
X2705404Y-1701038D01*
X2699562Y-1702155D01*
X2694076Y-1703984D01*
X2688945Y-1706524D01*
X2684373Y-1709826D01*
X2680309Y-1713788D01*
X2676753Y-1718462D01*
X2673705Y-1723796D01*
X2669692Y-1736598D01*
X2669352Y-1740560D01*
X2693009Y-1740560D01*
X2693771Y-1735226D01*
X2695041Y-1730552D01*
X2696819Y-1726590D01*
X2699105Y-1723288D01*
X2701848Y-1720748D01*
X2704896Y-1718919D01*
X2708300Y-1717802D01*
X2712059Y-1717446D01*
X2714904Y-1717649D01*
X2717495Y-1718157D01*
X2719832Y-1719021D01*
X2721965Y-1720240D01*
X2723794Y-1721916D01*
X2725369Y-1723898D01*
X2726690Y-1726133D01*
X2728722Y-1731264D01*
X2729738Y-1737258D01*
X2729839Y-1740560D01*
X2669352Y-1740560D01*
X2668371Y-1751990D01*
X2669895Y-1767179D01*
X2674467Y-1779676D01*
X2677668Y-1784908D01*
X2681478Y-1789379D01*
X2685796Y-1793189D01*
X2690723Y-1796186D01*
X2702153Y-1800402D01*
X2715107Y-1801774D01*
X2724962Y-1801418D01*
X2733141Y-1800250D01*
X2740406Y-1798116D01*
X2747365Y-1795170D01*
X2747365Y-1776882D01*
X2740050Y-1780082D01*
X2732887Y-1782470D01*
X2729230Y-1783283D01*
X2721254Y-1784146D01*
X2716885Y-1784248D01*
X2711500Y-1783842D01*
X2706827Y-1782470D01*
X2702763Y-1780235D01*
X2699359Y-1777136D01*
X2696565Y-1773072D01*
X2694533Y-1768246D01*
X2693263Y-1762658D01*
X2692755Y-1756308D01*
X2752445Y-1756308D01*
X2752445Y-1744878D01*
X2752140Y-1738172D01*
X2751175Y-1731924D01*
X2749600Y-1726234D01*
X2747365Y-1721002D01*
X2744622Y-1716481D01*
X2741320Y-1712417D01*
X2737612Y-1708962D01*
X2733395Y-1706016D01*
X2728620Y-1703679D01*
X2723388Y-1702003D01*
X2717698Y-1701038D01*
G37*
G36*
X2756509Y-1702460D02*
G01*
X2791815Y-1799996D01*
X2816453Y-1799996D01*
X2851505Y-1702460D01*
X2826359Y-1702460D01*
X2807309Y-1764233D01*
X2805430Y-1772107D01*
X2804261Y-1780946D01*
X2803499Y-1780946D01*
X2803347Y-1777746D01*
X2800350Y-1762353D01*
X2781655Y-1702460D01*
G37*
G36*
X3016605Y-1774596D02*
G01*
X3013811Y-1774799D01*
X3011220Y-1775358D01*
X3008833Y-1776323D01*
X3006699Y-1777644D01*
X3004921Y-1779473D01*
X3003651Y-1781911D01*
X3002889Y-1784959D01*
X3002635Y-1788566D01*
X3002889Y-1791970D01*
X3003651Y-1794865D01*
X3004921Y-1797202D01*
X3006699Y-1798980D01*
X3008833Y-1800453D01*
X3011220Y-1801469D01*
X3013811Y-1802079D01*
X3016605Y-1802282D01*
X3019298Y-1802079D01*
X3021838Y-1801469D01*
X3024124Y-1800453D01*
X3026257Y-1798980D01*
X3028035Y-1797202D01*
X3029305Y-1794865D01*
X3030067Y-1791970D01*
X3030321Y-1788566D01*
X3030067Y-1784959D01*
X3029305Y-1781911D01*
X3028035Y-1779473D01*
X3026257Y-1777644D01*
X3024124Y-1776323D01*
X3021838Y-1775358D01*
X3019298Y-1774799D01*
G37*
G36*
X3023514Y-1230782D02*
G01*
X3018688Y-1230985D01*
X3014116Y-1231646D01*
X3009798Y-1232763D01*
X3005734Y-1234338D01*
X3002076Y-1236268D01*
X2998673Y-1238554D01*
X2995574Y-1241247D01*
X2992780Y-1244244D01*
X2990291Y-1247546D01*
X2988106Y-1251204D01*
X2986227Y-1255166D01*
X2984652Y-1259484D01*
X2983433Y-1263904D01*
X2982569Y-1268526D01*
X2982061Y-1273403D01*
X2981858Y-1278534D01*
X2982925Y-1292047D01*
X2986176Y-1303680D01*
X2988614Y-1308811D01*
X2991662Y-1313332D01*
X2995218Y-1317193D01*
X2999384Y-1320444D01*
X3004159Y-1322984D01*
X3009493Y-1324813D01*
X3015437Y-1325880D01*
X3021990Y-1326286D01*
X3028594Y-1326032D01*
X3034690Y-1325270D01*
X3040227Y-1323898D01*
X3045612Y-1321968D01*
X3045612Y-1307744D01*
X3040075Y-1309573D01*
X3034690Y-1311046D01*
X3029305Y-1311960D01*
X3023768Y-1312316D01*
X3020009Y-1312062D01*
X3016554Y-1311300D01*
X3013405Y-1310030D01*
X3010560Y-1308252D01*
X3008071Y-1306017D01*
X3005886Y-1303324D01*
X3004007Y-1300276D01*
X3002432Y-1296822D01*
X3001314Y-1292809D01*
X3000552Y-1288491D01*
X3000044Y-1283817D01*
X2999994Y-1274927D01*
X3000756Y-1267968D01*
X3001416Y-1264818D01*
X3003499Y-1258976D01*
X3006242Y-1254150D01*
X3007868Y-1251966D01*
X3009595Y-1250137D01*
X3011525Y-1248562D01*
X3013608Y-1247292D01*
X3015843Y-1246276D01*
X3018231Y-1245565D01*
X3020822Y-1245108D01*
X3026156Y-1245108D01*
X3028797Y-1245412D01*
X3031388Y-1245971D01*
X3036316Y-1247648D01*
X3043326Y-1250594D01*
X3049168Y-1237132D01*
X3043478Y-1234440D01*
X3036976Y-1232560D01*
X3030169Y-1231188D01*
G37*
G36*
X3087776Y-1232306D02*
G01*
X3060852Y-1254404D01*
X3069742Y-1264564D01*
X3082036Y-1253591D01*
X3085744Y-1249578D01*
X3085490Y-1255166D01*
X3085490Y-1261262D01*
X3085236Y-1265682D01*
X3085236Y-1325016D01*
X3102762Y-1325016D01*
X3102762Y-1232306D01*
G37*
G36*
X1573530Y-1230782D02*
G01*
X1568704Y-1230985D01*
X1564132Y-1231646D01*
X1559814Y-1232763D01*
X1555750Y-1234338D01*
X1552092Y-1236268D01*
X1548688Y-1238554D01*
X1545590Y-1241247D01*
X1542796Y-1244244D01*
X1540256Y-1247546D01*
X1538071Y-1251204D01*
X1536192Y-1255166D01*
X1534668Y-1259484D01*
X1533448Y-1263904D01*
X1532585Y-1268526D01*
X1532026Y-1273403D01*
X1531874Y-1278534D01*
X1532940Y-1292047D01*
X1536192Y-1303680D01*
X1538630Y-1308811D01*
X1541627Y-1313332D01*
X1545234Y-1317193D01*
X1549400Y-1320444D01*
X1554124Y-1322984D01*
X1559509Y-1324813D01*
X1565452Y-1325880D01*
X1572006Y-1326286D01*
X1578610Y-1326032D01*
X1584706Y-1325270D01*
X1590243Y-1323898D01*
X1595628Y-1321968D01*
X1595628Y-1307744D01*
X1590090Y-1309573D01*
X1584706Y-1311046D01*
X1579321Y-1311960D01*
X1573784Y-1312316D01*
X1569974Y-1312062D01*
X1566519Y-1311300D01*
X1563370Y-1310030D01*
X1560576Y-1308252D01*
X1558036Y-1306017D01*
X1555851Y-1303324D01*
X1553972Y-1300276D01*
X1552448Y-1296822D01*
X1551330Y-1292809D01*
X1550517Y-1288491D01*
X1550060Y-1283817D01*
X1550009Y-1274927D01*
X1550263Y-1271320D01*
X1551432Y-1264818D01*
X1553514Y-1258976D01*
X1554784Y-1256436D01*
X1557832Y-1251966D01*
X1559610Y-1250137D01*
X1561541Y-1248562D01*
X1563624Y-1247292D01*
X1565859Y-1246276D01*
X1568246Y-1245565D01*
X1570786Y-1245108D01*
X1576171Y-1245108D01*
X1578813Y-1245412D01*
X1581404Y-1245971D01*
X1586331Y-1247648D01*
X1593342Y-1250594D01*
X1599184Y-1237132D01*
X1593443Y-1234440D01*
X1586992Y-1232560D01*
X1580184Y-1231188D01*
G37*
G36*
X1636776Y-1230782D02*
G01*
X1630680Y-1231087D01*
X1625092Y-1232052D01*
X1620062Y-1233576D01*
X1617776Y-1234490D01*
X1613611Y-1236624D01*
X1609801Y-1238910D01*
X1608074Y-1240180D01*
X1615948Y-1251610D01*
X1618234Y-1249832D01*
X1621028Y-1248054D01*
X1624025Y-1246632D01*
X1627378Y-1245514D01*
X1631238Y-1244752D01*
X1635251Y-1244498D01*
X1638249Y-1244650D01*
X1640839Y-1245260D01*
X1643075Y-1246174D01*
X1644904Y-1247546D01*
X1646326Y-1249222D01*
X1647393Y-1251204D01*
X1648002Y-1253540D01*
X1648206Y-1256182D01*
X1647698Y-1260246D01*
X1646174Y-1263802D01*
X1645005Y-1265326D01*
X1643583Y-1266698D01*
X1641856Y-1267866D01*
X1639824Y-1268882D01*
X1637538Y-1269644D01*
X1634845Y-1270203D01*
X1628139Y-1270660D01*
X1621282Y-1270660D01*
X1621282Y-1283868D01*
X1631848Y-1283970D01*
X1635201Y-1284224D01*
X1640586Y-1285392D01*
X1642719Y-1286205D01*
X1644599Y-1287221D01*
X1646174Y-1288389D01*
X1647443Y-1289710D01*
X1648968Y-1293114D01*
X1649475Y-1297330D01*
X1649222Y-1300784D01*
X1648460Y-1303832D01*
X1647189Y-1306525D01*
X1645412Y-1308760D01*
X1642973Y-1310538D01*
X1639824Y-1311808D01*
X1635861Y-1312570D01*
X1631188Y-1312824D01*
X1625600Y-1312418D01*
X1619504Y-1311300D01*
X1613509Y-1309370D01*
X1607820Y-1306728D01*
X1607820Y-1321206D01*
X1613509Y-1323390D01*
X1619504Y-1325016D01*
X1625701Y-1325930D01*
X1632712Y-1326286D01*
X1638554Y-1326032D01*
X1643837Y-1325372D01*
X1648561Y-1324254D01*
X1652778Y-1322730D01*
X1656334Y-1320647D01*
X1659432Y-1318260D01*
X1662074Y-1315567D01*
X1664207Y-1312570D01*
X1665732Y-1309268D01*
X1666849Y-1305814D01*
X1667510Y-1302156D01*
X1667764Y-1298346D01*
X1667408Y-1293876D01*
X1666443Y-1289862D01*
X1664766Y-1286357D01*
X1662430Y-1283360D01*
X1659331Y-1280820D01*
X1655622Y-1278839D01*
X1651304Y-1277366D01*
X1646428Y-1276502D01*
X1646428Y-1276248D01*
X1651507Y-1274368D01*
X1656080Y-1271930D01*
X1658112Y-1270304D01*
X1659889Y-1268476D01*
X1661414Y-1266494D01*
X1663801Y-1261872D01*
X1664563Y-1259281D01*
X1665071Y-1256436D01*
X1665224Y-1253388D01*
X1664766Y-1248410D01*
X1663395Y-1244041D01*
X1661058Y-1240180D01*
X1657857Y-1236878D01*
X1653793Y-1234186D01*
X1648917Y-1232306D01*
X1643227Y-1231138D01*
G37*
G36*
X2373528Y-1230782D02*
G01*
X2368702Y-1230985D01*
X2364130Y-1231646D01*
X2359812Y-1232763D01*
X2355748Y-1234338D01*
X2352090Y-1236268D01*
X2348687Y-1238554D01*
X2345588Y-1241247D01*
X2342794Y-1244244D01*
X2340254Y-1247546D01*
X2338070Y-1251204D01*
X2336190Y-1255166D01*
X2334666Y-1259484D01*
X2333447Y-1263904D01*
X2332583Y-1268526D01*
X2332024Y-1273403D01*
X2331872Y-1278534D01*
X2332939Y-1292047D01*
X2336190Y-1303680D01*
X2338628Y-1308811D01*
X2341626Y-1313332D01*
X2345232Y-1317193D01*
X2349398Y-1320444D01*
X2354122Y-1322984D01*
X2359507Y-1324813D01*
X2365451Y-1325880D01*
X2372004Y-1326286D01*
X2378608Y-1326032D01*
X2384704Y-1325270D01*
X2390241Y-1323898D01*
X2395626Y-1321968D01*
X2395626Y-1307744D01*
X2390089Y-1309573D01*
X2384704Y-1311046D01*
X2379319Y-1311960D01*
X2373782Y-1312316D01*
X2369972Y-1312062D01*
X2366518Y-1311300D01*
X2363368Y-1310030D01*
X2360574Y-1308252D01*
X2358034Y-1306017D01*
X2355850Y-1303324D01*
X2353970Y-1300276D01*
X2352446Y-1296822D01*
X2351328Y-1292809D01*
X2350516Y-1288491D01*
X2350058Y-1283817D01*
X2350008Y-1274927D01*
X2350262Y-1271320D01*
X2351430Y-1264818D01*
X2353513Y-1258976D01*
X2354783Y-1256436D01*
X2357831Y-1251966D01*
X2359609Y-1250137D01*
X2361539Y-1248562D01*
X2363622Y-1247292D01*
X2365857Y-1246276D01*
X2368245Y-1245565D01*
X2370785Y-1245108D01*
X2376170Y-1245108D01*
X2378811Y-1245412D01*
X2381402Y-1245971D01*
X2386330Y-1247648D01*
X2393340Y-1250594D01*
X2399182Y-1237132D01*
X2393442Y-1234440D01*
X2386990Y-1232560D01*
X2380183Y-1231188D01*
G37*
G36*
X2443886Y-1232052D02*
G01*
X2406082Y-1291742D01*
X2420772Y-1291742D01*
X2439162Y-1259484D01*
X2443378Y-1250594D01*
X2443886Y-1250594D01*
X2443378Y-1263802D01*
X2443378Y-1291742D01*
X2406082Y-1291742D01*
X2405278Y-1293012D01*
X2405278Y-1305204D01*
X2443378Y-1305204D01*
X2443378Y-1325016D01*
X2460396Y-1325016D01*
X2460396Y-1305204D01*
X2471318Y-1305204D01*
X2471318Y-1291742D01*
X2460396Y-1291742D01*
X2460396Y-1232052D01*
G37*
G36*
X2823718Y-1180744D02*
G01*
X2818790Y-1180998D01*
X2814167Y-1181658D01*
X2809900Y-1182776D01*
X2805938Y-1184300D01*
X2802128Y-1186281D01*
X2798673Y-1188567D01*
X2795524Y-1191209D01*
X2792730Y-1194206D01*
X2790190Y-1197559D01*
X2788005Y-1201216D01*
X2786126Y-1205179D01*
X2784602Y-1209446D01*
X2783382Y-1213916D01*
X2782519Y-1218539D01*
X2781960Y-1223416D01*
X2781808Y-1228496D01*
X2782874Y-1242060D01*
X2786126Y-1253642D01*
X2788564Y-1258824D01*
X2791561Y-1263294D01*
X2795168Y-1267206D01*
X2799334Y-1270406D01*
X2804058Y-1272997D01*
X2809392Y-1274826D01*
X2815386Y-1275892D01*
X2821940Y-1276248D01*
X2828645Y-1275994D01*
X2834640Y-1275232D01*
X2840177Y-1273911D01*
X2845562Y-1271930D01*
X2845562Y-1257706D01*
X2840228Y-1259586D01*
X2834894Y-1261008D01*
X2829458Y-1261973D01*
X2823972Y-1262278D01*
X2820060Y-1262024D01*
X2816555Y-1261262D01*
X2813354Y-1259992D01*
X2810510Y-1258214D01*
X2808020Y-1255979D01*
X2805887Y-1253337D01*
X2804058Y-1250289D01*
X2802636Y-1246784D01*
X2801416Y-1242822D01*
X2800502Y-1238504D01*
X2799994Y-1233779D01*
X2799943Y-1224940D01*
X2800807Y-1217980D01*
X2802483Y-1211732D01*
X2803499Y-1208938D01*
X2804769Y-1206398D01*
X2807766Y-1201978D01*
X2809544Y-1200150D01*
X2811475Y-1198575D01*
X2813558Y-1197254D01*
X2815894Y-1196289D01*
X2818333Y-1195578D01*
X2820822Y-1195120D01*
X2823464Y-1194968D01*
X2828848Y-1195425D01*
X2833878Y-1196746D01*
X2843276Y-1200556D01*
X2849118Y-1187094D01*
X2843377Y-1184452D01*
X2836926Y-1182522D01*
X2830169Y-1181201D01*
G37*
G36*
X2888234Y-1180744D02*
G01*
X2881376Y-1181201D01*
X2878328Y-1181760D01*
X2872790Y-1183487D01*
X2867863Y-1185773D01*
X2863596Y-1188567D01*
X2857754Y-1193190D01*
X2867406Y-1204112D01*
X2872333Y-1200150D01*
X2877058Y-1197254D01*
X2879344Y-1196187D01*
X2881731Y-1195374D01*
X2884170Y-1194917D01*
X2886710Y-1194714D01*
X2889199Y-1194917D01*
X2891434Y-1195578D01*
X2893415Y-1196594D01*
X2895092Y-1198016D01*
X2896514Y-1199743D01*
X2897581Y-1201928D01*
X2898190Y-1204468D01*
X2898394Y-1207414D01*
X2898292Y-1210056D01*
X2897378Y-1214882D01*
X2896616Y-1217066D01*
X2894076Y-1221790D01*
X2890520Y-1226718D01*
X2879852Y-1238910D01*
X2858008Y-1262786D01*
X2858008Y-1274978D01*
X2918460Y-1274978D01*
X2918460Y-1260754D01*
X2879852Y-1260754D01*
X2879852Y-1259992D01*
X2904032Y-1232966D01*
X2907690Y-1228293D01*
X2910840Y-1223568D01*
X2913278Y-1218742D01*
X2914904Y-1213866D01*
X2915818Y-1208633D01*
X2915920Y-1205890D01*
X2915666Y-1202334D01*
X2915005Y-1198981D01*
X2913888Y-1195882D01*
X2912364Y-1192936D01*
X2910535Y-1190294D01*
X2908350Y-1187958D01*
X2905810Y-1185875D01*
X2902966Y-1184046D01*
X2899664Y-1182624D01*
X2896108Y-1181608D01*
X2892298Y-1180947D01*
G37*
G36*
X1973580Y-1580743D02*
G01*
X1966772Y-1581150D01*
X1960575Y-1582216D01*
X1954987Y-1584045D01*
X1949957Y-1586585D01*
X1945690Y-1589938D01*
X1941982Y-1593799D01*
X1938832Y-1598168D01*
X1936242Y-1603095D01*
X1933041Y-1614728D01*
X1931931Y-1628495D01*
X1950212Y-1628495D01*
X1950364Y-1623364D01*
X1950872Y-1618691D01*
X1951634Y-1614373D01*
X1952752Y-1610461D01*
X1954072Y-1606905D01*
X1955749Y-1603756D01*
X1957781Y-1601063D01*
X1960118Y-1598777D01*
X1962861Y-1596999D01*
X1966061Y-1595729D01*
X1969617Y-1594967D01*
X1973580Y-1594713D01*
X1979168Y-1595323D01*
X1983892Y-1596999D01*
X1987804Y-1599895D01*
X1990852Y-1603857D01*
X1994865Y-1614474D01*
X1996186Y-1628495D01*
X1996084Y-1633524D01*
X1995627Y-1638249D01*
X1994916Y-1642567D01*
X1993900Y-1646529D01*
X1992579Y-1650136D01*
X1990953Y-1653235D01*
X1988921Y-1655825D01*
X1986534Y-1657959D01*
X1983841Y-1659737D01*
X1980692Y-1661007D01*
X1977237Y-1661769D01*
X1973325Y-1662023D01*
X1969465Y-1661769D01*
X1965960Y-1661007D01*
X1962861Y-1659737D01*
X1960118Y-1657959D01*
X1957781Y-1655825D01*
X1955749Y-1653235D01*
X1954072Y-1650136D01*
X1952752Y-1646529D01*
X1951634Y-1642567D01*
X1950872Y-1638249D01*
X1950364Y-1633524D01*
X1950212Y-1628495D01*
X1931931Y-1628495D01*
X1932076Y-1633575D01*
X1932584Y-1638655D01*
X1933346Y-1643481D01*
X1934464Y-1648053D01*
X1935886Y-1652270D01*
X1937664Y-1656130D01*
X1939696Y-1659737D01*
X1942084Y-1663039D01*
X1944776Y-1666036D01*
X1947824Y-1668729D01*
X1951126Y-1671015D01*
X1954784Y-1672945D01*
X1958898Y-1674418D01*
X1963369Y-1675434D01*
X1968195Y-1676044D01*
X1975104Y-1676247D01*
X1991106Y-1697075D01*
X2013712Y-1697075D01*
X1992630Y-1672691D01*
X1996186Y-1670964D01*
X1999437Y-1668780D01*
X2002434Y-1666138D01*
X2005075Y-1663039D01*
X2007362Y-1659737D01*
X2009292Y-1656130D01*
X2010918Y-1652270D01*
X2013305Y-1643532D01*
X2014118Y-1638757D01*
X2014575Y-1633728D01*
X2014728Y-1628495D01*
X2013610Y-1614982D01*
X2010156Y-1603349D01*
X2007616Y-1598320D01*
X2004517Y-1593850D01*
X2000910Y-1589938D01*
X1996693Y-1586585D01*
X1991817Y-1584045D01*
X1986381Y-1582216D01*
X1980285Y-1581150D01*
G37*
G36*
X2056384Y-1582267D02*
G01*
X2029460Y-1604365D01*
X2038096Y-1614525D01*
X2048764Y-1605381D01*
X2054352Y-1599539D01*
X2053843Y-1617065D01*
X2053843Y-1674977D01*
X2071116Y-1674977D01*
X2071116Y-1582267D01*
G37*
G36*
X1948586Y-305765D02*
G01*
X1941779Y-306120D01*
X1935581Y-307238D01*
X1929993Y-309067D01*
X1924964Y-311607D01*
X1920697Y-314909D01*
X1916988Y-318770D01*
X1913839Y-323189D01*
X1911248Y-328117D01*
X1907997Y-339750D01*
X1906937Y-353517D01*
X1925218Y-353517D01*
X1925370Y-348386D01*
X1925878Y-343662D01*
X1926640Y-339394D01*
X1927758Y-335483D01*
X1929079Y-331876D01*
X1930755Y-328777D01*
X1932787Y-326034D01*
X1935124Y-323799D01*
X1937867Y-322021D01*
X1941017Y-320751D01*
X1944624Y-319989D01*
X1948586Y-319735D01*
X1954174Y-320294D01*
X1958898Y-322021D01*
X1962810Y-324866D01*
X1965858Y-328879D01*
X1969871Y-339496D01*
X1971192Y-353517D01*
X1971039Y-358546D01*
X1970633Y-363220D01*
X1969922Y-367588D01*
X1968906Y-371551D01*
X1967585Y-375107D01*
X1965909Y-378206D01*
X1963928Y-380847D01*
X1961540Y-382981D01*
X1958797Y-384759D01*
X1955698Y-386029D01*
X1952193Y-386791D01*
X1948332Y-387045D01*
X1944471Y-386791D01*
X1940966Y-386029D01*
X1937867Y-384759D01*
X1935124Y-382981D01*
X1932787Y-380847D01*
X1930755Y-378206D01*
X1929079Y-375107D01*
X1927758Y-371551D01*
X1926640Y-367588D01*
X1925878Y-363220D01*
X1925370Y-358546D01*
X1925218Y-353517D01*
X1906937Y-353517D01*
X1907082Y-358597D01*
X1907590Y-363677D01*
X1908352Y-368503D01*
X1909470Y-373075D01*
X1910892Y-377240D01*
X1912670Y-381152D01*
X1914702Y-384759D01*
X1917090Y-388061D01*
X1919782Y-391058D01*
X1922830Y-393700D01*
X1926132Y-396036D01*
X1929790Y-397967D01*
X1933905Y-399389D01*
X1938375Y-400456D01*
X1943201Y-401066D01*
X1950110Y-401269D01*
X1966112Y-422097D01*
X1988718Y-422097D01*
X1967636Y-397713D01*
X1971192Y-395986D01*
X1974443Y-393750D01*
X1977389Y-391160D01*
X1980082Y-388061D01*
X1982368Y-384759D01*
X1984298Y-381152D01*
X1985924Y-377240D01*
X1987194Y-373075D01*
X1988312Y-368503D01*
X1989124Y-363728D01*
X1989582Y-358749D01*
X1989734Y-353517D01*
X1988616Y-340004D01*
X1985162Y-328371D01*
X1982622Y-323342D01*
X1979523Y-318820D01*
X1975866Y-314960D01*
X1971700Y-311607D01*
X1966823Y-309067D01*
X1961337Y-307238D01*
X1955292Y-306120D01*
G37*
G36*
X2031898Y-305765D02*
G01*
X2028342Y-305866D01*
X2021839Y-306781D01*
X2018944Y-307543D01*
X2013762Y-309575D01*
X2009292Y-312115D01*
X2001418Y-318211D01*
X2010816Y-329133D01*
X2015794Y-325120D01*
X2020468Y-322275D01*
X2022906Y-321157D01*
X2025345Y-320395D01*
X2027885Y-319887D01*
X2030374Y-319735D01*
X2032812Y-319938D01*
X2034997Y-320548D01*
X2037029Y-321614D01*
X2038756Y-323037D01*
X2040229Y-324764D01*
X2041245Y-326898D01*
X2041855Y-329488D01*
X2042058Y-332435D01*
X2041956Y-335026D01*
X2040940Y-339852D01*
X2039010Y-344424D01*
X2036064Y-349250D01*
X2032000Y-354380D01*
X2026666Y-360527D01*
X2001418Y-387807D01*
X2001418Y-399999D01*
X2061870Y-399999D01*
X2061870Y-385775D01*
X2023262Y-385775D01*
X2023262Y-385013D01*
X2043379Y-362966D01*
X2047697Y-357987D01*
X2051405Y-353263D01*
X2054453Y-348538D01*
X2056841Y-343763D01*
X2057806Y-341325D01*
X2058974Y-336296D01*
X2059330Y-330911D01*
X2059127Y-327355D01*
X2058517Y-324002D01*
X2057501Y-320852D01*
X2056028Y-317957D01*
X2054199Y-315315D01*
X2051964Y-312928D01*
X2049373Y-310845D01*
X2046376Y-309067D01*
X2043175Y-307644D01*
X2039721Y-306578D01*
X2035962Y-305968D01*
G37*
G36*
X935888Y-1057300D02*
G01*
X935888Y-1071016D01*
X961034Y-1071016D01*
X966368Y-1071372D01*
X970686Y-1072540D01*
X972464Y-1073251D01*
X973988Y-1074267D01*
X975258Y-1075436D01*
X976274Y-1076858D01*
X977036Y-1078484D01*
X977595Y-1080414D01*
X978052Y-1084986D01*
X977595Y-1089406D01*
X976274Y-1093114D01*
X975258Y-1094638D01*
X973988Y-1095959D01*
X972464Y-1097076D01*
X968756Y-1098702D01*
X964031Y-1099616D01*
X953414Y-1099718D01*
X953414Y-1071016D01*
X935888Y-1071016D01*
X935888Y-1150010D01*
X953414Y-1150010D01*
X953414Y-1113434D01*
X964590Y-1113434D01*
X984910Y-1150010D01*
X1004468Y-1150010D01*
X979576Y-1109116D01*
X983894Y-1106932D01*
X987704Y-1104036D01*
X989380Y-1102410D01*
X992327Y-1098448D01*
X993546Y-1096162D01*
X994511Y-1093622D01*
X995222Y-1090828D01*
X995680Y-1087780D01*
X995832Y-1084478D01*
X995578Y-1080109D01*
X994867Y-1076096D01*
X993648Y-1072438D01*
X992022Y-1069238D01*
X989888Y-1066393D01*
X987298Y-1063904D01*
X984300Y-1061821D01*
X980846Y-1060094D01*
X976884Y-1058875D01*
X972362Y-1058011D01*
X967333Y-1057452D01*
G37*
G36*
X1039520Y-1057300D02*
G01*
X1012596Y-1079398D01*
X1021232Y-1089558D01*
X1031849Y-1080363D01*
X1037488Y-1074572D01*
X1037285Y-1077214D01*
X1037234Y-1086256D01*
X1036980Y-1090676D01*
X1036980Y-1150010D01*
X1054252Y-1150010D01*
X1054252Y-1057300D01*
G37*
G36*
X1040028Y-855776D02*
G01*
X1033068Y-856183D01*
X1029969Y-856742D01*
X1024382Y-858469D01*
X1019556Y-860755D01*
X1015390Y-863549D01*
X1009548Y-868222D01*
X1018946Y-879144D01*
X1023874Y-875131D01*
X1028598Y-872286D01*
X1030986Y-871169D01*
X1033475Y-870356D01*
X1035964Y-869899D01*
X1038504Y-869746D01*
X1040892Y-869950D01*
X1043127Y-870559D01*
X1045108Y-871575D01*
X1046886Y-873048D01*
X1048308Y-874776D01*
X1049324Y-876909D01*
X1049985Y-879449D01*
X1050188Y-882446D01*
X1049680Y-887526D01*
X1048156Y-892098D01*
X1045768Y-896772D01*
X1042314Y-901750D01*
X1031646Y-913942D01*
X1009548Y-937818D01*
X1009548Y-950010D01*
X1070000Y-950010D01*
X1070000Y-935786D01*
X1031392Y-935786D01*
X1031392Y-935024D01*
X1051509Y-912977D01*
X1055827Y-907999D01*
X1059484Y-903274D01*
X1062532Y-898550D01*
X1064971Y-893724D01*
X1065936Y-891336D01*
X1067054Y-886307D01*
X1067460Y-880922D01*
X1067257Y-877316D01*
X1066596Y-874014D01*
X1065580Y-870864D01*
X1064158Y-867968D01*
X1062278Y-865327D01*
X1060094Y-862939D01*
X1057452Y-860856D01*
X1054506Y-859078D01*
X1051306Y-857605D01*
X1047800Y-856589D01*
X1044041Y-855980D01*
G37*
G36*
X935888Y-857300D02*
G01*
X935888Y-871016D01*
X961034Y-871016D01*
X966368Y-871372D01*
X970686Y-872540D01*
X972464Y-873252D01*
X973988Y-874217D01*
X975258Y-875436D01*
X976274Y-876858D01*
X977036Y-878484D01*
X977595Y-880414D01*
X978052Y-884986D01*
X977595Y-889406D01*
X976274Y-893114D01*
X975258Y-894638D01*
X973988Y-895959D01*
X972464Y-897077D01*
X968756Y-898702D01*
X964031Y-899617D01*
X953414Y-899718D01*
X953414Y-871016D01*
X935888Y-871016D01*
X935888Y-950010D01*
X953414Y-950010D01*
X953414Y-913434D01*
X964590Y-913434D01*
X984910Y-950010D01*
X1004468Y-950010D01*
X979576Y-909116D01*
X983894Y-906932D01*
X987704Y-904036D01*
X989380Y-902411D01*
X992327Y-898448D01*
X993546Y-896162D01*
X994511Y-893622D01*
X995222Y-890828D01*
X995680Y-887780D01*
X995832Y-884478D01*
X995578Y-880059D01*
X994867Y-876096D01*
X993648Y-872439D01*
X992022Y-869238D01*
X989888Y-866343D01*
X987298Y-863904D01*
X984300Y-861821D01*
X980846Y-860094D01*
X976884Y-858875D01*
X972362Y-857961D01*
X967333Y-857453D01*
G37*
G36*
X1638503Y-405739D02*
G01*
X1632254Y-406095D01*
X1626819Y-407060D01*
X1621790Y-408533D01*
X1617421Y-410565D01*
X1613357Y-412750D01*
X1609801Y-415137D01*
X1617675Y-426618D01*
X1619961Y-424789D01*
X1622755Y-423062D01*
X1625701Y-421640D01*
X1629105Y-420471D01*
X1632813Y-419760D01*
X1636979Y-419455D01*
X1639824Y-419658D01*
X1642364Y-420268D01*
X1644548Y-421182D01*
X1646377Y-422554D01*
X1647901Y-424230D01*
X1649018Y-426212D01*
X1649679Y-428548D01*
X1649933Y-431139D01*
X1649425Y-435254D01*
X1647901Y-438810D01*
X1646732Y-440334D01*
X1645259Y-441706D01*
X1643532Y-442874D01*
X1641551Y-443839D01*
X1639163Y-444652D01*
X1636471Y-445211D01*
X1629867Y-445668D01*
X1623009Y-445668D01*
X1623009Y-458876D01*
X1633575Y-458927D01*
X1639824Y-459689D01*
X1642313Y-460349D01*
X1644446Y-461213D01*
X1646275Y-462229D01*
X1647850Y-463397D01*
X1649171Y-464718D01*
X1650034Y-466293D01*
X1650695Y-468122D01*
X1651203Y-472287D01*
X1650949Y-475792D01*
X1650187Y-478840D01*
X1648917Y-481482D01*
X1647139Y-483768D01*
X1644599Y-485495D01*
X1641348Y-486765D01*
X1637334Y-487527D01*
X1630019Y-487730D01*
X1624330Y-486968D01*
X1618183Y-485444D01*
X1612341Y-483158D01*
X1609547Y-481736D01*
X1609547Y-496163D01*
X1615186Y-498398D01*
X1620977Y-499973D01*
X1627378Y-500938D01*
X1634439Y-501294D01*
X1640230Y-501040D01*
X1645513Y-500380D01*
X1650288Y-499262D01*
X1654505Y-497687D01*
X1658061Y-495655D01*
X1661109Y-493268D01*
X1663649Y-490575D01*
X1665681Y-487578D01*
X1667306Y-484276D01*
X1668525Y-480822D01*
X1669237Y-477164D01*
X1669491Y-473354D01*
X1669135Y-468884D01*
X1668119Y-464870D01*
X1666493Y-461365D01*
X1664157Y-458368D01*
X1661058Y-455828D01*
X1657350Y-453847D01*
X1653032Y-452374D01*
X1648155Y-451510D01*
X1648155Y-451205D01*
X1653235Y-449376D01*
X1657807Y-446887D01*
X1659839Y-445312D01*
X1661617Y-443484D01*
X1663141Y-441502D01*
X1665528Y-436880D01*
X1666290Y-434289D01*
X1666798Y-431444D01*
X1666951Y-428345D01*
X1666493Y-423418D01*
X1665071Y-419049D01*
X1662785Y-415188D01*
X1659585Y-411886D01*
X1655470Y-409194D01*
X1650593Y-407263D01*
X1644954Y-406146D01*
G37*
G36*
X1535887Y-407263D02*
G01*
X1535887Y-420979D01*
X1561033Y-420979D01*
X1566367Y-421385D01*
X1568653Y-421843D01*
X1572463Y-423265D01*
X1573987Y-424230D01*
X1575257Y-425450D01*
X1576273Y-426821D01*
X1577035Y-428498D01*
X1577594Y-430428D01*
X1578051Y-434949D01*
X1577594Y-439420D01*
X1576273Y-443128D01*
X1575257Y-444652D01*
X1573987Y-445973D01*
X1572463Y-447040D01*
X1568754Y-448716D01*
X1566519Y-449275D01*
X1561287Y-449681D01*
X1553413Y-449681D01*
X1553413Y-420979D01*
X1535887Y-420979D01*
X1535887Y-499973D01*
X1553413Y-499973D01*
X1553413Y-463397D01*
X1564589Y-463397D01*
X1584909Y-499973D01*
X1604467Y-499973D01*
X1579575Y-459079D01*
X1583893Y-456946D01*
X1587703Y-453999D01*
X1590903Y-450545D01*
X1592326Y-448462D01*
X1593545Y-446176D01*
X1594510Y-443636D01*
X1595221Y-440842D01*
X1595678Y-437794D01*
X1595831Y-434492D01*
X1595577Y-430072D01*
X1594866Y-426059D01*
X1593646Y-422452D01*
X1592021Y-419252D01*
X1589887Y-416356D01*
X1587296Y-413918D01*
X1584299Y-411784D01*
X1580845Y-410057D01*
X1576882Y-408838D01*
X1572361Y-407974D01*
X1567332Y-407466D01*
X1561795Y-407263D01*
G37*
G36*
X2445613Y-407060D02*
G01*
X2407842Y-466699D01*
X2422499Y-466699D01*
X2440889Y-434441D01*
X2443429Y-429412D01*
X2445105Y-425602D01*
X2445613Y-425602D01*
X2445207Y-435864D01*
X2445105Y-466699D01*
X2407842Y-466699D01*
X2407005Y-468020D01*
X2407005Y-480212D01*
X2445105Y-480212D01*
X2445105Y-499973D01*
X2462123Y-499973D01*
X2462123Y-480212D01*
X2473045Y-480212D01*
X2473045Y-466699D01*
X2462123Y-466699D01*
X2462123Y-407060D01*
G37*
G36*
X2335885Y-407263D02*
G01*
X2335885Y-420979D01*
X2361031Y-420979D01*
X2366365Y-421385D01*
X2368651Y-421843D01*
X2372461Y-423265D01*
X2373985Y-424230D01*
X2375255Y-425450D01*
X2376271Y-426821D01*
X2377033Y-428498D01*
X2377592Y-430428D01*
X2378049Y-434949D01*
X2377592Y-439420D01*
X2376271Y-443128D01*
X2375255Y-444652D01*
X2373985Y-445973D01*
X2372461Y-447040D01*
X2368753Y-448716D01*
X2366518Y-449275D01*
X2361285Y-449681D01*
X2353411Y-449681D01*
X2353411Y-420979D01*
X2335885Y-420979D01*
X2335885Y-499973D01*
X2353411Y-499973D01*
X2353411Y-463397D01*
X2364587Y-463397D01*
X2384907Y-499973D01*
X2404465Y-499973D01*
X2379573Y-459079D01*
X2383891Y-456946D01*
X2387701Y-453999D01*
X2390902Y-450545D01*
X2392324Y-448462D01*
X2393543Y-446176D01*
X2394508Y-443636D01*
X2395220Y-440842D01*
X2395677Y-437794D01*
X2395829Y-434492D01*
X2395575Y-430072D01*
X2394864Y-426059D01*
X2393645Y-422452D01*
X2392019Y-419252D01*
X2389886Y-416356D01*
X2387295Y-413918D01*
X2384298Y-411784D01*
X2380843Y-410057D01*
X2376881Y-408838D01*
X2372360Y-407974D01*
X2367330Y-407466D01*
X2361793Y-407263D01*
G37*
G36*
X2208022Y-935177D02*
G01*
X2194052Y-937361D01*
X2183130Y-944067D01*
X2176068Y-955141D01*
X2173732Y-970229D01*
X2174036Y-976020D01*
X2174849Y-981303D01*
X2176322Y-986078D01*
X2178304Y-990295D01*
X2180691Y-994054D01*
X2183485Y-997305D01*
X2186787Y-1000048D01*
X2190496Y-1002233D01*
X2194407Y-1004011D01*
X2198624Y-1005281D01*
X2203043Y-1006043D01*
X2207768Y-1006297D01*
X2267712Y-1006297D01*
X2267712Y-988771D01*
X2209800Y-988771D01*
X2203399Y-988263D01*
X2200503Y-987602D01*
X2195474Y-985723D01*
X2193391Y-984453D01*
X2191664Y-982929D01*
X2190242Y-981151D01*
X2189226Y-978966D01*
X2188514Y-976477D01*
X2188108Y-973734D01*
X2187956Y-970737D01*
X2188260Y-966520D01*
X2189226Y-962914D01*
X2190800Y-959815D01*
X2193036Y-957275D01*
X2196084Y-955243D01*
X2199894Y-953820D01*
X2204466Y-952957D01*
X2209800Y-952703D01*
X2267712Y-952703D01*
X2267712Y-935177D01*
G37*
G36*
X2245614Y-1024331D02*
G01*
X2235454Y-1032967D01*
X2244648Y-1043584D01*
X2250440Y-1049223D01*
X2238756Y-1048715D01*
X2175002Y-1048715D01*
X2175002Y-1065987D01*
X2267712Y-1065987D01*
X2267712Y-1051255D01*
G37*
D10*
X3140354Y-1181117D02*
G01*
X3140354Y-1040117D01*
X2959633Y-1040117D02*
G01*
X2959633Y-1181117D01*
X2974873Y-1196357D02*
G01*
X3125114Y-1196357D01*
X3140354Y-818878D02*
G01*
X3140354Y-959878D01*
X2959633Y-959878D02*
G01*
X2959633Y-818878D01*
X2974873Y-803638D02*
G01*
X3125114Y-803638D01*
X1509636Y-818878D02*
G01*
X1509636Y-959878D01*
X1690357Y-959878D02*
G01*
X1690357Y-818878D01*
X1675117Y-803638D02*
G01*
X1524876Y-803638D01*
X1509636Y-1181117D02*
G01*
X1509636Y-1040117D01*
X1690357Y-1040117D02*
G01*
X1690357Y-1181117D01*
X1675117Y-1196357D02*
G01*
X1524876Y-1196357D01*
X2309634Y-818878D02*
G01*
X2309634Y-959878D01*
X2490355Y-959878D02*
G01*
X2490355Y-818878D01*
X2475115Y-803638D02*
G01*
X2324874Y-803638D01*
X2309634Y-1181117D02*
G01*
X2309634Y-1040117D01*
X2490355Y-1040117D02*
G01*
X2490355Y-1181117D01*
X2475115Y-1196357D02*
G01*
X2324874Y-1196357D01*
D11*
X2889971Y-1138999D02*
G01*
X2809968Y-1138999D01*
X2920956Y-1028024D02*
G01*
X2920956Y-1108021D01*
X2778991Y-1028024D02*
G01*
X2778991Y-1108021D01*
X2921538Y-970434D02*
G01*
X2921538Y-890435D01*
X2890555Y-859452D02*
G01*
X2810558Y-859452D01*
X2779577Y-970434D02*
G01*
X2779577Y-890435D01*
D10*
X2152616Y-1472618D02*
G01*
X2152616Y-1327376D01*
X2049454Y-1327376D01*
X1847375Y-1472618D02*
G01*
X1847375Y-1327376D01*
X1950537Y-1327376D01*
X2045535Y-1472618D02*
G01*
X1954456Y-1472618D01*
X2072617Y-447377D02*
G01*
X1927374Y-447377D01*
X1927374Y-550539D01*
X2072617Y-752619D02*
G01*
X1927374Y-752619D01*
X1927374Y-649457D01*
X2072617Y-554459D02*
G01*
X2072617Y-645538D01*
X1207381Y-1033962D02*
G01*
X1111493Y-1033962D01*
X1111493Y-1166083D01*
X1207381Y-1166083D01*
X1292623Y-1033962D02*
G01*
X1388511Y-1033962D01*
X1388511Y-1166083D01*
X1292623Y-1166083D01*
X1207381Y-833963D02*
G01*
X1111493Y-833963D01*
X1111493Y-966083D01*
X1207381Y-966083D01*
X1292623Y-833963D02*
G01*
X1388511Y-833963D01*
X1388511Y-966083D01*
X1292623Y-966083D01*
X1557375Y-533938D02*
G01*
X1461488Y-533938D01*
X1461488Y-666059D01*
X1557375Y-666059D01*
X1642618Y-533938D02*
G01*
X1738505Y-533938D01*
X1738505Y-666059D01*
X1642618Y-666059D01*
X2357374Y-533938D02*
G01*
X2261486Y-533938D01*
X2261486Y-666059D01*
X2357374Y-666059D01*
X2442616Y-533938D02*
G01*
X2538503Y-533938D01*
X2538503Y-666059D01*
X2442616Y-666059D01*
X1847375Y-1085118D02*
G01*
X1847375Y-914877D01*
X2152616Y-1085118D02*
G01*
X2152616Y-914877D01*
X2047636Y-914877D02*
G01*
X1952355Y-914877D01*
D11*
X-493516Y-1268938D02*
G01*
X-493516Y-733310D01*
X-586044Y-1268938D01*
X-586044Y-733310D01*
X-678573Y-1268938D01*
X-678573Y-733310D01*
X-767473Y-1268938D01*
X-767473Y-733310D01*
X-854555Y-1268938D01*
X-141805Y-1266931D01*
X-910000Y-733310D02*
G01*
X-854555Y-733310D01*
X-141805Y-733310D01*
X10594Y-682500D02*
G01*
X10594Y-1324996D01*
X-141805Y-1324996D01*
X-141805Y-674994D01*
X10594Y-674994D01*
X-854555Y-733310D02*
G01*
X-854555Y-1268938D01*
X-908938Y-1268938D01*
X-910000Y-1269997D01*
X-910000Y-731997D01*
X4493508Y-731057D02*
G01*
X4493508Y-1266685D01*
X4586036Y-731057D01*
X4586036Y-1266685D01*
X4678565Y-731057D01*
X4678565Y-1266685D01*
X4767465Y-731057D01*
X4767465Y-1266685D01*
X4854547Y-731057D01*
X4141797Y-733064D01*
X4909992Y-1266685D02*
G01*
X4854547Y-1266685D01*
X4141797Y-1266685D01*
X3989397Y-1317495D02*
G01*
X3989397Y-674999D01*
X4141797Y-674999D01*
X4141797Y-1325001D01*
X3989397Y-1325001D01*
X4854547Y-1266685D02*
G01*
X4854547Y-731057D01*
X4908931Y-731057D01*
X4909992Y-729998D01*
X4909992Y-1267998D01*
D10*
G75*
G01*
X2959633Y-1181118D02*
G03*
X2974873Y-1196358I15240J0D01*
G75*
G01*
X3125114Y-1196358D02*
G03*
X3140354Y-1181118I0J15240D01*
G75*
G01*
X2959633Y-818878D02*
G02*
X2974873Y-803638I15240J0D01*
G75*
G01*
X3125114Y-803638D02*
G02*
X3140354Y-818878I0J-15240D01*
G75*
G01*
X1690357Y-818878D02*
G03*
X1675117Y-803638I-15240J0D01*
G75*
G01*
X1524876Y-803638D02*
G03*
X1509636Y-818878I0J-15240D01*
G75*
G01*
X1690357Y-1181118D02*
G02*
X1675117Y-1196358I-15240J0D01*
G75*
G01*
X1524876Y-1196358D02*
G02*
X1509636Y-1181118I0J15240D01*
G75*
G01*
X2490356Y-818878D02*
G03*
X2475116Y-803638I-15240J0D01*
G75*
G01*
X2324875Y-803638D02*
G03*
X2309635Y-818878I0J-15240D01*
G75*
G01*
X2490356Y-1181118D02*
G02*
X2475116Y-1196358I-15240J0D01*
G75*
G01*
X2324875Y-1196358D02*
G02*
X2309635Y-1181118I0J15240D01*
D11*
G75*
G01*
X2890556Y-859447D02*
G02*
X2921538Y-890430I0J-30983D01*
G75*
G01*
X2779573Y-890430D02*
G02*
X2810558Y-859447I30983J0D01*
G75*
G01*
X2920957Y-1108017D02*
G02*
X2889971Y-1139000I-30983J0D01*
G75*
G01*
X2809974Y-1139000D02*
G02*
X2778991Y-1108017I0J30983D01*
D12*
G75*
G01
X1849907Y-1114298D02*
G03X1849907Y-1114298I-15011J0D01*
M02*
